<svg width="439" height="439" viewBox="0 0 439 439" fill="none" xmlns="http://www.w3.org/2000/svg">
<path d="M99.3897 192.73H43.9528V250.511H99.3897V192.73Z" fill="#E0E0E0"/>
<path d="M95.632 192.73H40.1951V250.511H95.632V192.73Z" fill="#FAFAFA"/>
<path d="M95.6494 250.529H40.1774V192.712H95.6494V250.529ZM40.2125 250.529H95.6143V192.747H40.2125V250.529Z" fill="#E0E0E0"/>
<path d="M88.1775 200.491H47.649V242.741H88.1775V200.491Z" fill="#FAFAFA"/>
<path d="M47.6489 243.022C47.3655 243.451 47.0292 243.844 46.648 244.189C45.9982 244.874 45.0939 245.796 44.0754 246.823C43.0569 247.851 42.1175 248.729 41.4414 249.361C41.0901 249.729 40.6984 250.056 40.2737 250.335C40.5543 249.901 40.8875 249.503 41.2658 249.15C41.9155 248.465 42.8199 247.543 43.8471 246.516C44.8744 245.489 45.8051 244.611 46.4811 243.979C46.8334 243.617 47.2251 243.296 47.6489 243.022Z" fill="#E0E0E0"/>
<path d="M88.1775 242.916C88.5981 243.208 88.9865 243.544 89.3365 243.917C90.0213 244.567 90.952 245.48 91.9705 246.499C92.9889 247.517 93.8669 248.457 94.5079 249.133C94.8773 249.486 95.2043 249.88 95.4825 250.309C95.0587 250.022 94.6697 249.686 94.3235 249.308C93.6387 248.667 92.7168 247.754 91.6895 246.727C90.6622 245.7 89.7842 244.769 89.1521 244.093C88.778 243.744 88.4505 243.349 88.1775 242.916Z" fill="#E0E0E0"/>
<path d="M88.0634 200.606C88.3579 200.187 88.6932 199.799 89.0643 199.447C89.714 198.762 90.6271 197.84 91.6456 196.813C92.6641 195.785 93.6035 194.916 94.2796 194.284C94.6265 193.908 95.0222 193.58 95.4561 193.309C95.1694 193.731 94.8334 194.117 94.4552 194.46C93.8143 195.144 92.9011 196.075 91.8739 197.094C90.8466 198.112 89.9159 198.999 89.2399 199.64C88.8906 200.011 88.4952 200.335 88.0634 200.606Z" fill="#E0E0E0"/>
<path d="M47.5349 200.711C47.1112 200.423 46.7222 200.087 46.376 199.71C45.6911 199.06 44.7692 198.156 43.742 197.137C42.7147 196.119 41.8455 195.179 41.2133 194.503C40.8423 194.155 40.515 193.763 40.2388 193.336C40.662 193.617 41.0484 193.95 41.3889 194.328C42.0738 194.978 43.0045 195.891 44.0229 196.909C45.0414 197.928 45.9194 198.867 46.5604 199.543C46.9338 199.889 47.2614 200.282 47.5349 200.711Z" fill="#E0E0E0"/>
<path d="M88.0634 242.741C88.0634 242.741 88.0634 242.67 88.0634 242.539C88.0634 242.407 88.0634 242.196 88.0634 241.95C88.0634 241.415 88.0634 240.66 88.0634 239.668C88.0634 237.666 88.0634 234.751 88.0634 231.054C88.0634 223.662 88.0107 213.117 87.9843 200.491L88.1336 200.649H47.7456L47.9212 200.465C47.9212 215.979 47.9212 230.484 47.9212 242.714L47.7719 242.565L77.0357 242.644H85.2537H87.4312H88.1863C88.1863 242.644 88.1336 242.644 88.0107 242.644H87.4663H85.324L77.1323 242.688L47.7719 242.767H47.6139V242.609C47.6139 230.378 47.6139 215.874 47.6139 200.36V200.184H47.7983H88.1863H88.3443V200.333C88.3443 213.003 88.2829 223.574 88.2653 231.002C88.2653 234.681 88.2653 237.578 88.2653 239.571C88.2653 240.554 88.2653 241.327 88.2653 241.828C88.2653 242.073 88.2653 242.258 88.2653 242.398C88.2653 242.539 88.0721 242.749 88.0634 242.741Z" fill="#E0E0E0"/>
<path d="M74.6737 214.855H61.1525V228.377H74.6737V214.855Z" fill="#EBEBEB"/>
<path d="M392.949 63.576V55.112H386.996V63.576H381.052V111.98H398.559V63.576H392.949Z" fill="#EBEBEB"/>
<path d="M409.921 111.98H277.834V119.347H409.921V111.98Z" fill="#E0E0E0"/>
<path d="M388.805 119.347H384.599V144.273H388.805V119.347Z" fill="#E0E0E0"/>
<path d="M299.047 119.347H294.841V144.273H299.047V119.347Z" fill="#E0E0E0"/>
<path d="M347.548 76.5968V70.4508H343.158V76.5968H338.768V111.98H351.569V76.5968H347.548Z" fill="#F5F5F5"/>
<path d="M372.579 76.5968V70.4508H368.189V76.5968H363.799V111.98H376.662V76.5968H372.579Z" fill="#EBEBEB"/>
<path d="M322.033 88.9942H299.047V111.98H322.033V88.9942Z" fill="#E0E0E0"/>
<path d="M321.919 94.8943C321.919 95.0436 316.844 95.1665 310.584 95.1665C304.324 95.1665 299.249 95.0436 299.249 94.8943C299.249 94.745 304.324 94.6309 310.584 94.6309C316.844 94.6309 321.919 94.745 321.919 94.8943Z" fill="#EBEBEB"/>
<path d="M311.409 97.9323C311.409 97.9323 311.497 97.9323 311.646 97.9323C311.866 97.9898 312.073 98.0848 312.261 98.2132C312.934 98.7322 313.383 99.4894 313.516 100.329C313.806 101.565 313.594 102.866 312.928 103.947C312.511 104.581 311.892 105.058 311.172 105.299C310.392 105.523 309.564 105.523 308.784 105.299C308.018 105.13 307.314 104.753 306.75 104.209C306.186 103.665 305.784 102.976 305.588 102.217C305.468 101.701 305.464 101.166 305.576 100.648C305.689 100.131 305.914 99.645 306.236 99.2253C306.559 98.8055 306.97 98.4624 307.441 98.2206C307.912 97.9788 308.43 97.8443 308.959 97.8269C309.26 97.7915 309.565 97.8433 309.837 97.9762C309.837 98.0201 309.521 97.9762 308.959 98.0376C308.19 98.1458 307.475 98.4928 306.914 99.0298C306.516 99.4275 306.227 99.9202 306.073 100.461C305.92 101.002 305.907 101.573 306.036 102.12C306.231 102.775 306.599 103.366 307.101 103.829C307.603 104.293 308.221 104.612 308.889 104.754C309.575 104.947 310.301 104.947 310.988 104.754C311.61 104.559 312.148 104.16 312.515 103.622C313.131 102.652 313.357 101.485 313.147 100.356C313.057 99.5833 312.696 98.8679 312.129 98.3361C311.69 98.064 311.391 97.9849 311.409 97.9323Z" fill="#EBEBEB"/>
<path d="M68.6069 42.8465H161.06V163.185L69.2215 162.72L68.6069 42.8465Z" fill="#E0E0E0"/>
<path d="M63.2862 162.263H155.204L155.204 42.8464L63.2862 42.8464L63.2862 162.263Z" fill="white"/>
<path d="M155.652 42.3899V162.72H62.8209V42.4338L155.652 42.3899ZM154.774 161.798V43.2679H63.734V161.798H154.774Z" fill="#E0E0E0"/>
<path d="M143.097 55.7794H72.725V149.33H143.097V55.7794Z" fill="white"/>
<path d="M72.725 55.7794C72.725 55.7794 72.725 55.9374 72.725 56.236C72.725 56.5345 72.725 56.9735 72.725 57.553C72.725 58.7207 72.725 60.424 72.725 62.6454C72.725 67.1056 72.725 73.6028 72.7777 81.8297C72.7777 98.2834 72.8479 121.638 72.8918 149.33L72.6723 149.12H143.044L142.807 149.357C142.807 114.518 142.807 82.2248 142.807 55.8057L143 55.9989L91.9005 55.9023L77.6769 55.8496H73.9279C73.0499 55.8496 72.6284 55.8496 72.6284 55.8496C72.6284 55.8496 73.0499 55.8496 73.884 55.8496H77.5979L91.7776 55.797L143.114 55.5862H143.316V55.7794C143.316 82.1984 143.316 114.491 143.316 149.33V149.567H143.114H72.7426H72.5319V149.357C72.5319 121.612 72.6109 98.2044 72.6372 81.7506C72.6372 73.5413 72.6811 67.0617 72.6899 62.619C72.6899 60.4152 72.6899 58.7207 72.6899 57.5617C72.6899 56.9998 72.6899 56.5696 72.6899 56.2711C72.6899 55.9726 72.725 55.7794 72.725 55.7794Z" fill="#E0E0E0"/>
<path d="M63.0669 162.263C63.4102 161.55 63.825 160.873 64.3049 160.244C65.1214 159.032 66.2804 157.373 67.6062 155.582C68.9319 153.791 70.1875 152.201 71.1182 151.078C71.5872 150.435 72.1261 149.846 72.7249 149.322C72.342 150.014 71.8952 150.67 71.3903 151.28C70.4158 152.579 69.2656 154.133 67.9837 155.854C66.7018 157.575 65.5516 159.129 64.5771 160.428C64.1359 161.089 63.63 161.703 63.0669 162.263Z" fill="#E0E0E0"/>
<path d="M63.2773 42.8465C65.0404 44.8542 66.6822 46.9651 68.1941 49.1681C69.8346 51.2766 71.3475 53.4814 72.7246 55.7707C70.9645 53.7575 69.3228 51.6438 67.8078 49.4403C66.1677 47.3346 64.6548 45.1327 63.2773 42.8465Z" fill="#E0E0E0"/>
<path d="M143.114 56.2536C144.953 53.8656 146.913 51.5739 148.988 49.3876C150.949 47.0985 153.03 44.915 155.222 42.8465C153.383 45.2344 151.422 47.5261 149.348 49.7125C147.387 52.0016 145.306 54.185 143.114 56.2536Z" fill="#E0E0E0"/>
<path d="M155.204 162.263C153.107 160.296 151.123 158.211 149.26 156.021C147.273 153.943 145.405 151.753 143.667 149.462C145.763 151.433 147.751 153.517 149.62 155.705C151.597 157.789 153.462 159.979 155.204 162.263Z" fill="#E0E0E0"/>
<path d="M88.6777 122.42L90.4337 120.032C91.7859 118.196 93.2258 116.414 94.455 114.491C96.5007 111.287 96.3778 107.941 94.6569 104.631C93.6121 102.63 92.497 100.672 91.4434 98.6785C90.3511 96.6958 89.6672 94.5143 89.4319 92.2629C89.1967 90.0115 89.4149 87.7357 90.0738 85.57C90.2682 85.0048 90.4939 84.4508 90.7498 83.9106L90.1528 83.9633L91.0922 82.2073L90.943 82.0843L89.7401 83.2784L89.6611 83.2257L92.4531 79.4679L92.5761 79.5294C92.3214 79.9772 92.0668 80.4074 91.8034 80.8727C93.5429 78.9827 95.6294 77.4446 97.9494 76.3422C98.6424 75.8421 99.2655 75.2515 99.802 74.5862C99.9249 75.5432 100.302 75.5169 100.935 75.2096C103.288 74.0946 105.816 74.0331 108.362 74.0945C111.919 74.2408 115.451 74.7617 118.898 75.6486C120.734 76.0701 121.392 75.912 122.841 74.7179C123.47 75.7764 123.761 77.0017 123.675 78.2299L124.465 76.351L125.852 79.1343L126.897 78.388C127.035 79.4752 126.872 80.5796 126.424 81.58C125.977 82.5805 125.262 83.4384 124.36 84.0598C124.147 84.1459 123.977 84.3117 123.885 84.5217C123.793 84.7317 123.787 84.9692 123.868 85.1837C124.395 87.3699 124.834 89.5737 125.308 91.7863C125.431 92.2313 125.454 92.6979 125.377 93.153C125.3 93.6082 125.123 94.0408 124.86 94.4202C124.592 94.7678 124.45 95.1963 124.458 95.6352C124.466 96.0741 124.623 96.4972 124.904 96.8348C126.002 98.4151 127.029 100.039 128.1 101.646C128.978 103.025 128.855 103.569 127.327 104.28C126.844 104.5 126.089 104.57 125.931 104.921C125.773 105.272 126.168 105.913 126.318 106.423C126.528 107.125 126.405 107.397 125.527 108.179C125.656 108.395 125.768 108.621 125.861 108.855C126.019 109.39 126.098 109.908 125.51 110.286C125.259 110.433 125.073 110.669 124.987 110.946C124.901 111.224 124.921 111.524 125.044 111.787C125.167 112.156 125.29 112.533 125.378 112.911C125.542 113.399 125.575 113.922 125.475 114.427C125.376 114.932 125.146 115.403 124.81 115.793C124.473 116.182 124.041 116.478 123.556 116.65C123.07 116.822 122.549 116.865 122.042 116.774C120.453 116.704 118.872 116.458 117.283 116.3C115.097 116.072 115.694 115.879 114.912 117.67C114.35 118.952 114.166 120.348 113.358 121.577C113.061 122.327 113.045 123.16 113.314 123.921C114.026 126.617 114.895 129.277 115.65 131.972C116.12 133.667 116.503 135.384 116.8 137.117C109.521 128.285 99.6879 124.404 88.6777 122.42Z" fill="#EBEBEB"/>
<path d="M268.431 59.985C268.423 59.9179 268.423 59.8502 268.431 59.7831V59.2036C268.431 58.668 268.431 57.9305 268.431 56.9735C268.431 55.0243 268.387 52.2235 268.36 48.6852L268.492 48.8169L225.777 48.9047C225.874 48.8081 225.558 49.1242 225.988 48.6852V59.985L225.777 59.7743L256.218 59.8709L265.2 59.9324H267.632H268.264H268.492C268.425 59.9406 268.357 59.9406 268.29 59.9324H267.684H265.296L256.367 59.985L225.777 60.0816H225.558V48.7027L225.777 48.4832L268.492 48.571H268.624V48.7027C268.624 52.2762 268.571 55.1033 268.554 57.0701C268.554 58.0095 268.554 58.747 268.554 59.2651C268.554 59.4934 268.554 59.6777 268.554 59.827C268.518 59.8834 268.476 59.9363 268.431 59.985Z" fill="#E0E0E0"/>
<path d="M256.701 48.7466C256.695 48.6765 256.695 48.606 256.701 48.5359V47.9564C256.701 47.4296 256.701 46.6833 256.701 45.735C256.701 43.7859 256.657 40.9763 256.631 37.4467L256.762 37.5784L214.048 37.6574L214.258 37.4467V48.7466L214.039 48.5271L244.488 48.6324L253.47 48.6851H255.902H256.534H256.762H256.56H255.955H253.566L244.628 48.7466L214.039 48.8432H213.828V37.4643C214.258 37.0253 213.942 37.3414 214.048 37.2448L256.762 37.3326H256.894V37.4643C256.894 41.029 256.833 43.8649 256.815 45.8316C256.815 46.7711 256.815 47.4998 256.815 48.0266V48.5798C256.781 48.6379 256.743 48.6937 256.701 48.7466Z" fill="#E0E0E0"/>
<path d="M387.602 192.791C387.602 192.791 387.602 192.712 387.602 192.589V192.001C387.602 191.474 387.602 190.728 387.602 189.78C387.602 187.831 387.602 185.03 387.523 181.491L387.655 181.623L344.94 181.711C345.036 181.614 344.72 181.922 345.159 181.491V187.216C345.159 189.107 345.159 190.959 345.159 192.774L344.949 192.563L375.389 192.66L384.38 192.721H386.803H387.444C387.517 192.714 387.59 192.714 387.663 192.721H387.47H386.864H384.476L375.538 192.783L344.949 192.879H344.738V187.111C344.738 186.162 344.738 185.214 344.738 184.257V181.386L344.957 181.167L387.672 181.254H387.813V181.386C387.813 184.951 387.751 187.787 387.734 189.753C387.734 190.693 387.734 191.422 387.734 191.948V192.502C387.611 192.739 387.611 192.791 387.602 192.791Z" fill="#E0E0E0"/>
<path d="M393.397 181.492C393.397 181.492 393.397 181.412 393.397 181.272C393.397 181.132 393.397 180.912 393.397 180.675V178.41C393.397 176.425 393.344 173.633 393.309 170.192L393.467 170.35L367.803 170.402C367.61 170.604 368.066 170.139 368.022 170.192V173.115C368.022 174.09 368.022 175.047 368.022 175.995C368.022 177.883 368.022 179.718 368.022 181.474L367.82 181.263L386.179 181.36L391.526 181.421H392.966H393.484C393.329 181.434 393.174 181.434 393.019 181.421H391.623L386.355 181.474L367.855 181.571H367.645V181.36C367.645 179.604 367.645 177.769 367.645 175.881V170.078L367.864 169.858L393.528 169.919H393.686V170.078C393.686 173.59 393.625 176.39 393.598 178.392C393.598 179.332 393.598 180.078 393.598 180.622C393.553 180.917 393.485 181.207 393.397 181.492Z" fill="#E0E0E0"/>
<path d="M120.374 301.514H77.6593V312.814H120.374V301.514Z" fill="#E0E0E0"/>
<path d="M102.313 324.72C102.313 324.72 102.313 324.641 102.313 324.509V323.929C102.313 323.403 102.313 322.656 102.313 321.708C102.313 319.759 102.313 316.949 102.243 313.411L102.375 313.551L59.6602 313.63C59.7568 313.534 59.4407 313.85 59.8797 313.42V319.153C59.8797 321.041 59.8797 322.902 59.8797 324.72L59.669 324.5L90.1092 324.597L99.0912 324.658H101.523H102.164H102.384H102.191H101.576H99.1965L90.2585 324.72L59.669 324.816H59.4583V324.605C59.4583 322.788 59.4583 320.927 59.4583 319.039V313.446L59.6778 313.227L102.392 313.306H102.524V313.446C102.524 317.02 102.471 319.856 102.454 321.822C102.454 322.762 102.454 323.49 102.454 324.017C102.454 324.246 102.454 324.43 102.454 324.57C102.414 324.626 102.367 324.677 102.313 324.72Z" fill="#E0E0E0"/>
<path d="M283.383 331.743L295.658 416.787L239.624 416.593L235.55 380.525L231.072 416.787H183.476L186.32 331.392L283.383 331.743Z" fill="#263238"/>
<path d="M221.625 166.012C221.625 166.012 249.185 160.007 254.172 158.11C254.172 158.11 271.996 158.848 279.898 163.475C290.969 169.928 317.836 204.969 317.836 204.969L293.814 221.37H277.536L279.072 270.951L286.439 332.955L184.845 336.608L181.746 227.841L159.647 216.77L185.987 177.26L213.538 162.764L221.625 166.012Z" fill="#F1A636"/>
<path d="M267.422 261.328C267.362 261.507 267.279 261.679 267.176 261.837L266.394 263.268C266.061 263.892 265.63 264.638 265.077 265.472C264.524 266.306 263.936 267.29 263.172 268.299L262.004 269.897C261.592 270.45 261.126 270.995 260.652 271.574C259.774 272.751 258.65 273.901 257.526 275.13C252.514 280.395 246.656 284.784 240.195 288.116C238.693 288.853 237.28 289.582 235.901 290.126C235.216 290.407 234.558 290.715 233.917 290.952L232.047 291.628C230.87 292.075 229.764 292.365 228.798 292.655C227.833 292.945 227.042 293.155 226.314 293.305L224.724 293.656C224.544 293.705 224.358 293.734 224.171 293.744C224.341 293.662 224.521 293.603 224.707 293.568L226.27 293.129C226.955 292.962 227.78 292.734 228.728 292.409C229.676 292.084 230.774 291.795 231.942 291.32L233.785 290.627C234.426 290.381 235.067 290.065 235.752 289.749C237.113 289.187 238.518 288.449 240.002 287.712C243.18 286.013 246.231 284.089 249.133 281.952C252.01 279.773 254.724 277.387 257.254 274.814C258.378 273.594 259.476 272.461 260.398 271.302C260.872 270.731 261.346 270.205 261.758 269.66L262.944 268.08C263.725 267.096 264.331 266.131 264.893 265.305C265.455 264.48 265.92 263.751 266.28 263.145L267.158 261.767C267.232 261.613 267.32 261.466 267.422 261.328Z" fill="#263238"/>
<path d="M260.064 186.136C259.91 185.785 259.798 185.416 259.73 185.038C259.601 184.612 259.513 184.174 259.467 183.73C259.364 183.15 259.302 182.563 259.282 181.974C259.282 181.641 259.282 181.298 259.238 180.938C259.195 180.578 259.238 180.201 259.291 179.814C259.337 178.99 259.434 178.169 259.581 177.356C260.28 173.612 261.972 170.125 264.48 167.259C265.027 166.637 265.614 166.05 266.236 165.503C266.526 165.257 266.798 164.985 267.114 164.774L267.948 164.16C268.426 163.812 268.928 163.498 269.45 163.22C269.829 162.984 270.229 162.781 270.644 162.614C270.983 162.44 271.339 162.299 271.706 162.193C271.75 162.298 270.222 162.878 268.141 164.423L267.334 165.046C267.053 165.266 266.798 165.529 266.517 165.784C265.922 166.337 265.36 166.923 264.831 167.54C262.416 170.351 260.751 173.728 259.993 177.356C259.84 178.151 259.731 178.954 259.669 179.762C259.669 180.148 259.598 180.508 259.59 180.868C259.581 181.228 259.59 181.553 259.59 181.878C259.677 184.503 260.169 186.066 260.064 186.136Z" fill="#263238"/>
<path d="M265.077 196.005L264.796 195.82L264.024 195.258C262.996 194.586 261.89 194.04 260.731 193.634C258.893 193.01 256.954 192.736 255.015 192.826C252.443 192.934 249.949 193.738 247.798 195.153C247.199 195.562 246.629 196.014 246.095 196.505C245.524 196.979 245.05 197.585 244.506 198.138C243.496 199.403 242.613 200.765 241.872 202.203C240.291 205.171 239.115 208.586 237.684 212.107C236.969 213.92 236.127 215.681 235.164 217.375C234.678 218.262 234.139 219.118 233.548 219.939L232.556 221.124C232.231 221.537 231.81 221.853 231.45 222.23C228.394 225.154 224.048 226.62 219.685 227.024C215.404 227.422 211.087 227.125 206.901 226.146C202.977 225.274 199.347 223.398 196.365 220.703C193.547 218.069 191.852 214.75 190.219 211.791C188.868 208.971 187.191 206.319 185.223 203.889C183.606 201.885 181.44 200.396 178.989 199.604C177.128 199.044 175.143 199.044 173.282 199.604C172.109 199.962 171.046 200.611 170.192 201.492C169.967 201.719 169.765 201.966 169.586 202.23C169.454 202.405 169.384 202.493 169.375 202.484L169.542 202.203C169.709 201.927 169.904 201.669 170.122 201.431C170.961 200.501 172.034 199.813 173.23 199.438C175.118 198.821 177.146 198.775 179.06 199.306C181.566 200.097 183.789 201.598 185.46 203.626C187.459 206.052 189.169 208.704 190.553 211.528C192.168 214.478 193.863 217.726 196.611 220.308C199.562 222.933 203.144 224.749 207.006 225.576C211.144 226.542 215.409 226.839 219.641 226.454C223.943 226.041 228.175 224.627 231.143 221.783C231.526 221.45 231.887 221.092 232.222 220.712L233.197 219.561C233.788 218.762 234.333 217.929 234.83 217.068C235.79 215.373 236.63 213.613 237.341 211.8C238.772 208.288 239.975 204.872 241.573 201.87C242.338 200.415 243.244 199.039 244.277 197.761C244.79 197.18 245.332 196.626 245.902 196.101C246.456 195.607 247.043 195.149 247.658 194.731C249.861 193.307 252.411 192.509 255.033 192.422C257.003 192.346 258.969 192.644 260.828 193.3C261.993 193.743 263.096 194.333 264.111 195.056C264.454 195.311 264.7 195.522 264.867 195.662C264.947 195.77 265.018 195.884 265.077 196.005Z" fill="white"/>
<path d="M301.233 186.926C301.249 187.051 301.249 187.178 301.233 187.304C301.189 187.541 301.136 187.901 301.014 188.357C300.689 189.642 300.233 190.889 299.653 192.08C297.749 196.079 294.615 199.365 290.71 201.455C286.804 203.545 282.332 204.33 277.949 203.696C276.637 203.536 275.345 203.242 274.094 202.818C273.646 202.669 273.321 202.511 273.093 202.414C272.974 202.375 272.862 202.319 272.76 202.247C274.479 202.788 276.241 203.178 278.028 203.415C282.331 203.927 286.688 203.101 290.504 201.047C294.32 198.994 297.411 195.813 299.354 191.94C300.122 190.325 300.751 188.648 301.233 186.926Z" fill="white"/>
<path d="M274.998 242.995C273.814 242.419 272.56 242 271.267 241.748C269.744 241.494 268.189 241.494 266.666 241.748C264.651 242.114 262.701 242.777 260.88 243.715C258.664 244.833 256.584 246.203 254.682 247.798C252.627 249.554 250.59 251.556 248.386 253.628C246.117 255.856 243.632 257.853 240.967 259.589C239.535 260.49 237.999 261.216 236.393 261.749C234.729 262.277 233.001 262.573 231.257 262.627C227.837 262.685 224.439 262.071 221.256 260.819C218.299 259.659 215.427 258.295 212.66 256.736C210.026 255.287 207.515 253.847 205.092 252.697C202.857 251.604 200.538 250.694 198.156 249.975C194.723 248.858 191.068 248.605 187.515 249.238C186.962 249.341 186.417 249.479 185.881 249.65C185.481 249.756 185.09 249.897 184.714 250.072L184.003 250.353C183.923 250.393 183.837 250.42 183.748 250.432L183.985 250.309L184.679 249.984C185.049 249.794 185.437 249.641 185.838 249.528C186.371 249.327 186.92 249.172 187.479 249.062C191.062 248.361 194.763 248.569 198.244 249.668C200.656 250.366 203.005 251.265 205.268 252.355C207.717 253.496 210.22 254.927 212.88 256.367C215.636 257.903 218.493 259.25 221.432 260.397C224.566 261.652 227.916 262.281 231.292 262.25C232.995 262.186 234.681 261.891 236.305 261.372C237.878 260.85 239.381 260.139 240.783 259.256C243.432 257.551 245.9 255.58 248.149 253.373C250.362 251.319 252.408 249.29 254.488 247.561C256.423 245.958 258.538 244.587 260.792 243.478C262.645 242.544 264.628 241.896 266.675 241.555C268.221 241.292 269.8 241.292 271.346 241.555C271.909 241.653 272.461 241.803 272.997 242.003C273.396 242.126 273.784 242.285 274.156 242.477L274.832 242.837C274.928 242.943 275.007 242.986 274.998 242.995Z" fill="white"/>
<path d="M228.78 290.785C228.78 290.829 228.069 290.714 226.796 290.592C224.999 290.436 223.193 290.436 221.396 290.592C215.47 291.163 209.734 292.995 204.574 295.965C199.437 298.991 194.613 302.52 190.175 306.501L186.092 310.074L184.968 311.04C184.847 311.159 184.711 311.263 184.564 311.347C184.564 311.347 184.67 311.207 184.907 310.97L185.969 309.943C186.9 309.065 188.252 307.792 189.964 306.255C194.36 302.183 199.185 298.6 204.354 295.57C209.565 292.541 215.388 290.719 221.396 290.24C223.209 290.121 225.03 290.18 226.831 290.416C227.324 290.472 227.813 290.554 228.297 290.662C228.462 290.687 228.624 290.729 228.78 290.785Z" fill="white"/>
<path d="M282.891 302.383C282.891 302.383 282.198 302.462 280.977 302.682C279.258 303.039 277.563 303.505 275.903 304.078C274.849 304.42 273.681 304.807 272.391 305.158C271.75 305.342 271.082 305.474 270.389 305.606C269.683 305.764 268.967 305.876 268.246 305.939C265.038 306.295 261.793 306.102 258.65 305.368C255.507 304.646 252.498 303.428 249.738 301.76C247.481 300.403 245.414 298.753 243.592 296.852C242.385 295.558 241.303 294.153 240.361 292.655L239.659 291.399C239.566 291.261 239.492 291.11 239.439 290.952C239.552 291.076 239.652 291.211 239.738 291.356C239.94 291.672 240.194 292.076 240.51 292.558C242.95 296.179 246.177 299.202 249.949 301.4C252.679 303.013 255.64 304.197 258.729 304.912C261.822 305.639 265.015 305.843 268.176 305.518C268.887 305.454 269.594 305.349 270.292 305.202C270.968 305.079 271.635 304.956 272.259 304.78C273.523 304.447 274.691 304.078 275.771 303.762C277.451 303.209 279.171 302.787 280.916 302.497C281.39 302.427 281.868 302.383 282.347 302.366C282.528 302.347 282.712 302.353 282.891 302.383Z" fill="white"/>
<path d="M243.61 333.64C243.458 333.601 243.311 333.545 243.171 333.473L241.959 332.929C240.914 332.446 239.404 331.743 237.517 330.936C235.315 329.976 233.06 329.14 230.765 328.433C227.959 327.56 225.058 327.029 222.125 326.853C219.196 326.719 216.266 327.1 213.468 327.977C211.178 328.681 209.032 329.787 207.129 331.243C205.844 332.222 204.714 333.388 203.775 334.702C203.116 335.633 202.809 336.195 202.774 336.169C202.82 336.02 202.884 335.878 202.967 335.747C203.164 335.351 203.384 334.967 203.626 334.597C204.526 333.225 205.641 332.007 206.927 330.988C208.839 329.472 211.011 328.315 213.336 327.573C216.17 326.663 219.143 326.264 222.116 326.396C225.1 326.571 228.05 327.119 230.896 328.03C233.203 328.764 235.461 329.644 237.657 330.664C239.536 331.542 241.029 332.262 242.047 332.797L243.224 333.42C243.36 333.48 243.489 333.553 243.61 333.64Z" fill="white"/>
<path d="M253.83 110.4C254.093 110.294 264.208 107.634 263.602 117.872C262.996 128.109 252.864 125.378 252.864 125.089C252.864 124.799 253.83 110.4 253.83 110.4Z" fill="#FFBE9D"/>
<path d="M256.192 121.401C256.245 121.401 256.368 121.533 256.657 121.691C257.073 121.894 257.55 121.932 257.992 121.796C259.098 121.463 260.108 119.803 260.266 117.959C260.35 117.084 260.233 116.201 259.924 115.378C259.846 115.053 259.692 114.752 259.473 114.5C259.255 114.247 258.978 114.052 258.668 113.929C258.466 113.854 258.244 113.855 258.043 113.933C257.843 114.011 257.678 114.159 257.579 114.351C257.43 114.632 257.483 114.842 257.421 114.851C257.36 114.86 257.219 114.667 257.325 114.254C257.395 114.002 257.55 113.782 257.764 113.631C257.909 113.534 258.073 113.467 258.245 113.434C258.417 113.401 258.593 113.402 258.765 113.438C259.178 113.547 259.556 113.76 259.863 114.056C260.171 114.353 260.397 114.723 260.521 115.132C260.898 116.045 261.052 117.036 260.968 118.021C260.775 120.084 259.607 121.945 258.097 122.288C257.817 122.348 257.528 122.347 257.249 122.283C256.969 122.219 256.708 122.095 256.482 121.919C256.201 121.647 256.157 121.41 256.192 121.401Z" fill="#EB996E"/>
<path d="M228.28 73.8311C223.083 73.8311 217.744 73.8311 211.273 77.2289C207.173 79.3713 204.609 82.7691 202.493 86.8869C200.79 90.2252 199.959 93.9404 200.079 97.6863C200.263 101.198 200.281 103.709 201.694 106.958" fill="#263238"/>
<path d="M230.352 74.63C226.697 74.3731 223.028 74.8466 219.558 76.0229C216.088 77.1992 212.887 79.0547 210.141 81.4813C207.396 83.9078 205.161 86.8568 203.568 90.1561C201.974 93.4554 201.054 97.039 200.86 100.698C200.193 113.525 199.605 127.389 199.745 134.378C200.052 149.365 215.057 151.578 215.057 151.578C215.057 151.578 214.733 156.021 214.355 161.534C214.176 164.172 214.528 166.818 215.39 169.317C216.252 171.815 217.608 174.115 219.375 176.08C221.143 178.046 223.288 179.636 225.681 180.757C228.075 181.878 230.67 182.507 233.311 182.606C235.903 182.705 238.49 182.292 240.922 181.39C243.355 180.488 245.586 179.116 247.487 177.351C249.389 175.587 250.924 173.464 252.005 171.106C253.086 168.747 253.691 166.199 253.786 163.607L256.016 103.2C256.284 96.0381 253.756 89.0525 248.967 83.7206C244.177 78.3888 237.502 75.1288 230.352 74.63Z" fill="#FFBE9D"/>
<path d="M215.058 151.587C215.058 151.587 224.268 152.061 234.286 145.66C234.286 145.66 229.755 156.565 214.786 155.318L215.058 151.587Z" fill="#EB996E"/>
<path d="M206.602 111.102C206.604 111.659 206.822 112.194 207.21 112.593C207.598 112.993 208.126 113.226 208.683 113.244C208.956 113.263 209.23 113.228 209.488 113.14C209.747 113.052 209.986 112.913 210.19 112.731C210.395 112.55 210.561 112.329 210.679 112.083C210.797 111.836 210.865 111.568 210.878 111.295C210.878 110.738 210.661 110.202 210.272 109.802C209.884 109.402 209.355 109.169 208.797 109.153C208.524 109.133 208.25 109.167 207.991 109.255C207.731 109.343 207.492 109.482 207.288 109.663C207.083 109.845 206.917 110.066 206.799 110.313C206.681 110.56 206.614 110.829 206.602 111.102Z" fill="#263238"/>
<path d="M204.574 106.019C204.837 106.299 206.453 105.088 208.753 105.07C211.053 105.053 212.757 106.194 213.002 105.948C213.125 105.825 212.853 105.325 212.124 104.789C211.124 104.108 209.937 103.752 208.727 103.771C207.528 103.775 206.362 104.163 205.399 104.877C204.626 105.36 204.398 105.896 204.574 106.019Z" fill="#263238"/>
<path d="M229.158 110.777C229.158 111.335 229.375 111.871 229.764 112.271C230.152 112.671 230.681 112.904 231.239 112.92C231.512 112.939 231.785 112.903 232.044 112.815C232.303 112.727 232.542 112.588 232.746 112.406C232.95 112.225 233.117 112.004 233.235 111.758C233.353 111.511 233.42 111.243 233.434 110.97C233.434 110.413 233.217 109.877 232.828 109.477C232.44 109.077 231.91 108.844 231.353 108.828C231.08 108.808 230.806 108.843 230.546 108.93C230.287 109.018 230.048 109.157 229.843 109.339C229.639 109.52 229.473 109.741 229.355 109.988C229.237 110.236 229.17 110.504 229.158 110.777Z" fill="#263238"/>
<path d="M227.174 106.238C227.437 106.519 229.053 105.307 231.353 105.29C233.654 105.272 235.357 106.422 235.603 106.168C235.726 106.045 235.453 105.544 234.725 105.018C233.724 104.329 232.533 103.97 231.318 103.99C230.12 104.002 228.957 104.389 227.99 105.097C227.279 105.641 227.042 106.141 227.174 106.238Z" fill="#263238"/>
<path d="M218.947 123.421C218.947 123.289 217.525 123.052 215.207 122.771C214.618 122.718 214.056 122.604 213.951 122.209C213.898 121.599 214.03 120.987 214.329 120.453L216.041 115.958C218.403 109.557 220.106 104.298 219.851 104.21C219.597 104.122 217.463 109.223 215.101 115.624L213.468 120.137C213.104 120.852 213.005 121.673 213.187 122.455C213.268 122.666 213.398 122.856 213.566 123.009C213.733 123.161 213.935 123.272 214.153 123.333C214.48 123.418 214.816 123.463 215.154 123.464C217.489 123.552 218.938 123.552 218.947 123.421Z" fill="#263238"/>
<path d="M225.743 124.957C225.365 124.957 225.383 127.442 223.258 129.233C221.133 131.024 218.464 130.769 218.447 131.121C218.447 131.279 219.044 131.603 220.203 131.621C221.666 131.628 223.086 131.122 224.215 130.19C225.294 129.288 225.983 128.005 226.138 126.608C226.199 125.554 225.91 124.939 225.743 124.957Z" fill="#263238"/>
<path d="M226.524 97.2473C226.753 97.8707 229.053 97.5546 231.792 97.8619C234.532 98.1692 236.692 98.8804 237.06 98.3184C237.218 98.0463 236.832 97.4404 235.945 96.861C234.763 96.1299 233.431 95.6766 232.049 95.5351C230.666 95.3937 229.27 95.5678 227.964 96.0444C226.902 96.4571 226.41 96.9488 226.524 97.2473Z" fill="#263238"/>
<path d="M204.846 97.818C205.259 98.336 206.839 97.818 208.753 97.739C210.667 97.6599 212.265 98.0638 212.643 97.5195C212.801 97.2473 212.546 96.7293 211.835 96.2376C210.883 95.6498 209.777 95.3592 208.659 95.403C207.541 95.4468 206.461 95.823 205.557 96.4834C204.89 97.0278 204.671 97.5634 204.846 97.818Z" fill="#263238"/>
<path d="M256.183 107.933C256.183 107.933 255.84 111.146 255.665 112.709C255.603 113.28 255.024 119.821 253.478 120.137C252.153 120.409 249.519 119.206 248.342 116.581C247.166 113.956 244.935 107.643 245.173 104.781C245.643 100.878 245.554 96.9281 244.909 93.0505C244.242 89.1451 242.218 85.6005 239.193 83.0413C236.103 80.6268 231.651 79.7751 228.148 81.5399C225.979 82.6198 224.364 84.5514 222.345 85.886C220.56 87.1516 218.374 87.7229 216.199 87.4927C215.115 87.3558 214.091 86.9157 213.246 86.2229C212.401 85.5302 211.769 84.613 211.422 83.5769C210.773 81.2941 211.958 78.783 213.784 77.2728C215.7 75.8727 217.932 74.9651 220.281 74.63C226.765 73.2376 233.511 73.7094 239.738 75.9909C245.884 78.3791 251.336 82.9623 253.961 89.0117C256.99 96.0357 256.99 100.347 256.183 107.968" fill="#263238"/>
<path d="M211.229 82.7691C211.089 81.9965 211.343 81.5575 210.904 81.2414C210.465 80.9253 209.456 81.8297 209.148 82.2072C209.043 82.3301 208.683 81.856 208.551 81.7682C208.395 81.4594 208.306 81.1215 208.288 80.7761C208.349 80.2317 209.166 80.0825 209.605 79.7137C210.018 79.3558 210.499 79.0841 211.019 78.9147C211.231 78.8069 211.468 78.7575 211.705 78.7713C211.943 78.7852 212.172 78.862 212.371 78.9937C212.487 79.1325 212.574 79.2937 212.625 79.4675C212.677 79.6412 212.692 79.8237 212.669 80.0034C212.669 80.3671 212.601 80.7276 212.467 81.0658C212.325 81.3999 212.071 81.6735 211.747 81.8385" fill="#263238"/>
<path d="M320.927 219.974C318.951 214.513 316.923 209.166 315.869 206.339L303.621 214.697L245.182 183.405C243.628 182.009 232.468 171.991 230.361 170.095C227.727 167.672 223.583 164.669 223.583 164.669L206.848 175.468L209.166 178.401C209.061 180.912 209.359 179.779 211.335 181.333C212.213 182.027 213.433 185.943 214.39 187.207C215.34 188.394 216.401 189.488 217.56 190.473C220.721 193.245 224.715 194.886 228.912 195.135H228.868L279.055 241.169C283.403 245.172 288.695 248.006 294.437 249.405C299.907 250.739 306.431 251.591 310.399 249.633C310.746 249.46 311.081 249.263 311.4 249.045C316.019 245.97 319.469 241.431 321.197 236.159C322.925 230.886 322.83 225.186 320.927 219.974Z" fill="#FFBE9D"/>
<path d="M225.014 181.922L191.404 156.284C190.676 155.728 189.771 155.457 188.857 155.522C187.944 155.586 187.085 155.982 186.443 156.635L181.746 162.43L182.896 163.308L186.838 158.576C186.935 158.426 187.269 158.576 187.128 158.821L183.203 163.536L183.853 164.019L187.813 159.252C187.918 159.102 188.243 159.252 188.103 159.497L184.16 164.186L184.801 164.669L188.77 159.884C188.875 159.735 189.2 159.884 189.068 160.13L185.091 164.915L185.732 165.389L189.753 160.56C189.85 160.411 190.184 160.56 190.043 160.806L186.039 165.617L186.689 166.1L190.728 161.236C190.833 161.087 191.158 161.236 191.018 161.482L187.014 166.328L187.655 166.802L191.72 161.912C191.825 161.763 192.15 161.912 192.019 162.158L187.962 167.031L188.603 167.514L192.703 162.588C192.8 162.439 193.134 162.588 192.993 162.825L188.91 167.742L189.551 168.225L193.678 163.264C193.783 163.115 194.108 163.264 193.968 163.501L189.859 168.453L190.508 168.927L194.653 163.931C194.758 163.791 195.083 163.931 194.951 164.177L190.816 169.155L191.457 169.638L195.636 164.607C195.733 164.467 196.066 164.607 195.926 164.853L191.764 169.867L192.405 170.341L196.611 165.284C196.716 165.143 197.041 165.284 196.9 165.529L192.712 170.569L193.353 171.052L197.55 165.942C197.655 165.802 197.98 165.942 197.848 166.188L193.634 171.263L194.275 171.746L198.533 166.618C198.63 166.469 198.964 166.618 198.823 166.864L194.582 171.974L195.223 172.448L199.508 167.294C199.613 167.145 199.938 167.294 199.798 167.54L195.531 172.676L196.172 173.159L200.482 167.97C200.588 167.821 200.913 167.97 200.781 168.216L196.479 173.387L197.129 173.862L201.466 168.646C201.562 168.497 201.896 168.646 201.756 168.892L197.436 174.09L198.077 174.573L202.467 169.305C202.572 169.155 202.897 169.305 202.757 169.551L198.41 174.819L199.051 175.301L203.441 170.033C203.547 169.884 203.872 170.033 203.74 170.279L199.35 175.547L199.991 176.021L204.381 170.71C204.477 170.56 204.811 170.71 204.671 170.955L200.281 176.223L200.93 176.706L205.373 171.359C205.478 171.21 205.803 171.359 205.663 171.596L201.273 176.935L201.887 177.391L206.277 172.123C206.374 171.974 206.708 172.123 206.567 172.369L202.177 177.637L202.8 178.094L207.12 172.896C207.226 172.747 207.55 172.896 207.419 173.142L203.108 178.322L203.731 178.787L207.989 173.66C208.095 173.519 208.42 173.66 208.279 173.905L204.038 179.015L204.662 179.481L208.85 174.432C208.955 174.283 209.289 174.432 209.148 174.669L204.969 179.709L205.584 180.166L209.719 175.196C209.824 175.047 210.149 175.196 210.018 175.442L205.891 180.394L206.514 180.859L210.588 175.96C210.694 175.811 211.018 175.96 210.878 176.206L206.822 181.088L207.445 181.553L211.449 176.724C211.554 176.583 211.888 176.724 211.747 176.97L207.77 181.746L208.393 182.203L212.335 177.461C212.441 177.312 212.766 177.461 212.634 177.707L208.701 182.44L209.315 182.896L213.205 178.225C213.31 178.076 213.635 178.225 213.494 178.471L209.622 183.124L210.246 183.59L214.065 178.989C214.171 178.849 214.495 178.989 214.364 179.235L210.553 183.818L211.177 184.283L214.934 179.753C215.04 179.612 215.365 179.753 215.224 179.999L211.484 184.512L212.107 184.968L215.804 180.526C215.9 180.376 216.234 180.526 216.093 180.771L212.415 185.161L213.029 185.627L216.664 181.237C216.769 181.088 217.094 181.237 216.963 181.483L213.336 185.873L213.96 186.338L217.533 182.036C217.639 181.895 217.963 182.036 217.823 182.282L214.232 186.619L214.855 187.075L218.367 182.861C218.464 182.712 218.798 182.861 218.657 183.098L215.145 187.313L215.768 187.769L219.21 183.625C219.316 183.476 219.64 183.625 219.509 183.871L216.076 187.997L216.69 188.463L220.079 184.389C220.185 184.24 220.51 184.389 220.369 184.635L216.998 188.691L217.621 189.156L220.94 185.153C221.045 185.012 221.379 185.153 221.238 185.398L217.928 189.385L218.552 189.841L221.809 185.925C221.914 185.776 222.239 185.925 222.108 186.162L218.859 190.069L219.482 190.535L222.678 186.689C222.784 186.54 223.109 186.689 222.968 186.935L219.79 190.763L221.282 191.878L225.426 187.488C225.79 187.108 226.07 186.655 226.248 186.16C226.425 185.665 226.497 185.138 226.458 184.613C226.419 184.088 226.271 183.578 226.022 183.114C225.773 182.65 225.43 182.244 225.014 181.922Z" fill="#263238"/>
<path d="M218.245 171.412C216.624 172.953 215.377 174.846 214.601 176.943C213.945 179.466 214.108 182.132 215.066 184.556C215.514 185.837 216.225 187.19 217.525 187.602C218.113 187.74 218.729 187.694 219.29 187.469C219.851 187.244 220.329 186.853 220.659 186.347C221.307 185.298 221.53 184.042 221.282 182.835C221.048 181.654 220.661 180.509 220.132 179.428C221.575 178.025 222.777 176.394 223.688 174.599" fill="#FFBE9D"/>
<path d="M223.688 174.634C223.656 174.772 223.605 174.905 223.539 175.029C223.416 175.275 223.231 175.644 222.968 176.092C222.221 177.376 221.309 178.557 220.255 179.604V179.419C220.635 180.174 220.969 180.951 221.256 181.746C221.562 182.667 221.666 183.643 221.563 184.608C221.511 185.151 221.346 185.677 221.079 186.152C220.811 186.626 220.447 187.04 220.009 187.365C219.535 187.704 218.975 187.905 218.394 187.945C217.783 187.985 217.178 187.811 216.682 187.453C215.74 186.637 215.077 185.548 214.785 184.336C214.429 183.271 214.194 182.17 214.083 181.052C213.847 179.144 214.186 177.209 215.057 175.495C215.661 174.373 216.408 173.334 217.279 172.404C217.579 172.049 217.914 171.726 218.28 171.438C218.009 171.818 217.716 172.182 217.402 172.527C216.587 173.478 215.891 174.525 215.329 175.644C214.521 177.309 214.216 179.173 214.451 181.009C214.578 182.093 214.82 183.162 215.171 184.196C215.446 185.313 216.06 186.319 216.927 187.075C217.344 187.36 217.84 187.505 218.345 187.491C218.849 187.477 219.337 187.304 219.737 186.996C220.123 186.705 220.445 186.337 220.682 185.916C220.919 185.494 221.067 185.028 221.115 184.547C221.37 182.642 220.562 180.956 220 179.551L219.948 179.446L220.036 179.367C221.089 178.36 222.026 177.238 222.828 176.021C223.381 175.126 223.653 174.617 223.688 174.634Z" fill="#EB996E"/>
<path d="M223.293 174.573C224.549 176.404 225.965 178.12 227.525 179.7C226.208 180.034 224.408 183.844 224.434 185.205C224.496 188.261 225.576 191.606 229.702 191.878" fill="#FFBE9D"/>
<path d="M229.685 191.878C229.394 191.93 229.097 191.93 228.807 191.878C227.979 191.769 227.193 191.448 226.524 190.947C225.555 190.151 224.874 189.059 224.584 187.839C224.397 187.139 224.286 186.421 224.25 185.697C224.21 185.304 224.231 184.907 224.311 184.521C224.407 184.134 224.524 183.753 224.663 183.379C224.961 182.604 225.335 181.86 225.778 181.158C225.991 180.825 226.232 180.511 226.498 180.218C226.759 179.903 227.102 179.666 227.49 179.533L227.393 179.876C226.267 178.725 225.231 177.489 224.294 176.18C223.908 175.695 223.578 175.167 223.311 174.608C223.739 175.053 224.136 175.528 224.496 176.03C225.494 177.271 226.558 178.458 227.683 179.586L227.92 179.814L227.595 179.929C226.983 180.271 226.483 180.784 226.155 181.404C225.735 182.083 225.379 182.8 225.093 183.546C224.959 183.896 224.848 184.253 224.759 184.617C224.681 184.966 224.661 185.324 224.698 185.679C224.728 186.372 224.825 187.06 224.988 187.734C225.245 188.881 225.86 189.917 226.744 190.693C227.362 191.187 228.086 191.533 228.86 191.703C229.139 191.738 229.415 191.797 229.685 191.878Z" fill="#EB996E"/>
<path d="M223.706 164.73C223.706 164.73 215.962 164.555 213.442 164.371C210.922 164.186 210.369 164.669 210.369 164.669C210.369 164.669 206.515 162.773 204.89 162.588C203.573 162.439 197.647 168.629 195.513 170.903C195.4 171.025 195.319 171.174 195.276 171.335C195.233 171.496 195.231 171.665 195.268 171.827C195.305 171.99 195.381 172.141 195.49 172.267C195.598 172.394 195.736 172.492 195.891 172.553C197.831 173.361 200.491 172.29 200.491 172.29L198.946 174.924C201.844 181.29 206.673 172.817 206.673 172.817L214.188 170.016L222.398 170.999L223.706 164.73Z" fill="#FFBE9D"/>
<path d="M243.9 182.721L243.654 182.527L242.952 181.913L240.318 179.533L231.134 170.999L223.521 164.853L223.653 164.897L216.287 164.669C215.233 164.669 214.188 164.581 213.179 164.581C212.169 164.581 211.142 164.634 210.158 164.73C209.201 164.796 208.261 165.019 207.375 165.389C206.549 165.804 205.819 166.387 205.233 167.101C202.874 169.452 200.81 172.082 199.087 174.933V174.81C199.285 175.659 199.808 176.397 200.544 176.864C200.896 177.018 201.278 177.09 201.662 177.073C202.045 177.056 202.42 176.952 202.757 176.768C203.89 176.155 204.86 175.279 205.584 174.213C206.07 173.544 206.51 172.843 206.901 172.114C207.173 171.623 207.305 171.351 207.314 171.359C207.322 171.368 207.314 171.43 207.252 171.57C207.191 171.71 207.112 171.904 206.989 172.167C206.63 172.917 206.216 173.639 205.751 174.327C205.028 175.446 204.042 176.372 202.88 177.022C202.502 177.232 202.082 177.352 201.652 177.373C201.221 177.394 200.791 177.316 200.395 177.145C199.985 176.898 199.629 176.572 199.345 176.186C199.062 175.8 198.858 175.362 198.744 174.898V174.836V174.766C200.451 171.864 202.516 169.189 204.89 166.802C205.536 166.071 206.325 165.479 207.208 165.064C208.135 164.66 209.124 164.42 210.132 164.353C211.147 164.25 212.167 164.2 213.187 164.204C214.232 164.204 215.268 164.265 216.322 164.283L223.688 164.528H223.758H223.82L231.397 170.674L240.467 179.332L242.995 181.79L243.645 182.448C243.827 182.618 243.912 182.709 243.9 182.721Z" fill="#EB996E"/>
<path d="M219.614 170.095C215.307 173.444 212.189 178.089 210.72 183.344C210.582 183.93 210.247 184.45 209.772 184.819C208.332 185.864 206.971 184.564 206.049 183.423V182.791C206.049 182.536 206.725 177.426 206.971 175.547C207.029 175.096 207.202 174.667 207.472 174.301C208.446 172.948 211.177 169.033 211.941 168.708L215.953 167.47" fill="#FFBE9D"/>
<path d="M215.918 167.47C215.588 167.631 215.244 167.763 214.891 167.865L211.949 168.831C211.574 169.12 211.24 169.46 210.957 169.84C210.623 170.253 210.281 170.718 209.921 171.166C209.219 172.114 208.464 173.186 207.647 174.327C207.447 174.589 207.298 174.887 207.208 175.205C207.134 175.556 207.082 175.91 207.05 176.267C206.953 177.005 206.866 177.769 206.769 178.541C206.672 179.314 206.567 180.122 206.471 180.929L206.312 182.159L206.233 182.782V183.414L206.181 183.274C206.365 183.484 206.558 183.722 206.769 183.932C207.219 184.466 207.839 184.829 208.525 184.959C208.846 184.973 209.165 184.899 209.447 184.744C209.729 184.589 209.963 184.36 210.123 184.081C210.298 183.81 210.431 183.514 210.518 183.203C210.615 182.87 210.72 182.536 210.817 182.211C211.036 181.562 211.273 180.938 211.519 180.341C212.418 178.217 213.599 176.223 215.031 174.415C215.999 173.204 217.081 172.09 218.262 171.087C218.683 170.727 219.026 170.472 219.254 170.306C219.37 170.212 219.497 170.132 219.632 170.069C219.632 170.069 219.175 170.472 218.385 171.219C217.261 172.265 216.224 173.401 215.286 174.617C213.912 176.426 212.773 178.403 211.897 180.499C211.659 181.096 211.431 181.711 211.22 182.343L210.931 183.318C210.842 183.679 210.694 184.023 210.492 184.336C210.281 184.675 209.983 184.951 209.63 185.137C209.276 185.322 208.88 185.409 208.481 185.39C207.696 185.255 206.984 184.848 206.471 184.24C206.242 184.002 206.04 183.765 205.856 183.537L205.803 183.476V182.756L205.882 182.132L206.04 180.894C206.146 180.078 206.251 179.27 206.356 178.489C206.462 177.707 206.558 176.943 206.655 176.197C206.692 175.822 206.754 175.449 206.839 175.082C206.941 174.712 207.114 174.366 207.349 174.064C208.174 172.931 208.946 171.877 209.675 170.938C210.044 170.464 210.395 170.06 210.746 169.621C211.061 169.208 211.44 168.849 211.87 168.558L214.847 167.68C215.197 167.581 215.556 167.51 215.918 167.47Z" fill="#EB996E"/>
<path d="M318.986 223.539C318.533 223.355 318.096 223.134 317.678 222.88L314.166 220.966L302.673 214.627L291.162 208.323L287.65 206.4C287.216 206.176 286.796 205.924 286.395 205.645C286.856 205.806 287.302 206.006 287.729 206.242C288.607 206.655 289.793 207.261 291.285 207.998C294.27 209.543 298.371 211.721 302.875 214.188C307.379 216.655 311.4 218.956 314.289 220.65C315.737 221.528 316.923 222.204 317.704 222.696C318.158 222.935 318.587 223.217 318.986 223.539Z" fill="#EB996E"/>
<path d="M201.062 186.786C203.345 187.058 204.232 184.108 201.826 182.668C199.192 181.096 186.742 178.901 186.742 178.901L188.7 177.962C188.7 177.962 197.778 180.692 200.202 178.269C202.625 175.846 187.286 172.123 185.829 171.649C184.371 171.175 167.136 177.154 165.196 178.603C163.255 180.051 155.037 193.95 155.037 193.95L126.344 236.331C124.392 239.115 123.134 242.326 122.675 245.696C122.217 249.065 122.572 252.496 123.71 255.7C124.041 256.729 124.514 257.707 125.115 258.606C126.495 260.483 128.411 261.897 130.611 262.662L130.541 262.777C130.541 262.777 145.81 270.09 161.587 255.226C177.365 240.361 181.746 227.841 181.746 227.841L166.109 219.983L171.236 208.569L171.895 207.12C171.895 207.12 180.57 200.228 182.203 196.742C183.836 193.257 185.583 192.818 185.583 192.818C187.427 193.257 193.968 196.505 195.346 196.83C197.357 197.313 198.507 195.302 197.102 193.941C196.224 193.116 186.988 189.367 186.988 189.367C186.988 189.367 198.7 192.598 200.035 192.712C202.318 192.905 202.186 189.692 200.395 188.594C199.069 187.778 186.645 185.082 187.295 184.652C187.945 184.222 198.806 186.505 201.062 186.786Z" fill="#FFBE9D"/>
<path d="M172.088 206.55C172.202 206.602 167.61 216.664 161.833 229.018C156.056 241.371 151.297 251.354 151.156 251.301C151.016 251.248 155.634 241.187 161.42 228.824C167.206 216.462 171.965 206.488 172.088 206.55Z" fill="#EB996E"/>
<path d="M390.157 346.468C391.122 343.131 393.186 339.909 396.373 338.566C399.692 337.143 403.537 337.951 406.909 339.189C410.28 340.427 413.643 342.069 417.243 342.297C420.843 342.525 424.917 340.804 426.023 337.363C427.041 334.123 425.083 330.664 422.643 328.311C420.059 325.823 416.891 324.025 413.43 323.084C409.969 322.143 406.326 322.088 402.839 322.925C399.351 323.763 396.13 325.464 393.473 327.874C390.817 330.284 388.809 333.323 387.637 336.713" fill="#27A64A"/>
<g opacity="0.5">
<path d="M390.157 346.468C391.122 343.131 393.186 339.909 396.373 338.566C399.692 337.143 403.537 337.951 406.909 339.189C410.28 340.427 413.643 342.069 417.243 342.297C420.843 342.525 424.917 340.804 426.023 337.363C427.041 334.123 425.083 330.664 422.643 328.311C420.059 325.823 416.891 324.025 413.43 323.084C409.969 322.143 406.326 322.088 402.839 322.925C399.351 323.763 396.13 325.464 393.473 327.874C390.817 330.284 388.809 333.323 387.637 336.713" fill="black"/>
</g>
<path d="M361.595 360.955C356.327 355.932 356.573 347.179 359.216 340.383C361.859 333.587 367.61 328.372 374.028 324.913C380.306 321.614 387.249 319.781 394.337 319.551C401.425 319.322 408.473 320.701 414.951 323.587C411.78 323.725 408.69 324.637 405.952 326.244C403.214 327.851 400.911 330.104 399.244 332.806C396.347 337.626 395.732 343.465 393.309 348.548C390.608 354.28 385.814 358.76 379.913 361.068C374.011 363.375 367.45 363.334 361.578 360.955" fill="#27A64A"/>
<path d="M359.102 330.76C353.246 323.85 352.465 312.752 353.325 303.735C354.185 294.718 356.284 285.64 354.862 276.693C353.984 271.425 351.955 266.333 351.262 261.012C350.568 255.691 351.551 249.668 355.652 246.235C360.393 242.284 367.856 243.215 372.781 246.929C377.707 250.643 380.569 256.455 382.659 262.259C387.242 275.016 388.928 289.161 385.161 302.173C381.395 315.184 372.553 326.836 359.585 330.76" fill="#27A64A"/>
<path d="M356.249 387.479C356.226 387.213 356.226 386.946 356.249 386.68C356.249 386.162 356.249 385.389 356.249 384.397C356.328 382.413 356.512 379.551 356.96 376.03C357.48 371.894 358.231 367.79 359.207 363.738C360.422 358.777 362.304 354.004 364.8 349.549C367.309 345.097 370.384 340.989 373.949 337.328C376.846 334.334 380.058 331.661 383.528 329.355C384.994 328.346 386.408 327.599 387.628 326.862C388.849 326.124 389.964 325.668 390.859 325.238L392.967 324.36C393.207 324.247 393.457 324.156 393.713 324.087C393.485 324.225 393.247 324.345 393.002 324.447L390.938 325.422C390.06 325.87 388.989 326.432 387.76 327.108C386.531 327.784 385.126 328.627 383.721 329.645C376.096 334.86 369.775 341.761 365.248 349.813C359.857 359.225 358.382 369.129 357.346 376.074C356.854 379.586 356.617 382.431 356.468 384.406C356.407 385.363 356.363 386.162 356.328 386.689C356.32 386.954 356.294 387.218 356.249 387.479Z" fill="#263238"/>
<path d="M305.737 303.498C294.903 310.031 294.938 315.983 296.747 321.603C298.555 327.222 305.202 331.12 310.716 329.013C313.833 327.828 316.089 325.115 318.021 322.393C319.952 319.671 321.761 316.756 324.456 314.807C327.152 312.858 331.076 312.103 333.798 314.043" fill="#27A64A"/>
<g opacity="0.5">
<path d="M305.737 303.498C294.903 310.031 294.938 315.983 296.747 321.603C298.555 327.222 305.202 331.12 310.716 329.013C313.833 327.828 316.089 325.115 318.021 322.393C319.952 319.671 321.761 316.756 324.456 314.807C327.152 312.858 331.076 312.103 333.798 314.043" fill="black"/>
</g>
<path d="M297.642 310.663C300.478 306.747 307.476 305.614 311.892 307.563C316.308 309.513 319.548 313.393 322.428 317.265C325.308 321.137 328.144 325.167 332.156 327.898C336.169 330.629 341.814 331.568 345.783 328.855C347.056 327.903 348.123 326.703 348.918 325.326C349.713 323.95 350.221 322.426 350.41 320.848C350.763 317.686 350.546 314.486 349.769 311.4C348.812 306.852 347.258 302.111 343.623 299.222C339.575 296 333.965 295.851 328.776 296.018C322.841 296.211 316.818 296.659 311.216 298.713C305.614 300.768 299.96 305.219 297.598 310.663" fill="#27A64A"/>
<path d="M347.24 378.804C347.229 378.726 347.229 378.646 347.24 378.567V377.865C347.24 377.215 347.179 376.311 347.143 375.178C347.073 372.799 346.977 369.436 346.862 365.283C346.748 361.13 346.555 356.143 346.257 350.629C345.958 345.116 345.537 339.057 344.703 332.753C344.362 329.685 343.775 326.649 342.947 323.675C342.077 320.946 340.963 318.302 339.619 315.773C338.414 313.465 337.013 311.265 335.431 309.197C334.043 307.403 332.513 305.724 330.857 304.174C328.437 301.948 325.708 300.084 322.753 298.643C322.217 298.406 321.76 298.169 321.348 298.002L320.285 297.589L319.636 297.326C319.495 297.265 319.416 297.229 319.425 297.221C319.504 297.228 319.581 297.248 319.653 297.282L320.321 297.493L321.4 297.862C321.822 298.02 322.278 298.248 322.832 298.476C325.846 299.861 328.632 301.697 331.094 303.92C332.778 305.468 334.335 307.15 335.747 308.951C337.358 311.027 338.786 313.239 340.014 315.562C341.389 318.123 342.52 320.806 343.394 323.578C344.251 326.573 344.862 329.633 345.221 332.727C346.055 339.066 346.45 345.133 346.74 350.647C347.029 356.161 347.152 361.183 347.24 365.318C347.328 369.454 347.354 372.878 347.363 375.213C347.363 376.355 347.363 377.259 347.363 377.909C347.363 378.19 347.363 378.418 347.363 378.611C347.333 378.682 347.291 378.747 347.24 378.804Z" fill="#263238"/>
<path d="M351.139 383.686C350.626 382.167 350.229 380.612 349.954 379.033C349.203 374.717 349.035 370.32 349.453 365.959C350.117 359.503 351.504 353.141 353.589 346.994C355.81 340.023 358.857 332.569 361.403 324.553C362.677 320.662 363.718 316.698 364.52 312.682C365.234 308.937 365.747 305.156 366.056 301.356C366.547 294.912 366.661 288.445 366.399 281.987C366.214 276.465 365.916 272.004 365.731 268.923C365.643 267.404 365.573 266.21 365.529 265.367C365.529 264.98 365.529 264.682 365.485 264.445C365.474 264.34 365.474 264.234 365.485 264.129C365.513 264.232 365.528 264.338 365.529 264.445C365.529 264.673 365.582 264.98 365.626 265.367C365.696 266.201 365.793 267.395 365.924 268.879C366.161 271.961 366.513 276.421 366.741 281.943C367.054 288.416 366.971 294.902 366.495 301.365C365.92 309.296 364.366 317.126 361.868 324.676C359.278 332.709 356.249 340.155 354.01 347.1C351.923 353.214 350.51 359.538 349.796 365.959C349.353 370.293 349.468 374.666 350.138 378.971C350.401 380.49 350.647 381.658 350.858 382.483C350.954 382.852 351.025 383.15 351.077 383.361C351.113 383.466 351.134 383.575 351.139 383.686Z" fill="#263238"/>
<path d="M377.997 388.594H327.126L325.967 378.804H377.997V388.594Z" fill="#455A64"/>
<path d="M332.586 387.479L338.943 416.857H366.591L372.544 387.479H332.586Z" fill="#455A64"/>
<path d="M377.997 388.594C377.997 388.726 366.811 388.805 353.018 388.77C339.224 388.735 328.038 388.585 328.038 388.454C328.038 388.322 339.224 388.243 353.018 388.287C366.811 388.331 377.997 388.462 377.997 388.594Z" fill="#455A64"/>
<path d="M369.269 403.099C367.89 402.057 366.386 401.193 364.791 400.526C363.052 399.845 361.207 399.473 359.339 399.429C357.051 399.441 354.783 399.857 352.64 400.658C350.322 401.448 348.153 402.361 346.046 402.862C344.173 403.266 342.241 403.323 340.348 403.028C339.071 402.849 337.834 402.457 336.687 401.869C336.38 401.708 336.086 401.523 335.809 401.316C335.615 401.167 335.519 401.088 335.528 401.07C335.536 401.053 335.967 401.325 336.774 401.703C337.927 402.211 339.149 402.545 340.401 402.695C342.252 402.928 344.13 402.835 345.95 402.423C347.986 401.913 350.146 400.991 352.491 400.201C354.683 399.38 357.007 398.969 359.348 398.99C361.263 399.048 363.15 399.462 364.914 400.21C366.103 400.7 367.22 401.35 368.233 402.142C368.512 402.352 368.776 402.58 369.023 402.826C369.199 403.002 369.278 403.081 369.269 403.099Z" fill="#263238"/>
<path d="M368.883 405.057C367.548 404.053 366.105 403.202 364.581 402.519C362.906 401.838 361.12 401.472 359.313 401.439C357.101 401.446 354.908 401.842 352.833 402.607C350.585 403.353 348.487 404.223 346.476 404.767C344.698 405.277 342.846 405.485 340.998 405.381C339.748 405.303 338.527 404.974 337.407 404.416C337.099 404.263 336.805 404.084 336.529 403.88C336.347 403.74 336.259 403.661 336.265 403.643C336.265 403.643 336.687 403.889 337.468 404.249C338.58 404.726 339.771 404.994 340.98 405.039C342.783 405.095 344.583 404.857 346.31 404.337C348.276 403.783 350.366 402.905 352.631 402.142C354.76 401.365 357.011 400.975 359.278 400.991C362.393 401.082 365.394 402.182 367.829 404.126C368.095 404.332 368.348 404.554 368.584 404.793C368.813 404.951 368.892 405.048 368.883 405.057Z" fill="white"/>
<path d="M369.77 401.15C368.345 400.073 366.801 399.162 365.169 398.436C363.397 397.675 361.509 397.221 359.585 397.093C357.224 397.047 354.877 397.461 352.675 398.314C350.444 399.183 348.167 399.927 345.853 400.544C343.903 400.874 341.911 400.874 339.962 400.544C338.651 400.333 337.379 399.93 336.186 399.35C335.881 399.179 335.588 398.988 335.308 398.779C335.203 398.711 335.109 398.628 335.027 398.533C335.027 398.489 335.475 398.796 336.309 399.174C337.507 399.683 338.768 400.028 340.058 400.201C341.968 400.479 343.911 400.444 345.809 400.096C348.097 399.461 350.351 398.708 352.561 397.839C354.822 396.969 357.234 396.56 359.655 396.637C362.963 396.901 366.123 398.121 368.751 400.149C369.036 400.364 369.306 400.599 369.559 400.851C369.699 401.035 369.787 401.132 369.77 401.15Z" fill="white"/>
<path d="M378.418 388.638C378.418 388.77 367.004 388.884 352.859 388.884C338.715 388.884 327.301 388.77 327.301 388.638C327.301 388.506 338.715 388.392 352.859 388.392C367.004 388.392 378.418 388.506 378.418 388.638Z" fill="#263238"/>
<path d="M164.335 219.421C164.92 212.005 168.275 205.08 173.734 200.025C179.192 194.971 186.353 192.156 193.792 192.142H195.32C211.853 193.072 220.299 207.629 218.903 224.127L216.058 290.276C216.029 290.824 215.85 291.354 215.54 291.807C215.23 292.261 214.802 292.621 214.302 292.848L177.207 310.259L178.357 275.543C178.357 275.543 162.456 273.111 162.228 257.219C162.158 249.545 163.212 233.732 164.335 219.421Z" fill="#B78876"/>
<path d="M178.234 275.525C185.612 275.51 192.832 273.377 199.034 269.379C199.034 269.379 194.161 280.793 178.304 279.423L178.234 275.525Z" fill="#EB996E"/>
<path d="M168.857 229.694C168.852 230.286 169.079 230.857 169.489 231.285C169.899 231.713 170.46 231.965 171.052 231.985C171.341 232.005 171.63 231.968 171.905 231.875C172.179 231.783 172.432 231.637 172.649 231.446C172.866 231.255 173.043 231.022 173.17 230.762C173.297 230.502 173.371 230.219 173.387 229.931C173.39 229.339 173.162 228.77 172.753 228.344C172.343 227.918 171.783 227.668 171.192 227.648C170.904 227.625 170.614 227.66 170.339 227.752C170.065 227.843 169.811 227.988 169.594 228.178C169.376 228.369 169.199 228.601 169.072 228.862C168.946 229.122 168.873 229.405 168.857 229.694Z" fill="#263238"/>
<path d="M167.619 226.375C167.9 226.673 169.612 225.4 172.053 225.4C174.494 225.4 176.285 226.621 176.557 226.278C176.68 226.138 176.399 225.611 175.618 225.04C174.556 224.312 173.296 223.929 172.009 223.943C170.746 223.942 169.515 224.345 168.497 225.093C167.698 225.707 167.478 226.243 167.619 226.375Z" fill="#263238"/>
<path d="M191.492 229.694C191.489 230.286 191.717 230.856 192.126 231.283C192.536 231.711 193.095 231.962 193.687 231.985C193.976 232.007 194.266 231.97 194.541 231.878C194.815 231.786 195.069 231.64 195.286 231.449C195.504 231.257 195.681 231.024 195.807 230.764C195.934 230.503 196.007 230.22 196.022 229.931C196.027 229.34 195.802 228.771 195.393 228.345C194.985 227.919 194.426 227.668 193.836 227.648C193.547 227.624 193.256 227.658 192.98 227.749C192.705 227.839 192.45 227.984 192.232 228.175C192.013 228.366 191.835 228.599 191.708 228.859C191.581 229.12 191.507 229.404 191.492 229.694Z" fill="#263238"/>
<path d="M191.764 226.375C192.045 226.673 193.766 225.4 196.207 225.4C198.647 225.4 200.438 226.621 200.702 226.278C200.834 226.138 200.544 225.611 199.762 225.04C198.704 224.312 197.447 223.929 196.163 223.943C194.899 223.941 193.668 224.344 192.651 225.093C191.878 225.707 191.623 226.243 191.764 226.375Z" fill="#263238"/>
<path d="M182.94 245.717C182.94 245.585 181.439 245.322 178.98 245.015C178.348 244.953 177.76 244.83 177.655 244.4C177.601 243.758 177.745 243.114 178.067 242.556C178.656 241.046 179.261 239.466 179.902 237.806C182.449 231.037 184.292 225.514 184.02 225.374C183.748 225.233 181.456 230.642 178.91 237.446C178.296 239.114 177.716 240.704 177.154 242.223C176.765 242.977 176.653 243.844 176.838 244.672C176.932 244.887 177.073 245.077 177.251 245.229C177.429 245.382 177.639 245.491 177.865 245.55C178.211 245.646 178.569 245.696 178.928 245.699C181.395 245.84 182.931 245.84 182.94 245.717Z" fill="#263238"/>
<path d="M191.114 218.034C191.36 218.692 193.792 218.376 196.663 218.71C199.534 219.043 201.843 219.834 202.221 219.237C202.388 218.947 201.984 218.359 201.053 217.683C199.801 216.905 198.389 216.421 196.922 216.269C195.456 216.117 193.974 216.3 192.589 216.805C191.536 217.191 191.009 217.744 191.114 218.034Z" fill="#263238"/>
<path d="M168.646 220.123C169.076 220.677 170.762 220.123 172.782 220.071C174.801 220.018 176.522 220.431 176.908 219.851C177.084 219.57 176.812 218.973 176.03 218.49C175.024 217.862 173.854 217.547 172.669 217.586C171.484 217.625 170.337 218.016 169.375 218.71C168.69 219.281 168.462 219.851 168.646 220.123Z" fill="#263238"/>
<path d="M216.269 235.892C216.541 235.778 227.183 232.644 226.858 243.505C226.533 254.365 215.69 251.802 215.681 251.494C215.672 251.187 216.269 235.892 216.269 235.892Z" fill="#B78876"/>
<path d="M218.429 247.473C218.473 247.473 218.613 247.614 218.929 247.772C219.374 247.975 219.88 248 220.343 247.842C221.502 247.456 222.52 245.664 222.634 243.706C222.687 242.774 222.534 241.842 222.187 240.976C222.093 240.635 221.92 240.321 221.68 240.061C221.44 239.801 221.141 239.603 220.808 239.483C220.593 239.419 220.362 239.433 220.155 239.521C219.948 239.609 219.779 239.767 219.675 239.966C219.517 240.274 219.579 240.484 219.526 240.502C219.474 240.519 219.298 240.317 219.395 239.87C219.464 239.603 219.622 239.368 219.842 239.202C220.149 238.989 220.526 238.901 220.896 238.957C221.341 239.06 221.752 239.276 222.09 239.583C222.428 239.891 222.682 240.279 222.827 240.713C223.259 241.667 223.452 242.713 223.389 243.759C223.258 245.945 222.072 247.956 220.492 248.36C220.193 248.444 219.879 248.458 219.575 248.4C219.27 248.342 218.983 248.214 218.736 248.026C218.438 247.736 218.394 247.491 218.429 247.473Z" fill="#AA6550"/>
<path d="M209.412 203.608L164.116 204.574C165.66 201.494 167.947 198.847 170.771 196.874C176.662 192.319 183.839 189.735 191.281 189.49C198.665 189.367 213.705 198.358 219.052 203.459C223.337 207.533 223.311 211.054 223.311 211.054C223.987 216.928 220.677 223.609 219.395 229.369C218.719 232.345 217.419 241.345 217.419 241.345C214.926 241.345 213.995 239.343 214.373 236.884L214.847 227.226C214.847 227.226 206.357 221.195 210.378 210.158C211.028 209.289 212.397 205.25 209.412 203.608Z" fill="#455A64"/>
<path d="M199.894 237.938C199.931 237.944 199.969 237.943 200.005 237.934C200.042 237.926 200.076 237.91 200.107 237.888C200.137 237.866 200.162 237.838 200.182 237.806C200.201 237.774 200.214 237.738 200.219 237.701C200.233 237.664 200.239 237.624 200.236 237.585C200.233 237.546 200.221 237.508 200.202 237.473C200.183 237.439 200.157 237.409 200.125 237.385C200.093 237.362 200.056 237.346 200.018 237.338C199.979 237.331 199.939 237.331 199.901 237.341C199.862 237.35 199.826 237.367 199.795 237.392C199.764 237.416 199.739 237.447 199.721 237.482C199.704 237.517 199.694 237.556 199.692 237.596C199.676 237.668 199.688 237.743 199.725 237.807C199.763 237.871 199.823 237.917 199.894 237.938Z" fill="#AA6550"/>
<path d="M195.232 236.911C195.313 236.916 195.393 236.889 195.455 236.837C195.517 236.785 195.557 236.711 195.566 236.63C195.578 236.592 195.582 236.552 195.578 236.512C195.575 236.472 195.563 236.434 195.544 236.398C195.526 236.363 195.5 236.332 195.469 236.307C195.438 236.282 195.402 236.263 195.364 236.252C195.214 236.252 195.074 236.349 195.03 236.524C195.018 236.563 195.013 236.604 195.017 236.644C195.02 236.684 195.032 236.724 195.051 236.76C195.069 236.795 195.095 236.827 195.126 236.853C195.157 236.879 195.193 236.899 195.232 236.911Z" fill="#AA6550"/>
<path d="M192.089 236.84C192.238 236.84 192.378 236.674 192.414 236.437C192.449 236.2 192.343 235.989 192.203 235.962C192.062 235.936 191.904 236.129 191.878 236.366C191.852 236.603 191.939 236.823 192.089 236.84Z" fill="#AA6550"/>
<path d="M197.612 240.888C197.761 240.888 197.884 240.818 197.884 240.721C197.884 240.625 197.761 240.546 197.612 240.546C197.462 240.546 197.339 240.625 197.339 240.721C197.339 240.818 197.462 240.897 197.612 240.888Z" fill="#AA6550"/>
<path d="M193.335 239.905C193.373 239.906 193.41 239.899 193.446 239.886C193.481 239.872 193.513 239.852 193.54 239.826C193.567 239.799 193.588 239.768 193.603 239.733C193.618 239.699 193.625 239.661 193.625 239.624C193.635 239.548 193.615 239.472 193.569 239.411C193.523 239.35 193.455 239.31 193.379 239.299C193.305 239.301 193.233 239.331 193.18 239.383C193.126 239.435 193.094 239.505 193.09 239.58C193.083 239.617 193.085 239.656 193.094 239.693C193.103 239.73 193.12 239.765 193.143 239.795C193.166 239.825 193.195 239.851 193.228 239.87C193.261 239.889 193.298 239.9 193.335 239.905Z" fill="#AA6550"/>
<path d="M171.061 237.297C171.12 237.317 171.184 237.319 171.244 237.302C171.304 237.285 171.358 237.25 171.397 237.202C171.437 237.153 171.461 237.094 171.466 237.032C171.472 236.97 171.458 236.907 171.426 236.853C171.395 236.799 171.348 236.756 171.292 236.729C171.235 236.702 171.172 236.693 171.111 236.703C171.049 236.713 170.992 236.742 170.947 236.785C170.902 236.829 170.871 236.885 170.859 236.946C170.84 237.019 170.85 237.097 170.888 237.163C170.926 237.228 170.988 237.277 171.061 237.297Z" fill="#AA6550"/>
<path d="M167.882 237.06C167.963 237.056 168.039 237.02 168.094 236.961C168.15 236.903 168.181 236.825 168.18 236.744C168.18 236.56 168.093 236.393 167.952 236.384C167.912 236.384 167.872 236.392 167.835 236.407C167.797 236.423 167.763 236.445 167.735 236.474C167.706 236.503 167.684 236.536 167.668 236.574C167.653 236.611 167.645 236.651 167.645 236.691C167.629 236.771 167.645 236.855 167.689 236.923C167.733 236.992 167.802 237.041 167.882 237.06Z" fill="#AA6550"/>
<path d="M173.844 237.367C173.876 237.377 173.909 237.379 173.942 237.375C173.974 237.372 174.006 237.361 174.035 237.345C174.064 237.328 174.089 237.306 174.109 237.28C174.129 237.254 174.143 237.224 174.151 237.192C174.161 237.125 174.145 237.058 174.105 237.004C174.066 236.949 174.007 236.913 173.94 236.902C173.874 236.886 173.804 236.896 173.745 236.93C173.686 236.965 173.643 237.021 173.624 237.086C173.619 237.119 173.621 237.153 173.63 237.185C173.638 237.218 173.653 237.248 173.674 237.274C173.694 237.3 173.72 237.322 173.749 237.338C173.778 237.354 173.811 237.364 173.844 237.367Z" fill="#AA6550"/>
<path d="M171.517 240.572C171.59 240.598 171.671 240.594 171.742 240.561C171.812 240.528 171.867 240.469 171.895 240.396C171.929 240.327 171.936 240.248 171.913 240.174C171.89 240.1 171.839 240.039 171.772 240.001C171.736 239.987 171.698 239.981 171.66 239.983C171.622 239.984 171.584 239.993 171.549 240.01C171.515 240.026 171.484 240.049 171.459 240.078C171.434 240.107 171.415 240.14 171.403 240.177C171.368 240.245 171.36 240.324 171.381 240.397C171.402 240.471 171.451 240.533 171.517 240.572Z" fill="#AA6550"/>
<path d="M168.804 240.019C168.835 240.012 168.863 239.999 168.888 239.981C168.913 239.963 168.935 239.94 168.951 239.913C168.967 239.887 168.977 239.857 168.981 239.826C168.985 239.796 168.983 239.764 168.975 239.734C168.966 239.705 168.952 239.677 168.932 239.653C168.913 239.628 168.889 239.609 168.861 239.594C168.834 239.58 168.804 239.571 168.773 239.568C168.742 239.566 168.711 239.57 168.681 239.58C168.651 239.587 168.622 239.599 168.597 239.618C168.572 239.636 168.551 239.659 168.535 239.685C168.519 239.712 168.509 239.742 168.505 239.772C168.5 239.803 168.503 239.834 168.511 239.864C168.519 239.894 168.534 239.922 168.553 239.946C168.573 239.97 168.597 239.99 168.624 240.005C168.652 240.019 168.682 240.028 168.713 240.03C168.744 240.033 168.775 240.029 168.804 240.019Z" fill="#AA6550"/>
<path d="M161.982 248.211C160.437 248.07 159.348 249.8 159.287 251.354C159.225 252.908 159.857 254.401 159.936 255.946C160.103 259.186 157.943 262.022 156.89 265.086C156.227 267.06 156.011 269.158 156.259 271.226C156.506 273.294 157.211 275.282 158.321 277.044C160.34 280.187 164.405 282.523 167.803 280.969C167.542 282.494 166.741 283.874 165.547 284.858C167.004 285.894 169.059 285.499 170.578 284.525C172.097 283.55 180.578 285.499 182.361 285.473C194.398 285.271 205.004 279.546 209.772 266.684C211.387 262.294 212.134 258.316 213.74 253.953C215.229 249.548 216.342 245.024 217.068 240.432C217.331 239.009 217.402 237.157 216.102 236.524C214.803 235.892 213.205 237.297 212.836 238.763C212.467 240.23 212.704 241.828 212.16 243.241C211.027 246.174 207.129 246.938 204.056 246.27C201.092 245.523 198.069 245.036 195.021 244.813C188.261 244.532 184.046 246.261 176.715 247.236C174.213 247.57 170.999 246.683 168.567 245.989C166.135 245.296 162.86 246.068 162.263 248.535" fill="#263238"/>
<path d="M219.351 204.109C219.863 202.099 219.902 199.998 219.463 197.971C219.024 195.944 218.121 194.046 216.823 192.429C215.525 190.811 213.869 189.517 211.986 188.649C210.102 187.781 208.043 187.362 205.97 187.427C203.854 187.514 201.755 188.111 199.648 187.883C196.697 187.242 193.671 187.014 190.657 187.207C186.267 187.611 179.928 190.412 176.732 191.026C173.536 191.641 171.368 188.287 171.368 188.287C171.157 189.964 171.517 191.237 172.773 191.869C169.445 192.185 166.899 188.287 166.899 188.287C166.635 189.218 166.636 190.204 166.901 191.134C167.166 192.065 167.685 192.903 168.4 193.555C166.574 194.679 164.335 196.189 162.254 196.725C162.254 196.725 157.864 197.348 158.514 194.898C158.514 194.898 150.937 205.162 162.684 215.163C165.977 217.972 171.412 216.383 175.196 214.285C178.611 212.388 181.676 209.14 185.583 209.254C189.63 209.377 193.169 213.196 197.146 212.397C199.227 211.984 200.834 210.378 202.361 208.885C203.889 207.392 205.636 205.9 207.761 205.777C209.886 205.654 211.738 206.585 210.983 208.569L219.351 204.056" fill="#263238"/>
<path d="M204.486 178.137C204.296 178.521 204.126 178.913 203.977 179.314C203.66 180.432 203.706 181.622 204.108 182.712C204.726 184.323 205.835 185.699 207.278 186.645C209.069 187.801 210.925 188.853 212.836 189.797C213.82 190.342 214.744 190.99 215.593 191.729C216.375 192.439 217.044 193.265 217.577 194.178C218.486 195.715 219.018 197.445 219.131 199.227C219.199 200.411 219.069 201.598 218.745 202.739C218.661 203.04 218.552 203.334 218.42 203.617C218.332 203.819 218.279 203.924 218.262 203.915C218.72 202.385 218.904 200.786 218.806 199.192C218.653 197.471 218.11 195.807 217.217 194.328C216.693 193.462 216.045 192.678 215.294 192.001C214.467 191.287 213.567 190.663 212.607 190.14C210.682 189.181 208.817 188.105 207.023 186.917C205.532 185.91 204.403 184.452 203.801 182.756C203.406 181.603 203.406 180.352 203.801 179.2C203.914 178.89 204.064 178.595 204.249 178.322C204.398 178.234 204.477 178.129 204.486 178.137Z" fill="#263238"/>
<path d="M217.841 204.434C217.857 204.005 217.895 203.577 217.955 203.152C218.062 201.978 218 200.795 217.77 199.64C217.442 197.944 216.796 196.327 215.865 194.872C214.727 193.094 213.152 191.637 211.291 190.64C209.315 189.569 207.243 188.884 205.522 187.804C203.938 186.958 202.651 185.647 201.835 184.046C201.316 182.952 201.18 181.715 201.448 180.534C201.531 180.228 201.652 179.933 201.808 179.656C201.863 179.557 201.931 179.465 202.01 179.384C201.85 179.78 201.721 180.188 201.624 180.605C201.432 181.747 201.607 182.922 202.124 183.959C202.958 185.46 204.216 186.682 205.742 187.471C207.419 188.463 209.482 189.165 211.51 190.263C213.435 191.291 215.057 192.804 216.216 194.653C217.161 196.157 217.797 197.834 218.086 199.587C218.287 200.762 218.305 201.962 218.139 203.143C218.098 203.463 218.034 203.78 217.946 204.091C217.893 204.328 217.858 204.442 217.841 204.434Z" fill="#263238"/>
<path d="M200.236 180.965C200.236 180.965 200.114 180.965 199.894 180.965C199.58 180.954 199.272 181.046 199.016 181.228C198.331 181.728 198.366 183.168 199.13 184.424C200.131 185.876 201.453 187.077 202.993 187.936C204.679 189.042 206.655 190.061 208.656 191.29C210.594 192.385 212.367 193.748 213.925 195.337C215.19 196.673 216.038 198.348 216.365 200.158C216.591 201.378 216.472 202.636 216.023 203.793C215.901 204.102 215.745 204.396 215.558 204.671C215.498 204.771 215.424 204.863 215.338 204.943C215.294 204.943 215.575 204.521 215.856 203.731C216.228 202.598 216.295 201.386 216.049 200.219C215.69 198.485 214.843 196.889 213.608 195.618C212.07 194.08 210.33 192.757 208.437 191.685C206.453 190.465 204.477 189.429 202.783 188.287C201.196 187.373 199.851 186.094 198.858 184.556C198.501 183.935 198.305 183.235 198.287 182.519C198.272 182.242 198.322 181.966 198.433 181.713C198.544 181.46 198.714 181.236 198.928 181.061C199.221 180.868 199.575 180.793 199.92 180.85C200.03 180.876 200.136 180.914 200.236 180.965Z" fill="#263238"/>
<path d="M153.65 202.247C153.729 202.247 153.773 203.371 154.238 205.101C154.838 207.352 155.931 209.441 157.439 211.216C158.948 212.992 160.832 214.409 162.957 215.365C164.59 216.111 165.687 216.33 165.67 216.418C165.405 216.425 165.141 216.389 164.888 216.313C164.186 216.156 163.498 215.939 162.834 215.663C160.613 214.763 158.643 213.339 157.093 211.512C155.542 209.684 154.457 207.509 153.931 205.171C153.768 204.47 153.665 203.756 153.623 203.038C153.587 202.775 153.596 202.507 153.65 202.247Z" fill="#263238"/>
<path d="M197.55 181.254C197.12 181.036 196.677 180.842 196.224 180.675C195.975 180.58 195.705 180.557 195.443 180.61C195.182 180.663 194.941 180.789 194.749 180.973C194.56 181.28 194.433 181.62 194.375 181.976C194.318 182.332 194.332 182.695 194.416 183.045C194.535 183.939 194.833 184.799 195.294 185.574C195.866 186.43 196.615 187.154 197.489 187.699C199.568 188.913 201.762 189.919 204.038 190.702C205.222 191.158 206.35 191.747 207.401 192.458C208.387 193.137 209.273 193.949 210.035 194.872C211.306 196.429 212.228 198.24 212.739 200.184C213.085 201.489 213.222 202.84 213.143 204.188C213.127 204.55 213.083 204.911 213.012 205.268C213.012 205.513 212.941 205.645 212.924 205.636C212.906 205.628 212.924 205.118 212.968 204.179C212.978 202.857 212.794 201.541 212.423 200.272C212.183 199.395 211.847 198.547 211.422 197.743C210.945 196.798 210.355 195.913 209.666 195.109C208.923 194.231 208.07 193.452 207.129 192.791C206.103 192.091 205.005 191.503 203.854 191.035C201.549 190.245 199.333 189.215 197.243 187.962C196.326 187.375 195.547 186.596 194.96 185.679C194.483 184.855 194.184 183.94 194.082 182.993C193.999 182.601 193.996 182.197 194.075 181.804C194.153 181.412 194.311 181.039 194.538 180.71C194.771 180.471 195.083 180.324 195.416 180.297C195.691 180.29 195.964 180.331 196.224 180.42C196.569 180.544 196.897 180.712 197.199 180.921C197.445 181.158 197.55 181.237 197.55 181.254Z" fill="#263238"/>
<path d="M223.135 221.616C223.065 221.721 222.459 221.44 221.783 220.993C221.107 220.545 220.615 220.115 220.685 219.983C220.755 219.851 221.361 220.159 222.037 220.615C222.713 221.072 223.205 221.511 223.135 221.616Z" fill="#263238"/>
<path d="M216.971 220.378C216.875 220.475 216.603 220.378 216.357 220.097C216.111 219.816 215.979 219.579 216.067 219.482C216.155 219.386 216.427 219.526 216.673 219.772C216.919 220.018 217.059 220.281 216.971 220.378Z" fill="#263238"/>
<path d="M218.156 217.647C218.104 217.77 217.752 217.735 217.357 217.586C216.962 217.437 216.673 217.208 216.716 217.094C216.76 216.98 217.12 217.006 217.515 217.156C217.911 217.305 218.2 217.533 218.156 217.647Z" fill="#263238"/>
<path d="M220.755 214.522C220.755 214.653 220.369 214.715 219.877 214.662C219.386 214.61 219.078 214.469 219.096 214.346C219.114 214.223 219.482 214.153 219.93 214.206C220.378 214.258 220.773 214.399 220.755 214.522Z" fill="#263238"/>
<path d="M215.9 212.537C215.953 212.652 215.76 212.862 215.461 213.012C215.163 213.161 214.873 213.187 214.82 213.073C214.768 212.959 214.961 212.748 215.259 212.599C215.558 212.45 215.839 212.423 215.9 212.537Z" fill="#263238"/>
<path d="M218.06 207.946C218.13 208.06 217.902 208.323 217.551 208.543C217.2 208.762 216.866 208.867 216.796 208.762C216.726 208.657 216.954 208.385 217.305 208.165C217.656 207.946 217.99 207.84 218.06 207.946Z" fill="#263238"/>
<path d="M221.388 210.018C221.458 210.123 221.3 210.36 221.028 210.562C220.755 210.764 220.474 210.843 220.395 210.738C220.316 210.632 220.483 210.395 220.755 210.193C221.028 209.991 221.309 209.912 221.388 210.018Z" fill="#263238"/>
<path d="M224.083 212.81C224.031 212.924 223.671 212.88 223.249 212.81C222.828 212.739 222.477 212.66 222.468 212.538C222.459 212.415 222.845 212.283 223.346 212.362C223.846 212.441 224.136 212.696 224.083 212.81Z" fill="#263238"/>
<path d="M223.547 217.665C223.477 217.77 223.179 217.665 222.88 217.489C222.582 217.314 222.397 217.05 222.467 216.945C222.538 216.84 222.836 216.945 223.135 217.112C223.433 217.279 223.618 217.56 223.547 217.665Z" fill="#263238"/>
<path d="M219.86 226.84C219.754 226.91 219.491 226.735 219.272 226.436C219.052 226.138 218.947 225.83 219.043 225.76C219.14 225.69 219.412 225.866 219.632 226.164C219.851 226.463 219.956 226.761 219.86 226.84Z" fill="#263238"/>
<path d="M190.026 248.474C189.674 248.404 189.341 250.739 187.111 252.118C184.881 253.496 182.422 252.899 182.361 253.215C182.308 253.364 182.852 253.751 183.897 253.926C185.266 254.136 186.665 253.856 187.848 253.136C188.981 252.447 189.802 251.345 190.14 250.063C190.368 249.062 190.184 248.474 190.026 248.474Z" fill="#FAFAFA"/>
<path d="M209.736 259.59C210.521 257.92 211.164 256.187 211.659 254.409C212.005 252.594 212.196 250.752 212.23 248.904C212.413 249.429 212.499 249.982 212.485 250.537C212.538 251.874 212.411 253.212 212.107 254.515C211.804 255.814 211.325 257.067 210.685 258.237C210.455 258.743 210.133 259.201 209.736 259.59Z" fill="#455A64"/>
<path d="M197.55 278.484C197.479 278.414 198.779 277.185 200.482 274.893C201.474 273.549 202.371 272.138 203.169 270.67C205.108 267.06 206.398 263.137 206.979 259.08C207.21 257.425 207.324 255.756 207.322 254.084C207.322 251.222 206.997 249.466 207.094 249.457C207.21 249.856 207.293 250.265 207.339 250.678C207.429 251.16 207.49 251.646 207.524 252.135C207.524 252.706 207.655 253.356 207.647 254.076C207.7 255.766 207.615 257.457 207.392 259.133C207.111 261.186 206.65 263.21 206.014 265.182C205.354 267.147 204.526 269.05 203.538 270.872C202.717 272.349 201.781 273.758 200.737 275.086C200.348 275.605 199.931 276.103 199.49 276.579C199.175 276.953 198.838 277.307 198.48 277.641C198.196 277.949 197.884 278.231 197.55 278.484Z" fill="#455A64"/>
<path d="M198.823 273.497C199.47 271.557 200.217 269.652 201.062 267.79C201 268.833 200.741 269.855 200.298 270.802C199.984 271.786 199.483 272.702 198.823 273.497Z" fill="#455A64"/>
<path d="M193.74 275.999C193.626 275.929 194.82 273.822 195.847 271.039C196.874 268.255 197.348 265.885 197.489 265.911C197.142 269.544 195.849 273.022 193.74 275.999Z" fill="#455A64"/>
<path d="M182.527 266.763C182.926 266.039 183.388 265.352 183.906 264.708C184.3 263.98 184.755 263.287 185.266 262.636C185.162 263.484 184.825 264.286 184.292 264.954C183.502 266.131 182.624 266.851 182.527 266.763Z" fill="#455A64"/>
<path d="M166.732 273.497C166.693 272.923 166.78 272.348 166.987 271.811C167.391 270.478 168.068 269.243 168.975 268.185C169.882 267.127 170.999 266.269 172.255 265.665C172.743 265.386 173.284 265.212 173.844 265.156C173.368 265.452 172.876 265.718 172.369 265.955C171.21 266.616 170.174 267.472 169.305 268.484C168.444 269.5 167.761 270.655 167.285 271.899C167.134 272.443 166.949 272.976 166.732 273.497Z" fill="#455A64"/>
<path d="M163 268.194C163.47 267.271 164.172 266.488 165.037 265.92C165.813 265.23 166.754 264.752 167.768 264.533C167.821 264.656 166.618 265.279 165.318 266.289C164.019 267.298 163.097 268.282 163 268.194Z" fill="#455A64"/>
<path d="M171.693 274.261C171.705 273.55 171.838 272.846 172.088 272.18C172.607 270.512 173.435 268.958 174.529 267.597C175.62 266.234 176.965 265.095 178.489 264.243C179.098 263.859 179.769 263.586 180.473 263.435C180.473 263.505 179.753 263.821 178.647 264.524C175.764 266.351 173.567 269.08 172.395 272.285C171.921 273.471 171.772 274.278 171.693 274.261Z" fill="#455A64"/>
<path d="M178.032 254.497C178.032 254.55 177.54 254.602 176.794 254.348C175.819 254.007 175.003 253.32 174.502 252.416C174.011 251.506 173.867 250.448 174.098 249.44C174.283 248.676 174.59 248.29 174.634 248.316C174.678 248.342 174.502 248.773 174.415 249.492C174.28 250.421 174.452 251.367 174.904 252.189C175.355 253.012 176.062 253.664 176.917 254.049C177.575 254.365 178.041 254.418 178.032 254.497Z" fill="#455A64"/>
<path d="M180.315 253.882C180.315 253.935 179.937 254.067 179.279 253.997C178.418 253.887 177.623 253.48 177.031 252.846C176.446 252.209 176.107 251.384 176.074 250.52C176.074 249.861 176.215 249.484 176.267 249.492C176.32 249.501 176.267 249.896 176.39 250.485C176.504 251.252 176.847 251.967 177.373 252.537C177.899 253.107 178.584 253.506 179.34 253.681C179.92 253.821 180.315 253.803 180.315 253.882Z" fill="#455A64"/>
<path d="M184.45 251.986C184.45 252.039 184.161 252.232 183.572 252.407C182.816 252.632 182.011 252.632 181.254 252.407C180.871 252.288 180.516 252.09 180.214 251.825C179.911 251.56 179.668 251.235 179.498 250.871C179.261 250.291 179.367 249.896 179.411 249.905C179.454 249.914 179.516 250.265 179.788 250.722C180.162 251.315 180.735 251.757 181.404 251.968C182.09 252.158 182.81 252.191 183.511 252.065C184.082 251.986 184.424 251.881 184.45 251.986Z" fill="#455A64"/>
<path d="M169.05 191.158C169.143 191.949 169.372 192.719 169.726 193.432C170.251 194.377 170.984 195.191 171.869 195.811C172.754 196.432 173.769 196.843 174.836 197.014C176.311 197.262 177.821 197.217 179.279 196.883C180.961 196.483 182.593 195.894 184.143 195.127C187.453 193.581 191.167 191.755 195.311 190.825C197.342 190.353 199.427 190.164 201.51 190.263C203.456 190.367 205.373 190.791 207.182 191.518C208.817 192.185 210.308 193.163 211.572 194.398C212.671 195.48 213.535 196.777 214.109 198.209C214.964 200.275 215.139 202.56 214.609 204.732C214.414 205.522 214.075 206.269 213.609 206.936C213.947 206.211 214.223 205.459 214.434 204.688C214.889 202.556 214.671 200.335 213.81 198.331C213.233 196.952 212.382 195.703 211.308 194.661C210.063 193.478 208.603 192.545 207.006 191.913C205.241 191.211 203.372 190.805 201.475 190.71C199.433 190.622 197.389 190.811 195.399 191.272C191.281 192.15 187.646 193.968 184.31 195.513C182.725 196.264 181.061 196.835 179.349 197.216C177.841 197.541 176.283 197.565 174.766 197.287C173.51 197.051 172.332 196.505 171.342 195.697C170.602 195.09 170.003 194.329 169.586 193.467C169.315 192.916 169.142 192.322 169.076 191.711C169.065 191.556 169.065 191.401 169.076 191.246C169.041 191.211 169.041 191.158 169.05 191.158Z" fill="#455A64"/>
<path d="M212.336 208.349C212.657 207.434 212.892 206.49 213.038 205.531C213.349 202.889 212.768 200.219 211.387 197.945C210.938 197.202 210.404 196.513 209.798 195.891C209.125 195.232 208.369 194.662 207.551 194.196C205.72 193.19 203.677 192.633 201.589 192.572C199.279 192.491 196.973 192.831 194.784 193.573C192.432 194.394 190.174 195.465 188.05 196.769C183.66 199.403 179.648 202.318 175.495 204.082C173.536 204.945 171.468 205.536 169.349 205.838C167.498 206.113 165.611 205.996 163.809 205.496C162.31 205.074 160.962 204.237 159.919 203.081C159.143 202.208 158.596 201.155 158.33 200.017C158.155 199.301 158.128 198.558 158.251 197.831C158.288 197.581 158.356 197.336 158.453 197.102C158.253 198.051 158.268 199.032 158.497 199.973C158.79 201.07 159.344 202.079 160.112 202.915C161.137 204.009 162.448 204.793 163.896 205.18C167.119 206.128 171.272 205.478 175.31 203.696C179.349 201.914 183.362 199.016 187.804 196.374C189.955 195.056 192.243 193.976 194.626 193.151C196.866 192.391 199.226 192.051 201.589 192.15C203.748 192.239 205.855 192.841 207.735 193.906C208.575 194.389 209.348 194.98 210.035 195.662C210.657 196.309 211.202 197.025 211.66 197.796C213.037 200.137 213.585 202.875 213.214 205.566C213.095 206.288 212.907 206.997 212.652 207.682C212.565 207.913 212.46 208.136 212.336 208.349Z" fill="#455A64"/>
<path d="M157.698 204.767C157.698 204.767 158.225 205.54 159.384 206.743C162.197 209.594 166.012 211.235 170.016 211.317C171.87 211.321 173.709 210.984 175.442 210.325C179.112 208.964 182.624 206.33 186.189 203.468C187.917 202.054 189.729 200.746 191.615 199.552C193.384 198.431 195.306 197.573 197.322 197.006C199.155 196.483 201.073 196.325 202.967 196.54C204.624 196.73 206.206 197.334 207.568 198.296C208.561 198.977 209.405 199.851 210.051 200.867C210.697 201.882 211.131 203.018 211.326 204.205C211.422 204.848 211.422 205.502 211.326 206.146C211.286 206.366 211.23 206.583 211.159 206.795C211.419 205.205 211.2 203.573 210.531 202.107C209.862 200.641 208.773 199.406 207.401 198.56C206.077 197.644 204.543 197.076 202.941 196.909C201.097 196.716 199.234 196.883 197.454 197.401C193.634 198.41 190.034 200.983 186.487 203.819C182.94 206.655 179.402 209.368 175.6 210.72C172.242 211.989 168.536 211.989 165.178 210.72C162.926 209.906 160.9 208.567 159.269 206.813C159.009 206.537 158.769 206.244 158.549 205.935C158.372 205.728 158.21 205.508 158.067 205.276C157.93 205.117 157.806 204.947 157.698 204.767Z" fill="#455A64"/>
<path d="M67.9747 416.787L177.654 297.765L177.918 289.863L217.182 275.999L219.649 285.473C219.649 285.473 236.744 304.859 246.788 328.275C256.833 351.692 259.589 416.541 259.589 416.541L67.9747 416.787Z" fill="#267FD2"/>
<path d="M216.945 282.567C216.945 282.567 216.822 282.646 216.567 282.751L215.435 283.19C214.46 283.559 213.038 284.068 211.264 284.692C207.752 285.921 202.818 287.545 197.383 289.283L183.502 293.753L179.288 295.113L178.137 295.465C178.006 295.518 177.866 295.55 177.725 295.561C177.725 295.561 177.848 295.482 178.102 295.377L179.226 294.947C180.209 294.569 181.632 294.069 183.397 293.445C186.909 292.207 191.843 290.583 197.287 288.844L211.212 284.384L215.426 283.015L216.576 282.663C216.695 282.617 216.819 282.585 216.945 282.567Z" fill="#FAFAFA"/>
<path d="M219.052 286.369C219.052 286.369 218.929 286.439 218.666 286.527L217.524 286.904L213.301 288.195C209.728 289.275 204.776 290.732 199.306 292.304C193.836 293.875 188.866 295.289 185.258 296.29L180.991 297.44L179.832 297.739C179.695 297.779 179.553 297.802 179.41 297.809C179.534 297.736 179.667 297.68 179.805 297.642L180.947 297.273L185.17 295.974C188.744 294.903 193.695 293.445 199.165 291.865C204.635 290.284 209.596 288.888 213.213 287.887L217.48 286.737L218.648 286.439C218.778 286.395 218.915 286.371 219.052 286.369Z" fill="#263238"/>
<path d="M232.538 325.08C232.332 324.664 232.159 324.232 232.02 323.789C231.713 322.911 231.256 321.743 230.659 320.277C229.095 316.408 227.252 312.658 225.145 309.056C223.024 305.478 220.645 302.059 218.025 298.827C217.024 297.581 216.19 296.597 215.593 295.921C215.27 295.586 214.977 295.225 214.715 294.841C215.079 295.133 215.417 295.456 215.725 295.807C216.357 296.439 217.235 297.396 218.271 298.617C223.702 305 227.994 312.271 230.958 320.11C231.52 321.611 231.932 322.841 232.187 323.701C232.347 324.149 232.465 324.61 232.538 325.08Z" fill="#263238"/>
<path d="M224.812 406.997C224.689 406.997 226.568 390.166 228.965 369.445C231.362 348.724 233.451 331.937 233.574 331.954C233.697 331.972 231.818 348.777 229.421 369.498C227.024 390.218 224.935 407.006 224.812 406.997Z" fill="#263238"/>
<path d="M220.633 303.788C220.633 303.911 208.2 305.72 192.818 307.818C177.435 309.916 164.959 311.514 164.95 311.391C164.941 311.269 177.382 309.46 192.756 307.361C208.13 305.263 220.615 303.674 220.633 303.788Z" fill="#FAFAFA"/>
<path d="M231.256 303.156C230.268 303.906 229.191 304.534 228.052 305.026C226.979 305.654 225.832 306.143 224.636 306.483C226.696 305.103 228.92 303.985 231.256 303.156Z" fill="#FAFAFA"/>
<path d="M228.754 322.428C228.694 322.461 228.628 322.485 228.561 322.498L227.981 322.639L225.751 323.157C224.785 323.376 223.6 323.64 222.239 323.912C220.878 324.184 219.289 324.509 217.533 324.79C214.021 325.431 209.859 326.08 205.241 326.677C200.623 327.274 195.443 327.757 190.034 328.1C184.626 328.442 179.454 328.556 174.757 328.556C170.06 328.556 165.836 328.416 162.289 328.205C160.533 328.126 158.918 327.994 157.513 327.889C156.108 327.784 154.879 327.687 153.904 327.582L151.63 327.345L151.042 327.274H150.84C150.91 327.265 150.981 327.265 151.051 327.274H151.639L153.922 327.424C154.914 327.494 156.117 327.582 157.531 327.652C158.944 327.722 160.533 327.845 162.307 327.898C165.819 328.065 170.068 328.161 174.757 328.152C179.445 328.144 184.599 327.986 190.008 327.661C195.416 327.336 200.544 326.827 205.188 326.274C209.833 325.72 214.021 325.088 217.48 324.518C219.236 324.245 220.808 323.929 222.195 323.683C223.583 323.438 224.768 323.201 225.707 323.007L227.955 322.577L228.534 322.472C228.605 322.446 228.679 322.432 228.754 322.428Z" fill="#FAFAFA"/>
<path d="M240.484 316.651C239.267 317.505 237.971 318.24 236.612 318.846C235.318 319.57 233.953 320.158 232.538 320.602C235.029 319.008 237.677 317.676 240.44 316.624L240.484 316.651Z" fill="#FAFAFA"/>
<path d="M224.952 345.985C224.882 346.014 224.808 346.031 224.733 346.037L224.066 346.143L221.484 346.503C220.369 346.661 218.991 346.845 217.393 347.003C215.795 347.161 213.986 347.39 211.967 347.53C209.947 347.67 207.744 347.881 205.373 347.995C203.002 348.109 200.456 348.215 197.787 348.294C192.449 348.399 186.566 348.347 180.403 348.03C174.239 347.714 168.383 347.152 163.08 346.459C160.446 346.09 157.917 345.765 155.573 345.361C153.229 344.957 151.051 344.589 149.067 344.202C147.083 343.816 145.292 343.439 143.72 343.105C142.148 342.771 140.805 342.455 139.707 342.174L137.188 341.542L136.529 341.366L136.31 341.296C136.385 341.285 136.462 341.285 136.538 341.296L137.205 341.428L139.751 341.981C140.849 342.227 142.201 342.525 143.773 342.859C145.344 343.193 147.135 343.561 149.12 343.895C151.104 344.229 153.281 344.65 155.634 344.993C157.987 345.335 160.49 345.695 163.132 346.046C168.4 346.687 174.274 347.249 180.429 347.583C186.584 347.916 192.449 347.96 197.778 347.881C200.412 347.811 202.985 347.767 205.355 347.627C207.726 347.486 209.93 347.372 211.94 347.214C213.951 347.056 215.769 346.898 217.367 346.757C218.965 346.617 220.343 346.468 221.467 346.336L224.048 346.055L224.724 345.994L224.952 345.985Z" fill="#FAFAFA"/>
<path d="M249.791 338.618C247.264 339.51 244.687 340.254 242.073 340.848C239.495 341.583 236.878 342.169 234.233 342.604C236.764 341.715 239.344 340.97 241.959 340.374C244.534 339.641 247.149 339.055 249.791 338.618Z" fill="#FAFAFA"/>
<path d="M227.402 376.917L227.121 376.969L226.287 377.075L223.091 377.444L220.782 377.698C219.904 377.777 219.026 377.83 218.016 377.909C216.041 378.041 213.784 378.251 211.282 378.304L207.366 378.436C205.996 378.436 204.583 378.436 203.108 378.436C200.166 378.436 197.032 378.313 193.731 378.181C186.569 377.779 179.433 377.008 172.351 375.872C165.281 374.666 158.277 373.098 151.367 371.175C148.197 370.235 145.168 369.375 142.403 368.391C141.007 367.908 139.655 367.513 138.373 367.004L134.703 365.617C132.35 364.739 130.313 363.861 128.46 363.079C127.582 362.693 126.704 362.342 125.914 361.991L123.807 361.007L120.9 359.629L120.145 359.26C120.059 359.221 119.977 359.174 119.9 359.12L120.172 359.216L120.936 359.541L123.886 360.858L126.01 361.815L128.565 362.86C130.4 363.597 132.472 364.502 134.826 365.336L138.504 366.697C139.786 367.162 141.138 367.575 142.526 368.049C145.3 369.015 148.32 369.858 151.481 370.788C157.847 372.544 164.923 374.169 172.43 375.433C179.937 376.697 187.172 377.373 193.757 377.786C197.058 377.918 200.184 378.093 203.116 378.076C204.591 378.076 206.005 378.076 207.366 378.076L211.282 377.979C213.775 377.979 216.032 377.76 218.007 377.654L220.764 377.479L223.082 377.268L226.287 376.978L227.121 376.917C227.214 376.906 227.308 376.906 227.402 376.917Z" fill="#FAFAFA"/>
<path d="M256.147 370.85C255.878 371.048 255.583 371.207 255.269 371.324C254.707 371.605 253.873 371.965 252.82 372.377C250.066 373.422 247.217 374.193 244.312 374.678C241.411 375.158 238.47 375.346 235.532 375.24C234.399 375.196 233.486 375.117 232.898 375.038C232.571 375.017 232.247 374.961 231.932 374.871C231.932 374.792 233.328 374.871 235.567 374.915C241.418 374.957 247.233 373.995 252.758 372.07C254.839 371.341 256.121 370.779 256.147 370.85Z" fill="#FAFAFA"/>
<path d="M216.629 411.132H216.322H215.444L211.993 410.939C210.492 410.86 208.666 410.746 206.541 410.544C204.416 410.342 201.993 410.184 199.332 409.859L195.144 409.385C193.687 409.218 192.177 408.99 190.614 408.788C187.479 408.393 184.152 407.822 180.649 407.26C173.625 406.04 166.012 404.486 158.058 402.519C150.103 400.552 142.622 398.287 135.879 396.075C132.517 394.924 129.312 393.862 126.362 392.738C124.887 392.185 123.447 391.676 122.086 391.14L118.17 389.586C115.668 388.62 113.446 387.628 111.489 386.803C109.531 385.978 107.845 385.214 106.484 384.582L103.349 383.124L102.542 382.738C102.445 382.699 102.354 382.649 102.27 382.589L102.559 382.694L103.393 383.045L106.554 384.424C107.924 385.029 109.61 385.767 111.585 386.566C113.561 387.365 115.782 388.322 118.293 389.288L122.209 390.807C123.579 391.342 125.019 391.834 126.494 392.378C129.452 393.484 132.64 394.538 136.011 395.671C142.754 397.857 150.235 400.061 158.163 402.071C166.091 404.082 173.748 405.583 180.728 406.848C184.24 407.418 187.541 407.998 190.667 408.41C192.229 408.621 193.731 408.867 195.188 409.043L199.368 409.534C202.002 409.877 204.442 410.079 206.558 410.289C208.674 410.5 210.509 410.658 212.011 410.764L215.453 411.036L216.331 411.115C216.43 411.109 216.531 411.115 216.629 411.132Z" fill="#FAFAFA"/>
<path d="M258.431 399.227C258.129 399.457 257.802 399.651 257.456 399.806C256.815 400.157 255.867 400.614 254.664 401.123C248.368 403.76 241.542 404.885 234.733 404.407C233.434 404.31 232.38 404.179 231.669 404.056C231.291 404.012 230.918 403.932 230.554 403.819C230.932 403.795 231.312 403.813 231.687 403.871C232.407 403.95 233.443 404.029 234.751 404.082C241.502 404.383 248.242 403.273 254.541 400.825C255.753 400.359 256.718 399.947 257.377 399.648C257.712 399.47 258.065 399.329 258.431 399.227Z" fill="#FAFAFA"/>
<g opacity="0.2">
<path d="M236.182 406.514C233.337 403.564 229.448 401.439 227.7 397.734C225.742 393.59 227.042 388.735 228.113 384.283C230.027 376.386 231.159 368.319 231.493 360.2C231.634 356.802 231.037 352.508 227.788 351.499C224.908 350.621 222.09 353.088 220.571 355.687C216.813 362.114 216.831 369.989 214.899 377.171C212.962 384.026 209.26 390.253 204.164 395.229C199.067 400.205 192.754 403.758 185.855 405.531C178.462 407.287 170.736 406.988 163.15 407.594C155.251 408.265 147.779 411.464 141.841 416.716L237.42 417.375C240.572 414.741 239.018 409.447 236.182 406.514Z" fill="black"/>
</g>
<path d="M404.486 416.795C404.486 416.918 319.03 417.024 213.644 417.024C108.257 417.024 22.8279 416.918 22.8279 416.795C22.8279 416.672 108.257 416.567 213.688 416.567C319.118 416.567 404.486 416.664 404.486 416.795Z" fill="#263238"/>
</svg>
