<svg width="588" height="588" viewBox="0 0 588 588" fill="none" xmlns="http://www.w3.org/2000/svg">
<path d="M108.886 342.639H77.7454V355.799H108.886V342.639Z" fill="#EBEBEB"/>
<path d="M91.5163 359.233H60.3759V372.392H91.5163V359.233Z" fill="#EBEBEB"/>
<path d="M334.795 176.953H303.655V190.112H334.795V176.953Z" fill="#EBEBEB"/>
<path d="M317.426 193.546H286.285V206.705H317.426V193.546Z" fill="#EBEBEB"/>
<path d="M300.127 176.953H268.986V190.112H300.127V176.953Z" fill="#EBEBEB"/>
<path d="M527.624 359.233H496.484V372.392H527.624V359.233Z" fill="#EBEBEB"/>
<path d="M510.255 61.5048H479.114V74.6643H510.255V61.5048Z" fill="#EBEBEB"/>
<path d="M527.624 78.0982H496.484V91.2576H527.624V78.0982Z" fill="#EBEBEB"/>
<path d="M91.5163 61.5048H60.3759V74.6643H91.5163V61.5048Z" fill="#EBEBEB"/>
<path d="M527.754 156.008H380.965V166.063H527.754V156.008Z" fill="#C7C7C7"/>
<path d="M506.564 119.685L505.468 119.902L512.376 154.823L513.472 154.606L506.564 119.685Z" fill="#EBEBEB"/>
<path d="M515.225 119.434L506.888 155.6L507.977 155.851L516.313 119.685L515.225 119.434Z" fill="#EBEBEB"/>
<path d="M519.213 120.122L508.344 155.56L509.413 155.888L520.281 120.449L519.213 120.122Z" fill="#EBEBEB"/>
<path d="M507.248 120.886L506.183 121.222L516.834 154.942L517.9 154.606L507.248 120.886Z" fill="#EBEBEB"/>
<path d="M512.759 120.786L511.641 120.808L512.358 156.629L513.475 156.607L512.759 120.786Z" fill="#EBEBEB"/>
<path d="M518.522 156.008H506.01L508.491 140.344H516.041L518.522 156.008Z" fill="#A6A6A6"/>
<path d="M461.168 110.791H430.569V156.008H461.168V110.791Z" fill="#DBDBDB"/>
<path d="M452.101 101.653H439.624V110.791H452.101V101.653Z" fill="#A6A6A6"/>
<path d="M456.806 122.257H434.826V143.284H456.806V122.257Z" fill="#EBEBEB"/>
<path d="M426.947 122.257H404.591V156.008H426.947V122.257Z" fill="#EBEBEB"/>
<path d="M421.996 109.791H409.518V118.929H421.996V109.791Z" fill="#A6A6A6"/>
<path d="M411.188 122.257H420.349V118.929H411.188V122.257Z" fill="#EBEBEB"/>
<path d="M498.977 104.899H472.74V156.008H498.977V104.899Z" fill="#DBDBDB"/>
<path d="M491.215 97.0672H480.514V104.899H491.215V97.0672Z" fill="#C7C7C7"/>
<path d="M498.977 124.386H472.74V142.414H498.977V124.386Z" fill="#C7C7C7"/>
<path d="M263.553 160.924C268.541 160.924 272.585 156.88 272.585 151.892C272.585 146.904 268.541 142.86 263.553 142.86C258.565 142.86 254.522 146.904 254.522 151.892C254.522 156.88 258.565 160.924 263.553 160.924Z" fill="#EBEBEB"/>
<path d="M264.142 0H262.966V108.039H264.142V0Z" fill="#C7C7C7"/>
<path d="M269.081 101.795H258.038V113.743H269.081V101.795Z" fill="#DBDBDB"/>
<path d="M286.156 151.892H240.962C241.88 134.699 250.076 107.204 263.553 107.204C277.03 107.204 285.25 134.699 286.156 151.892Z" fill="#DBDBDB"/>
<path d="M324.447 131.406C329.435 131.406 333.478 127.363 333.478 122.375C333.478 117.387 329.435 113.343 324.447 113.343C319.459 113.343 315.415 117.387 315.415 122.375C315.415 127.363 319.459 131.406 324.447 131.406Z" fill="#EBEBEB"/>
<path d="M325.035 0H323.859V78.5215H325.035V0Z" fill="#C7C7C7"/>
<path d="M329.962 72.2887H318.919V84.2368H329.962V72.2887Z" fill="#DBDBDB"/>
<path d="M347.038 122.375H301.844C302.761 105.193 310.958 77.6866 324.447 77.6866C337.935 77.6866 346.132 105.193 347.038 122.375Z" fill="#DBDBDB"/>
<path d="M294 538.573C368.477 538.573 428.852 532.492 428.852 524.99C428.852 517.488 368.477 511.407 294 511.407C219.523 511.407 159.148 517.488 159.148 524.99C159.148 532.492 219.523 538.573 294 538.573Z" fill="#EBEBEB"/>
<path d="M123.633 105.899H76.4517V256.344H123.633V105.899Z" fill="white"/>
<path d="M123.633 256.368L76.44 256.615H76.1695V256.368L75.8638 105.899V105.311H76.44L123.621 105.405H124.115V105.899L123.939 181.257L123.633 256.368ZM123.633 256.368L123.315 181.01L123.139 105.922L123.633 106.416L76.44 106.487L77.028 105.899L76.734 256.368L76.4518 256.098L123.633 256.368Z" fill="#DBDBDB"/>
<path d="M126.702 97.6786H73.3706V105.899H126.702V97.6786Z" fill="#455A64"/>
<path d="M132.018 89.4702H68.0787V97.6904H132.018V89.4702Z" fill="#37474F"/>
<path d="M100.042 64.9975C96.9433 64.996 93.8744 65.605 91.0109 66.7898C88.1474 67.9747 85.5454 69.7121 83.3536 71.9029C81.1618 74.0936 79.4231 76.6947 78.2368 79.5576C77.0505 82.4205 76.4399 85.4891 76.4399 88.5881V89.4701H123.621V88.5881C123.621 82.3335 121.137 76.3349 116.716 71.9112C112.294 67.4874 106.297 65.0006 100.042 64.9975Z" fill="#455A64"/>
<path d="M73.3822 264.565H126.714V256.344H73.3822V264.565Z" fill="#455A64"/>
<path d="M68.0668 272.773H132.006V264.553H68.0668V272.773Z" fill="#37474F"/>
<path d="M100.042 297.246C106.299 297.246 112.299 294.76 116.723 290.336C121.147 285.912 123.633 279.912 123.633 273.655V272.832H76.4399V273.702C76.4524 279.953 78.9449 285.943 83.3702 290.357C87.7955 294.771 93.7918 297.249 100.042 297.246Z" fill="#455A64"/>
<path d="M105.934 105.899L76.4635 118.188V105.899H105.934Z" fill="#D22630"/>
<path d="M123.633 125.197L76.4517 144.86V130.371L123.633 110.72V125.197Z" fill="#267FD2"/>
<path d="M123.633 151.869L76.4517 171.52V157.043L123.633 137.38V151.869Z" fill="#D22630"/>
<path d="M123.633 178.54L76.4517 198.191V183.715L123.633 164.052V178.54Z" fill="#267FD2"/>
<path d="M123.633 205.212L76.4517 224.863V210.375L123.633 190.724V205.212Z" fill="#D22630"/>
<path d="M123.633 231.872L76.4517 251.535V237.046L123.633 217.384V231.872Z" fill="#267FD2"/>
<path d="M123.633 244.055V256.345H94.1269L123.633 244.055Z" fill="#D22630"/>
<path d="M85.1306 115.848H80.8382V246.396H85.1306V115.848Z" fill="white"/>
<path d="M423.724 310.076L423.419 311.252C423.419 311.346 423.36 311.452 423.336 311.57C423.16 312.24 422.925 313.134 422.643 314.239C422.572 314.51 422.49 314.804 422.419 315.098L422.043 316.509C421.937 316.92 421.831 317.355 421.714 317.802C421.079 320.154 420.326 323.094 419.456 326.434C419.373 326.763 419.291 327.093 419.197 327.434C416.668 337.136 413.317 350.272 409.366 365.254C409.119 366.206 408.872 367.171 408.613 368.135L407.966 370.652C407.707 371.628 407.46 372.604 407.202 373.58C406.32 376.967 405.426 380.424 404.52 383.929C404.034 385.779 403.552 387.637 403.074 389.503C399.334 403.956 395.395 419.197 391.537 434.191C390.973 436.367 390.42 438.53 389.856 440.694L386.469 453.877C384.011 463.415 381.659 472.623 379.472 481.196C378.013 486.935 376.637 492.391 375.356 497.472H292.506C301.656 463.285 316.544 413.623 328.68 373.992C339.723 337.83 348.496 310.041 348.496 310.041L423.724 310.076Z" fill="#37474F"/>
<path d="M407.825 332.373C405.955 338.994 404.109 345.615 402.18 352.224C398.362 365.301 394.513 378.374 390.632 391.443C388.844 397.512 387.045 403.572 385.234 409.624C381.73 421.384 378.202 433.144 374.65 444.904C372.212 453.066 369.766 461.227 367.312 469.389C364.505 478.742 361.691 488.099 358.868 497.46H356.363C357.822 492.815 359.292 488.181 360.679 483.548C365.093 468.887 369.519 454.23 373.956 439.577C377.265 428.648 380.577 417.727 383.893 406.814C384.27 405.638 384.646 404.356 385.011 403.133C388.539 391.561 392.067 380.005 395.595 368.464C397.586 362.02 399.581 355.575 401.581 349.131C403.556 342.828 405.802 336.583 407.59 330.233C408.366 327.669 408.754 329.08 407.825 332.373Z" fill="#263238"/>
<path d="M357.034 310.076C362.208 350.448 372.216 426.241 379.472 481.207C396.441 414.611 423.725 310.076 423.725 310.076H357.034Z" fill="#263238"/>
<path d="M463.685 497.448H387.574C387.257 483.83 386.857 468.495 386.469 453.854C386.01 436.978 385.564 421.008 385.234 409.613C385.164 407.261 385.105 405.085 385.046 403.145C384.893 397.947 384.787 394.395 384.752 393.125C384.752 392.796 384.752 392.619 384.752 392.619L383.447 391.831C380.319 389.95 377.484 388.362 374.98 387.033L374.156 386.61C371.005 384.964 368.417 383.752 366.548 382.917C364.301 381.93 363.02 381.483 363.02 381.483L362.773 380.777C362.091 378.766 361.456 376.685 360.868 374.58C352.636 346.073 350.895 310.076 350.895 310.076H453.407C453.407 310.076 455.147 338.888 457.264 376.261C459.499 415.034 462.168 463.003 463.685 497.448Z" fill="#37474F"/>
<path d="M452.913 497.448H451.584C450.063 467.272 448.816 437.088 447.844 406.896C446.892 378.895 446.163 350.895 445.328 322.894C445.328 322.494 445.927 322.53 445.939 322.894C447.574 372.416 449.303 421.937 451.525 471.435C451.866 478.091 452.337 486.982 452.913 497.448Z" fill="#263238"/>
<path d="M359.362 379.331C368.186 383.018 376.673 387.464 384.728 392.619C385.046 392.819 384.811 393.313 384.47 393.149C375.908 388.986 367.159 384.987 358.845 380.354C358.725 380.277 358.637 380.158 358.6 380.02C358.562 379.882 358.577 379.736 358.641 379.608C358.706 379.481 358.815 379.382 358.948 379.331C359.081 379.28 359.229 379.279 359.362 379.331Z" fill="#263238"/>
<path d="M358.868 348.79C359.444 351.953 360.209 355.07 360.891 358.198C361.538 361.138 362.008 364.078 362.784 367.053C363.422 369.868 364.85 372.442 366.9 374.474C368.076 375.544 369.335 376.485 370.558 377.472C371.228 378.002 371.945 378.507 372.627 379.048C372.545 378.637 372.474 378.201 372.392 377.778C372.18 376.602 371.981 375.426 371.781 374.191C371.334 371.534 370.91 368.864 370.499 366.206C369.699 360.973 368.97 355.622 367.876 350.495C367.87 350.454 367.878 350.413 367.901 350.378C367.923 350.344 367.958 350.319 367.997 350.308C368.037 350.298 368.08 350.303 368.116 350.322C368.152 350.342 368.18 350.374 368.194 350.413C369.499 355.552 370.946 360.632 372.075 365.818C372.639 368.358 374.627 380.895 374.709 381.777C374.791 382.659 374.874 383.611 374.909 384.54C375.032 385.473 375.032 386.418 374.909 387.351C374.909 387.586 374.58 387.539 374.485 387.351C374.106 386.478 373.837 385.562 373.686 384.622C373.462 383.729 373.251 382.823 373.098 381.918C373.039 381.588 372.992 381.247 372.945 380.918C371.71 380.165 370.593 379.166 369.417 378.331C368.241 377.496 366.9 376.555 365.724 375.567C363.55 373.72 361.981 371.261 361.22 368.511C360.46 365.559 359.968 362.544 359.75 359.503C359.35 355.975 359.056 352.353 358.574 348.802C358.504 348.672 358.821 348.578 358.868 348.79Z" fill="#263238"/>
<path d="M381.095 223.816C372.322 251.899 350.813 311.887 335.795 322.6C324.929 330.362 271.256 323.435 253.887 319.202C237.129 315.109 256.003 267.952 265.929 270.068C281.97 273.479 306.466 278.771 311.287 276.76C314.662 275.349 344.356 242.503 366.818 215.349C382.318 196.627 385.328 210.245 381.095 223.816Z" fill="#D3766A"/>
<path d="M333.984 249.97L365.736 284.827C365.736 284.827 378.331 253.287 384.623 229.661C390.914 206.035 386.975 190.959 369.511 209.21C352.047 227.462 333.984 249.97 333.984 249.97Z" fill="#DBDBDB"/>
<path d="M383.941 198.168L382.647 198.191L384.164 197.803L383.941 198.168Z" fill="#C7C7C7"/>
<path d="M384.552 229.661C378.284 253.287 365.736 284.827 365.736 284.827L344.686 261.719L382.118 201.096C388.386 201.425 388.868 213.562 384.552 229.661Z" fill="#C7C7C7"/>
<path d="M342.04 244.667C344.521 247.019 346.744 249.583 349.013 252.111C351.283 254.639 353.423 257.085 355.611 259.59C360.033 264.659 364.478 269.704 368.547 275.102C368.559 275.116 368.569 275.132 368.575 275.149C368.581 275.167 368.583 275.186 368.582 275.204C368.581 275.223 368.576 275.241 368.568 275.258C368.56 275.274 368.549 275.289 368.535 275.302C368.521 275.314 368.505 275.323 368.487 275.33C368.47 275.336 368.451 275.338 368.433 275.337C368.414 275.336 368.396 275.331 368.379 275.323C368.362 275.315 368.347 275.304 368.335 275.29C363.537 270.586 359.174 265.447 354.764 260.366C352.585 257.85 350.425 255.321 348.284 252.781C346.097 250.194 343.827 247.63 341.875 244.843C341.868 244.82 341.868 244.795 341.874 244.772C341.879 244.748 341.891 244.726 341.908 244.709C341.924 244.691 341.945 244.678 341.968 244.67C341.991 244.663 342.016 244.662 342.04 244.667Z" fill="#263238"/>
<path d="M238.175 314.592C247.066 319.037 268.81 321.013 274.232 319.484C279.653 317.955 284.263 281.087 280.112 277.007C275.96 272.926 244.914 260.272 235 262.401C225.087 264.529 228.967 309.982 238.175 314.592Z" fill="#D3766A"/>
<path d="M275.184 273.926C275.184 273.926 266.482 264.365 262.048 253.863C258.332 245.043 253.816 231.519 248.983 233.33C239.093 237.07 250.382 270.809 250.382 270.809C250.382 270.809 257.756 284.921 267.893 282.052C269.74 281.503 271.4 280.453 272.687 279.019C273.974 277.584 274.838 275.822 275.184 273.926Z" fill="#D3766A"/>
<path d="M250.947 262.248C251.229 267.517 246.901 267.47 246.901 267.47L217.819 271.08C217.819 271.08 195.204 267.963 195.322 261.942C195.545 251.558 242.632 257.885 246.866 257.756C249.136 257.626 250.817 259.896 250.947 262.248Z" fill="#D3766A"/>
<path d="M258.497 289.225C259.402 286.379 259.884 283.24 257.685 279.947C257.591 279.218 258.25 278.935 258.132 278.594C257.359 277.509 256.349 276.612 255.18 275.972C254.733 275.901 254.286 276.724 253.922 276.548C248.924 274.196 244.044 275.372 242.938 275.302C241.597 275.196 237.246 271.209 234.706 267.857C232.284 264.32 231 260.126 231.025 255.839C231.025 255.839 204.436 233.812 181.022 224.98L180.281 225.839L229.05 265.235C231.264 269.745 234.387 273.749 238.222 276.995C238.681 277.395 238.857 277.665 238.799 278.724C238.74 279.782 236.188 287.238 242.691 292.459C249.194 297.681 256.921 294.129 258.497 289.225ZM241.445 284.321C241.475 283.354 241.716 282.404 242.151 281.54C242.587 280.675 243.206 279.916 243.965 279.315C244.725 278.715 245.606 278.288 246.548 278.064C247.49 277.84 248.469 277.824 249.418 278.018C253.746 278.653 256.474 281.546 256.38 285.321C256.203 290.413 251.77 292.177 248.689 291.942C245.314 291.648 241.198 288.508 241.445 284.321Z" fill="#37474F"/>
<path d="M231.837 261.836L223.264 260.59L206.141 246.748L221.7 248.653C227.415 252.863 231.002 255.839 231.002 255.839C230.926 257.871 231.209 259.902 231.837 261.836Z" fill="#263238"/>
<path d="M181.951 225.921C184.126 226.815 186.243 227.815 188.36 228.826C190.477 229.837 192.547 230.931 194.605 232.048C198.721 234.283 202.758 236.658 206.717 239.175C210.657 241.727 214.549 244.349 218.289 247.172C219.218 247.877 220.171 248.559 221.088 249.3L223.84 251.476C224.757 252.205 225.651 252.969 226.545 253.734L229.214 256.015C225.545 253.099 221.876 250.135 218.066 247.466C214.255 244.796 210.41 242.091 206.459 239.586C202.507 237.082 198.497 234.671 194.428 232.378C190.359 230.084 186.196 227.909 181.951 225.921Z" fill="#455A64"/>
<path d="M240.927 255.463C245.137 255.227 250.994 255.921 251.946 256.874C252.899 257.826 256.203 264.635 262.742 265.106C264.836 265.281 266.938 264.865 268.809 263.907C270.679 262.949 272.244 261.486 273.326 259.684C275.219 256.674 276.642 257.532 278.841 257.403C281.789 257.083 284.539 255.768 286.638 253.675C288.696 251.476 286.909 248.971 284.357 251.523C283.405 252.588 282.186 253.38 280.825 253.816C279.465 254.252 278.013 254.317 276.619 254.004C273.608 253.558 272.867 246.69 264.741 245.502C256.615 244.314 252.546 250.77 251.805 251.511C251.064 252.252 250.723 252.287 250.135 252.193C245.166 251.377 240.081 251.597 235.2 252.84L173.531 241.562L173.366 242.738C195.334 254.734 229.367 260.508 229.367 260.508C232.618 257.69 236.651 255.931 240.927 255.463ZM255.992 254.557C256.023 253.589 256.266 252.639 256.703 251.775C257.14 250.91 257.76 250.151 258.52 249.551C259.281 248.95 260.163 248.523 261.105 248.299C262.048 248.075 263.028 248.06 263.977 248.254C268.304 248.889 271.033 251.782 270.939 255.557C270.762 260.649 266.329 262.413 263.248 262.166C259.896 261.907 255.757 258.72 255.992 254.557Z" fill="#455A64"/>
<path d="M223.993 254.498C223.891 254.162 223.691 253.863 223.42 253.64C223.148 253.417 222.816 253.279 222.466 253.245C222.116 253.211 221.764 253.281 221.454 253.447C221.144 253.613 220.89 253.868 220.725 254.178C220.56 254.489 220.491 254.841 220.526 255.191C220.562 255.541 220.7 255.872 220.924 256.144C221.148 256.415 221.448 256.613 221.785 256.714C222.122 256.814 222.481 256.813 222.817 256.709C223.265 256.571 223.64 256.26 223.861 255.846C224.081 255.432 224.129 254.947 223.993 254.498Z" fill="#C7C7C7"/>
<path d="M223.499 254.639C223.401 254.321 223.182 254.055 222.89 253.896C222.597 253.738 222.254 253.701 221.935 253.793C221.696 253.863 221.484 254.003 221.325 254.195C221.166 254.387 221.067 254.621 221.041 254.869C221.016 255.116 221.064 255.366 221.18 255.586C221.296 255.806 221.475 255.987 221.694 256.105C221.913 256.224 222.162 256.275 222.41 256.252C222.658 256.229 222.893 256.132 223.086 255.976C223.279 255.819 223.422 255.608 223.495 255.37C223.569 255.132 223.57 254.878 223.499 254.639Z" fill="#EBEBEB"/>
<path d="M174.213 242.362C176.4 243.326 178.603 244.247 180.822 245.125C183.04 246.004 185.263 246.862 187.49 247.701C191.958 249.371 196.462 250.947 201.014 252.405C203.271 253.158 205.565 253.816 207.846 254.522C210.128 255.227 212.433 255.839 214.737 256.427L218.265 257.332L221.793 258.156L223.534 258.567L225.286 258.943L228.814 259.696C224.11 258.885 219.406 257.967 214.796 256.78L213.056 256.356L211.315 255.886L207.87 254.945C205.576 254.251 203.283 253.604 201.002 252.864C196.462 251.382 191.947 249.818 187.501 248.065C183.056 246.313 178.505 244.455 174.213 242.362Z" fill="#263238"/>
<path d="M273.161 258.72C272.258 260.55 270.876 262.103 269.163 263.212C267.422 264.326 265.379 264.872 263.315 264.775C261.25 264.678 259.267 263.943 257.638 262.671C256.024 261.408 254.64 259.877 253.546 258.144C253.263 257.744 252.993 257.273 252.711 256.968C252.378 256.635 251.976 256.378 251.535 256.215C250.61 255.858 249.647 255.61 248.665 255.474C246.683 255.194 244.682 255.06 242.679 255.074C240.688 255.065 238.706 255.354 236.799 255.933C234.849 256.428 233.002 257.264 231.343 258.402C232.131 257.77 232.992 257.233 233.907 256.803C234.823 256.376 235.766 256.007 236.729 255.698C238.663 255.067 240.681 254.73 242.715 254.698C244.743 254.641 246.773 254.755 248.783 255.039C249.8 255.169 250.799 255.418 251.758 255.78C252.267 255.968 252.729 256.265 253.111 256.65C253.475 257.085 253.699 257.497 253.993 257.92C255.045 259.614 256.382 261.114 257.944 262.354C259.506 263.586 261.404 264.316 263.389 264.447C265.386 264.566 267.373 264.082 269.092 263.059C270.804 261.992 272.206 260.496 273.161 258.72Z" fill="#263238"/>
<path d="M246.96 267.41C246.96 267.41 257.097 268.692 258.214 274.466C259.285 279.97 250.97 280.605 250.37 280.652C250.911 280.723 260.19 282.146 260.731 288.002C261.284 294.094 252.828 293.294 252.287 293.235C252.769 293.459 259.12 296.575 258.52 301.115C257.473 308.923 241.009 301.42 235.141 303.902C235.141 303.902 238.211 314.333 238.234 314.65C238.234 314.65 222.417 307.83 219.512 299.727C219.071 298.553 219.044 297.264 219.435 296.073C219.827 294.882 220.613 293.86 221.664 293.177C221.664 293.177 216.325 291.542 215.784 286.944C215.49 284.592 219.018 282.028 219.018 282.028C219.018 282.028 214.796 280.535 214.549 276.419C214.466 275.269 214.737 274.122 215.326 273.132C215.914 272.141 216.793 271.355 217.842 270.88C226.098 266.093 246.96 267.41 246.96 267.41Z" fill="#D3766A"/>
<path d="M218.336 270.609C218.242 270.609 218.195 270.504 218.336 270.468C227.121 266.682 237.94 265.223 247.325 267.328C247.63 267.399 248.642 268.504 248.301 268.41C239.492 267.011 228.144 268.128 218.336 270.609Z" fill="#263238"/>
<path d="M218.736 281.934C218.63 281.934 218.583 281.781 218.736 281.746C227.803 277.901 240.033 276.584 250.559 280.288C250.923 280.417 251.123 280.888 250.7 280.77C243.514 278.841 227.627 279.653 218.736 281.934Z" fill="#263238"/>
<path d="M252.84 293.694C242.597 290.531 232.378 290.978 221.935 292.942C221.805 292.942 221.782 292.765 221.935 292.718C226.78 290.366 233.565 289.802 238.869 289.813C243.801 289.736 248.666 290.953 252.981 293.341C253.157 293.424 253.087 293.753 252.84 293.694Z" fill="#263238"/>
<path d="M247.031 267.293C247.407 267.375 246.49 268.116 246.866 268.21C250.841 269.269 257.862 271.515 257.732 274.949C257.626 277.701 253.851 279.465 252.134 279.571L247.83 279.841L251.97 281.088C253.813 281.619 255.557 282.449 257.132 283.545C257.891 284.014 258.543 284.637 259.043 285.375C259.544 286.113 259.883 286.948 260.037 287.826C260.175 288.641 260.028 289.479 259.622 290.199C259.215 290.918 258.572 291.476 257.803 291.777C256.065 292.425 254.19 292.615 252.358 292.33L247.278 291.73L251.864 293.953C253.137 294.58 254.323 295.371 255.392 296.305C256.446 297.136 257.234 298.255 257.662 299.527C257.824 300.112 257.821 300.731 257.653 301.314C257.485 301.898 257.158 302.423 256.709 302.832C255.569 303.581 254.239 303.989 252.875 304.008C249.915 304.119 246.95 303.997 244.008 303.643C242.526 303.514 241.021 303.385 239.516 303.326C238.01 303.187 236.491 303.368 235.059 303.855C236.515 303.528 238.021 303.488 239.492 303.737C240.962 303.914 242.444 304.149 243.914 304.396C246.895 304.964 249.923 305.247 252.958 305.243C254.601 305.273 256.216 304.819 257.603 303.937C258.308 303.379 258.834 302.625 259.114 301.769C259.394 300.914 259.417 299.995 259.179 299.127C258.706 297.527 257.764 296.105 256.474 295.047C255.289 294.002 253.972 293.116 252.558 292.413L252.064 294.035C254.227 294.405 256.45 294.198 258.508 293.436C259.636 292.981 260.571 292.15 261.154 291.084C261.692 290.016 261.897 288.812 261.742 287.626C261.546 286.516 261.116 285.459 260.481 284.527C259.847 283.595 259.022 282.807 258.061 282.217C256.313 281.028 254.377 280.141 252.334 279.594L252.17 281.111C254.345 280.899 258.779 279.394 259.484 275.149C259.602 269.481 248.994 267.517 247.031 267.293Z" fill="#263238"/>
<path d="M462.697 363.549C462.38 363.866 332.326 354.964 331.232 353.553C329.715 351.553 370.875 219.395 381.189 199.979C385.587 191.747 406.614 190.512 414.928 198.332C435.743 217.913 450.208 281.193 453.266 300.174C458.323 331.444 463.862 362.408 462.697 363.549Z" fill="#DBDBDB"/>
<path d="M427.182 306.842C428.287 311.17 457.029 319.531 457.676 319.872C458.322 320.213 459.204 325.364 459.204 325.364C459.204 325.364 431.051 326.258 429.569 326.375C428.087 326.493 441.094 494.543 440.377 496.272C439.659 498.001 375.955 495.096 356.01 492.156C336.065 489.216 294.412 482.913 294.118 481.207C293.824 479.502 333.702 336.712 340.558 312.099C347.414 287.485 363.384 245.196 364.195 245.361C365.219 245.561 398.852 246.172 402.415 247.007C403.768 247.324 426.077 302.514 427.182 306.842Z" fill="#263238"/>
<path d="M362.867 250.876C362.867 250.876 376.132 207.023 377.696 203.836C379.037 201.505 380.776 199.427 382.835 197.697L367.547 251.041L362.867 250.876Z" fill="#F1A636"/>
<path d="M367.206 248.724C367.124 248.954 366.977 249.156 366.783 249.306C366.59 249.455 366.357 249.546 366.114 249.568C365.87 249.59 365.625 249.542 365.408 249.429C365.191 249.316 365.011 249.144 364.889 248.932C364.767 248.72 364.708 248.477 364.719 248.233C364.73 247.989 364.811 247.753 364.952 247.553C365.093 247.353 365.288 247.197 365.515 247.105C365.741 247.012 365.989 246.987 366.23 247.031C366.583 247.127 366.884 247.359 367.067 247.676C367.25 247.994 367.3 248.37 367.206 248.724Z" fill="#263238"/>
<path d="M393.725 252.264L400.781 252.828C400.781 252.828 407.99 218.136 409.377 211.304C410.446 206.549 411.941 201.901 413.846 197.415C412.595 195.951 410.833 195.017 408.919 194.804C408.919 194.804 403.321 209.845 401.428 218.324C399.746 225.674 393.725 252.264 393.725 252.264Z" fill="#F1A636"/>
<path d="M399.664 249.371C399.661 249.705 399.56 250.032 399.373 250.308C399.185 250.585 398.92 250.801 398.61 250.927C398.301 251.053 397.96 251.085 397.633 251.019C397.305 250.952 397.004 250.79 396.769 250.552C396.533 250.315 396.373 250.013 396.309 249.685C396.244 249.357 396.278 249.017 396.407 248.708C396.535 248.4 396.752 248.136 397.031 247.95C397.309 247.765 397.636 247.666 397.97 247.666C398.194 247.666 398.415 247.71 398.621 247.796C398.827 247.882 399.014 248.007 399.172 248.166C399.329 248.324 399.454 248.512 399.538 248.719C399.623 248.926 399.665 249.148 399.664 249.371Z" fill="#263238"/>
<path d="M379.624 346.844L400.855 346.3L400.565 335.002L379.334 335.547L379.624 346.844Z" fill="#455A64"/>
<path d="M379.048 346.826L379.189 352.235L387.386 360.173L393.842 360.009L401.616 351.659L401.475 346.25L379.048 346.826Z" fill="#DBDBDB"/>
<path d="M390.526 413.07L393.407 412.999L393.843 360.009L387.386 360.173L390.526 413.07Z" fill="#DBDBDB"/>
<path d="M357.939 333.819L374.297 331.75L373.921 329.55L357.833 333.196L357.939 333.819Z" fill="#F1A636"/>
<path d="M358.316 336.018L374.674 333.937L374.297 331.75L358.21 335.395L358.316 336.018Z" fill="#F1A636"/>
<path d="M358.692 338.206L375.05 336.136L374.674 333.937L358.586 337.582L358.692 338.206Z" fill="#F1A636"/>
<path d="M359.068 340.405L375.426 338.324L375.05 336.136L358.962 339.782L359.068 340.405Z" fill="#F1A636"/>
<path d="M359.444 342.592L375.791 340.523L375.426 338.324L359.339 341.981L359.444 342.592Z" fill="#F1A636"/>
<path d="M359.821 344.791L376.167 342.722L375.791 340.523L359.715 344.168L359.821 344.791Z" fill="#F1A636"/>
<path d="M360.197 346.979L376.543 344.909L376.167 342.722L360.091 346.367L360.197 346.979Z" fill="#F1A636"/>
<path d="M360.573 349.178L376.92 347.108L376.543 344.909L360.467 348.555L360.573 349.178Z" fill="#F1A636"/>
<path d="M360.95 351.377L377.296 349.295L376.92 347.108L360.844 350.754L360.95 351.377Z" fill="#F1A636"/>
<path d="M361.326 353.564L377.672 351.495L377.296 349.295L361.22 352.941L361.326 353.564Z" fill="#F1A636"/>
<path d="M361.702 355.763L378.049 353.682L377.673 351.495L361.597 355.14L361.702 355.763Z" fill="#F1A636"/>
<path d="M362.067 357.951L378.425 355.881L378.049 353.682L361.973 357.339L362.067 357.951Z" fill="#F1A636"/>
<path d="M362.443 360.15L378.801 358.08L378.425 355.881L362.349 359.527L362.443 360.15Z" fill="#F1A636"/>
<path d="M362.82 362.337L379.178 360.268L378.801 358.08L362.714 361.726L362.82 362.337Z" fill="#F1A636"/>
<path d="M363.196 364.537L379.554 362.467L379.178 360.268L363.09 363.913L363.196 364.537Z" fill="#F1A636"/>
<path d="M363.572 366.736L379.93 364.654L379.554 362.467L363.466 366.112L363.572 366.736Z" fill="#F1A636"/>
<path d="M363.948 368.923L380.307 366.853L379.93 364.654L363.843 368.3L363.948 368.923Z" fill="#F1A636"/>
<path d="M364.325 371.122L380.683 369.041L380.307 366.853L364.219 370.499L364.325 371.122Z" fill="#F1A636"/>
<path d="M385.187 407.131L387.962 406.661L376.755 329.068L371.957 329.891L385.187 407.131Z" fill="#F1A636"/>
<path d="M400.271 342.979L421.288 346.044L422.919 334.861L401.903 331.796L400.271 342.979Z" fill="#455A64"/>
<path d="M399.699 342.863L398.911 348.214L405.638 357.433L412.035 358.362L421.114 351.459L421.89 346.109L399.699 342.863Z" fill="#F1A636"/>
<path d="M399.77 410.095L402.615 410.506L412.035 358.363L405.638 357.434L399.77 410.095Z" fill="#F1A636"/>
<path d="M415.387 371.804C415.387 371.804 396.994 376.508 371.463 371.875C371.463 371.875 369.558 410.177 370.64 412.341C371.722 414.505 386.563 420.573 391.973 421.137C397.382 421.702 414.74 416.68 417.245 413.411C419.75 410.142 415.387 371.804 415.387 371.804Z" fill="#37474F"/>
<path d="M427.147 236.293C427.147 260.543 415.892 325.046 397.241 333.819C380.706 341.592 339.864 308.853 326.681 300.891C320.142 296.963 343.674 245.784 350.036 250.911C358.574 257.779 380.706 277.806 382.87 276.395C385.222 274.843 391.749 259.296 408.284 225.098C423.854 192.864 427.147 221.088 427.147 236.293Z" fill="#D3766A"/>
<path d="M243.432 228.65C242.908 227.687 242.197 226.838 241.341 226.153C240.485 225.469 239.5 224.962 238.446 224.663C237.199 224.327 235.915 224.149 234.624 224.134C238.305 223.464 240.657 220.359 242.174 217.831C243.691 215.302 241.797 210.081 241.797 210.081C241.797 210.081 246.501 215.02 245.69 218.489C244.878 221.958 240.986 224.557 240.986 224.557C242.751 224.743 244.53 224.377 246.078 223.511C248.112 222.111 247.948 217.337 247.948 217.337C247.948 217.337 250.417 226.886 243.432 228.65Z" fill="#263238"/>
<path d="M293.471 236.376L293.294 236.693L286.238 248.583L286.015 248.453L292.46 236.258L291.954 235.976L284.957 247.865L284.733 247.736L291.178 235.553L290.672 235.27L283.687 247.148L283.463 247.03L289.896 234.835L289.402 234.553L282.405 246.431L282.181 246.313L288.614 234.118L288.108 233.836L281.182 245.784L280.946 245.666L287.403 233.483L286.885 233.189L279.888 245.031L279.665 244.902L286.109 232.718L285.592 232.424L278.606 244.314L278.383 244.184L284.827 232.001L284.322 231.719L277.324 243.596L277.101 243.467L283.545 231.284L283.04 231.002L276.043 242.879L275.819 242.762L282.24 230.566L281.734 230.284L274.749 242.174L274.514 242.044L280.958 229.861L280.453 229.579L273.467 241.456L273.232 241.327L279.676 229.143L279.171 228.861L272.174 240.739L271.95 240.609L278.406 228.426L277.889 228.144L270.903 240.033L270.68 239.904L277.113 227.709L276.619 227.426L269.657 239.316L269.433 239.186L275.866 226.968L275.36 226.697L268.375 238.575L268.152 238.446L274.596 226.262L274.079 225.98L267.105 237.858L266.87 237.74L273.314 225.545L272.797 225.263L265.776 237.164L265.553 237.046L271.997 224.851L271.491 224.569L264.494 236.458L264.271 236.329L270.715 224.145L270.21 223.851L263.154 235.741L262.93 235.611L269.469 223.44L268.963 223.146L261.978 235.035L261.754 234.906L268.187 222.722L267.681 222.44L260.696 234.318L260.461 234.2L266.952 221.993L266.446 221.711L259.449 233.589L259.226 233.471L265.682 221.288L265.165 220.994L258.132 232.848L257.909 232.718L264.341 220.535L263.836 220.241L256.85 232.13L256.627 232.001L263.06 219.912L262.566 219.63L255.51 231.507L255.286 231.378L261.731 219.194L261.213 218.912L254.228 230.79L253.993 230.672L260.449 218.477L259.931 218.195L252.946 230.084L252.722 229.955L259.167 217.76L258.661 217.489L251.723 229.32L251.499 229.19L257.944 217.007L257.438 216.725L250.488 228.591L250.265 228.461L256.709 216.278L256.203 215.996L249.218 227.885L248.995 227.756L255.427 215.561L254.922 215.278L247.936 227.168L247.701 227.038L254.145 214.843L253.64 214.561L246.654 226.45L246.419 226.321L252.84 214.138L252.323 213.855L245.325 225.792L245.102 225.674L251.546 213.479L251.029 213.197L244.044 225.074L243.82 224.957L250.253 212.762L249.759 212.48L242.762 224.357L242.538 224.24L248.983 212.056L248.465 211.762L241.48 223.652L241.256 223.522L247.701 211.339L247.184 211.045L240.21 222.934L239.975 222.805L246.419 210.621L245.913 210.339L238.857 222.217L238.634 222.099L245.078 209.904L244.573 209.622L237.517 221.499L237.293 221.382L243.738 209.199L243.232 208.905L236.376 220.735L236.153 220.606L242.585 208.422L242.08 208.14L235.094 220.018L234.871 219.888L241.304 207.705L240.798 207.423L233.812 219.3L233.577 219.171L240.022 206.976L239.504 206.694L232.519 218.583L232.295 218.454L238.728 206.27L238.211 205.988L231.225 217.877L231.002 217.748L237.434 205.553L236.941 205.282L229.885 217.16L229.661 217.031L236.106 204.847L235.6 204.565L228.544 216.443L228.32 216.313L234.765 204.13L234.248 203.848L227.274 215.725L227.039 215.608L233.612 203.448L233.107 203.166L226.11 215.055L225.886 214.926L232.331 202.731L231.825 202.448L224.828 214.338L224.604 214.208L231.049 202.025L230.543 201.731L223.558 213.62L223.334 213.503L229.767 201.308L229.273 201.025L222.264 212.856L222.041 212.738L228.473 200.543L227.968 200.261L220.982 212.139L220.747 212.021L227.203 199.838L226.686 199.544L219.7 211.433L219.477 211.304L225.921 199.12L225.404 198.826L218.419 210.716L218.195 210.586L224.616 198.415L224.792 198.097C225.294 197.195 225.968 196.4 226.778 195.759C227.587 195.118 228.514 194.643 229.508 194.361C230.501 194.079 231.54 193.996 232.565 194.116C233.59 194.237 234.582 194.558 235.482 195.063L290.472 225.71C292.282 226.728 293.615 228.423 294.177 230.423C294.739 232.422 294.485 234.563 293.471 236.376Z" fill="#F1A636"/>
<path d="M353.647 254.11C353.647 254.11 337.853 240.222 327.104 231.672C321.107 226.874 310.088 219.559 304.067 218.054C295.058 215.796 255.968 212.174 254.875 221.582C253.875 230.155 287.861 229.05 287.861 229.05C287.861 229.05 253.475 227.133 254.169 237.658C254.863 248.183 293.106 241.844 293.106 241.844C293.106 241.844 257.72 240.668 260.178 251.405C262.013 259.52 296.975 255.721 296.975 255.721C296.975 255.721 266.552 254.922 268.093 263.354C269.786 272.667 302.267 271.186 302.267 271.186C309.782 291.966 321.154 299.574 331.021 302.608C333.314 303.267 353.647 254.11 353.647 254.11Z" fill="#D3766A"/>
<path d="M298.175 228.85C272.95 225.51 259.555 231.59 259.943 231.496C269.116 229.391 283.628 229.202 287.673 229.214C291.719 229.226 294.13 229.003 298.175 229.014C298.281 229.014 298.269 228.873 298.175 228.85Z" fill="#263238"/>
<path d="M300.021 243.526C288.191 241.174 274.149 242.35 269.351 243.526C268.975 243.62 269.104 243.749 269.504 243.738C274.655 243.62 294.894 243.502 300.08 243.62C300.104 243.655 300.104 243.538 300.021 243.526Z" fill="#263238"/>
<path d="M302.467 256.051C291.73 254.733 286.779 255.227 278.724 256.756C278.347 256.838 278.547 257.05 278.959 257.027C286.838 256.639 293.071 256.286 302.479 256.321C302.597 256.368 302.632 256.062 302.467 256.051Z" fill="#263238"/>
<path d="M304.678 277.089C305.599 278.974 306.628 280.803 307.759 282.569C308.862 284.341 310.063 286.049 311.358 287.685C313.896 290.977 316.862 293.916 320.178 296.422C320.995 297.055 321.847 297.64 322.73 298.175L324.047 298.986C324.506 299.245 324.976 299.457 325.435 299.692L326.811 300.397C327.293 300.67 327.76 300.968 328.21 301.291C329.092 301.879 329.951 302.467 330.809 303.09C334.243 305.513 337.653 307.971 340.993 310.546C339.182 309.464 337.465 308.335 335.619 307.23L330.303 303.843L327.646 302.15C327.234 301.891 326.717 301.55 326.375 301.385L324.929 300.691C324.459 300.456 323.965 300.233 323.494 299.986L322.13 299.151C321.208 298.611 320.32 298.014 319.472 297.363C316.073 294.793 313.094 291.71 310.641 288.226C308.149 284.806 306.143 281.059 304.678 277.089Z" fill="#263238"/>
<path d="M385.528 269.069L425.324 294.271C425.324 294.271 429.099 260.508 428.852 236.07C428.605 211.633 420.808 198.133 408.86 220.359C396.912 242.585 385.528 269.069 385.528 269.069Z" fill="#DBDBDB"/>
<path d="M390.891 262.248C393.948 263.73 396.841 265.564 399.746 267.317C402.651 269.069 405.438 270.762 408.26 272.503C413.987 276.031 419.726 279.559 425.159 283.522C425.186 283.544 425.204 283.575 425.209 283.609C425.215 283.644 425.207 283.679 425.188 283.708C425.169 283.737 425.14 283.758 425.107 283.767C425.073 283.776 425.037 283.773 425.006 283.757C419.032 280.652 413.352 277.066 407.637 273.502C404.815 271.746 402.008 269.974 399.217 268.187C396.359 266.352 393.431 264.565 390.75 262.495C390.717 262.476 390.693 262.445 390.683 262.409C390.673 262.372 390.678 262.334 390.697 262.301C390.715 262.268 390.746 262.244 390.783 262.234C390.819 262.224 390.858 262.229 390.891 262.248Z" fill="#263238"/>
<path d="M426.018 283.345C426.265 279.817 426.57 276.372 426.9 272.902C427.57 265.846 427.97 258.79 428.746 251.734C428.746 251.64 428.899 251.64 428.899 251.734C428.899 255.956 428.664 260.166 428.393 264.388C428.84 262.46 429.287 260.531 429.793 258.626C429.793 258.508 430.016 258.532 429.993 258.626C429.781 260.037 429.522 261.436 429.181 262.824C428.899 263.941 428.593 265.059 428.287 266.176C428.138 268.41 427.989 270.637 427.84 272.855C427.617 276.383 427.253 279.817 426.97 283.298C426.817 285.192 425.794 292.647 425.618 293.882C425.618 294.059 425.324 294.047 425.336 293.882C425.477 292.024 425.888 285.121 426.018 283.345Z" fill="#263238"/>
<path d="M389.75 218.912C396.441 218.501 405.414 204.495 407.308 195.487C407.437 194.863 404.956 189.512 402.192 182.88C400.557 178.846 398.817 174.307 397.488 170.061C397.229 169.191 394.736 171.684 394.736 171.684L389.644 174.683L372.792 184.632C372.792 184.632 378.096 192.746 380.295 200.167C380.467 200.754 380.581 201.357 380.636 201.966C380.636 202.049 380.636 202.154 380.636 202.272C381.2 205.718 383.27 219.301 389.75 218.912Z" fill="#D3766A"/>
<path d="M380.683 201.931C380.683 202.013 380.683 202.119 380.683 202.237C381.629 202.086 382.561 201.858 383.47 201.555C401.298 195.675 396.641 172.225 396.641 172.225L389.644 174.683L372.792 184.632C372.792 184.632 378.096 192.746 380.295 200.167C380.48 200.741 380.61 201.332 380.683 201.931Z" fill="#263238"/>
<path d="M389.844 136.204C392.913 138.274 401.757 136.522 404.815 131.618C409.013 124.88 400.111 114.625 392.278 118.964C384.446 123.304 387.48 134.617 389.844 136.204Z" fill="#263238"/>
<path d="M402.251 120.364C404.131 122.169 405.537 124.411 406.343 126.89C406.716 128.055 406.721 129.305 406.36 130.472C405.998 131.64 405.286 132.668 404.321 133.417C403.337 134.22 402.254 134.892 401.098 135.416C399.952 135.979 398.745 136.405 397.5 136.687C394.957 137.297 392.29 137.129 389.844 136.204C392.191 137.625 394.972 138.151 397.676 137.686C399.036 137.473 400.361 137.078 401.616 136.51C402.887 135.967 404.075 135.246 405.144 134.37C406.258 133.451 407.076 132.224 407.496 130.842C407.857 129.441 407.779 127.963 407.272 126.608C406.278 124.061 404.525 121.881 402.251 120.364Z" fill="#263238"/>
<path d="M393.443 140.403C398.723 149.27 400.499 178.211 395.183 186.067C387.492 197.451 371.522 202.272 361.032 192.276C350.824 182.574 349.272 144.813 355.446 137.322C364.56 126.303 385.634 127.302 393.443 140.403Z" fill="#D3766A"/>
<path d="M370.593 165.087C370.593 165.016 370.758 165.169 370.758 165.252C370.816 167.204 371.228 169.438 373.027 169.956C373.086 169.956 373.086 170.073 373.027 170.061C370.852 169.909 370.346 166.992 370.593 165.087Z" fill="#263238"/>
<path d="M372.204 162.947C375.32 162.5 375.979 168.768 373.086 169.18C370.193 169.591 369.581 163.311 372.204 162.947Z" fill="#263238"/>
<path d="M359.538 165.887C359.538 165.816 359.397 165.992 359.397 166.075C359.668 168.003 359.644 170.273 357.951 171.096C357.951 171.096 357.951 171.226 357.951 171.202C360.091 170.673 360.091 167.674 359.538 165.887Z" fill="#263238"/>
<path d="M357.587 164.04C354.435 164.123 354.846 170.414 357.763 170.332C360.679 170.249 360.233 163.958 357.587 164.04Z" fill="#263238"/>
<path d="M374.38 159.818C373.498 159.689 372.71 159.43 371.851 159.219C370.938 159.123 370.08 158.735 369.405 158.113C369.226 157.881 369.129 157.595 369.129 157.302C369.129 157.008 369.226 156.723 369.405 156.49C369.84 156.092 370.374 155.818 370.951 155.696C371.528 155.574 372.127 155.609 372.686 155.796C373.887 155.995 374.972 156.632 375.732 157.584C375.893 157.81 375.984 158.079 375.994 158.356C376.005 158.633 375.933 158.908 375.79 159.145C375.646 159.383 375.436 159.573 375.185 159.693C374.935 159.812 374.655 159.856 374.38 159.818Z" fill="#263238"/>
<path d="M354.835 161.112C355.681 160.877 356.434 160.524 357.257 160.206C358.154 160.004 358.96 159.512 359.55 158.807C359.692 158.549 359.745 158.251 359.7 157.96C359.655 157.668 359.516 157.4 359.304 157.196C358.822 156.856 358.259 156.651 357.672 156.602C357.085 156.552 356.495 156.66 355.964 156.914C354.809 157.268 353.828 158.039 353.212 159.078C353.084 159.322 353.031 159.598 353.057 159.872C353.084 160.147 353.189 160.408 353.361 160.623C353.533 160.839 353.764 160.999 354.025 161.086C354.287 161.173 354.568 161.182 354.835 161.112Z" fill="#263238"/>
<path d="M374.944 182.115C374.533 182.621 374.133 183.291 373.427 183.432C372.707 183.496 371.981 183.404 371.299 183.162C371.285 183.157 371.269 183.157 371.255 183.161C371.241 183.165 371.228 183.173 371.219 183.185C371.21 183.197 371.205 183.211 371.204 183.226C371.204 183.241 371.208 183.255 371.216 183.268C371.534 183.62 371.941 183.88 372.395 184.02C372.848 184.161 373.33 184.177 373.792 184.068C374.178 183.923 374.513 183.667 374.754 183.332C374.995 182.997 375.131 182.598 375.144 182.186C375.144 182.068 375.003 182.045 374.944 182.115Z" fill="#263238"/>
<path d="M372.298 176.518C371.885 177.336 371.307 178.061 370.601 178.646C369.895 179.231 369.075 179.663 368.194 179.916C367.431 180.148 366.639 180.271 365.842 180.281C365.69 180.299 365.536 180.299 365.383 180.281H364.948C364.843 180.268 364.744 180.223 364.666 180.151C364.588 180.079 364.535 179.985 364.513 179.881C364.507 179.815 364.507 179.748 364.513 179.681V179.505C364.313 178.011 364.219 175.73 364.219 175.73C363.702 176.059 361.044 177.6 361.009 176.812C360.715 170.309 360.397 163.064 361.479 156.526C361.489 156.485 361.513 156.449 361.546 156.424C361.579 156.398 361.62 156.384 361.661 156.384C361.703 156.384 361.744 156.398 361.777 156.424C361.81 156.449 361.833 156.485 361.844 156.526C362.373 162.77 361.844 169.074 362.22 175.342C363.163 174.777 364.18 174.345 365.242 174.06C365.466 174.06 365.348 178.493 365.489 179.152C365.483 179.175 365.483 179.199 365.489 179.223C368.029 179.281 369.84 178.329 372.11 176.388C372.228 176.236 372.392 176.4 372.298 176.518Z" fill="#263238"/>
<path d="M366.63 179.422C367.557 180.408 368.724 181.137 370.017 181.539C370.731 181.731 371.486 181.698 372.181 181.445C373.686 180.869 373.58 179.446 373.168 178.258C372.94 177.63 372.641 177.03 372.275 176.47C370.756 178.031 368.778 179.065 366.63 179.422Z" fill="#263238"/>
<path d="M370.017 181.539C370.731 181.731 371.486 181.698 372.181 181.445C373.686 180.869 373.58 179.446 373.168 178.258C372.351 178.373 371.596 178.758 371.025 179.353C370.453 179.948 370.098 180.718 370.017 181.539Z" fill="#FF98B9"/>
<path opacity="0.3" d="M398.347 170.285C397.7 169.591 388.562 159.63 385.034 154.279C383.094 151.339 383.082 138.991 383.082 138.65C383.348 136.515 384.396 134.555 386.022 133.147C389.072 134.895 391.626 137.392 393.443 140.403C396.724 145.906 398.664 159.16 398.347 170.285Z" fill="#263238"/>
<path d="M393.078 164.428C393.078 164.428 397.347 154.02 401.933 155.349C406.52 156.678 404.72 170.778 400.334 173.648C399.794 174.052 399.177 174.342 398.522 174.502C397.867 174.661 397.186 174.687 396.52 174.577C395.855 174.467 395.218 174.224 394.649 173.863C394.08 173.501 393.589 173.028 393.207 172.472L393.078 164.428Z" fill="#D3766A"/>
<path d="M401.322 159.372C401.392 159.372 401.428 159.454 401.322 159.501C398.264 161.618 397.206 165.134 396.688 168.638C397.406 167.168 398.617 166.181 400.546 167.004C400.651 167.004 400.546 167.204 400.546 167.204C399.914 167.149 399.281 167.292 398.733 167.612C398.185 167.932 397.751 168.414 397.488 168.991C397.056 169.961 396.729 170.974 396.512 172.014C396.418 172.355 395.842 172.308 395.877 171.943C395.877 171.943 395.877 171.884 395.877 171.861C394.83 167.592 396.818 160.842 401.322 159.372Z" fill="#263238"/>
<path d="M389.491 133.464C393.231 136.04 383.058 142.214 381.377 142.755C379.695 143.296 381.518 139.332 381.518 139.332C381.518 139.332 376.59 146.6 372.827 148.399C370.165 149.553 367.341 150.291 364.454 150.587L369.158 144.507C369.158 144.507 359.75 153.586 353.705 155.232C350.079 156.21 346.845 158.289 344.45 161.183C344.45 161.183 341.887 147.223 345.015 142.508C347.084 139.453 349.548 136.686 352.341 134.276L344.65 136.498C344.65 136.498 350.354 131.43 354.705 129.901C359.056 128.372 368.57 128.043 368.57 128.043L362.22 125.691C362.22 125.691 367.747 123.551 372.192 124.28C376.168 125.169 380.059 126.401 383.823 127.961L379.119 124.832C379.119 124.832 383.176 124.385 385.328 126.244C387.48 128.102 389.491 133.464 389.491 133.464Z" fill="#263238"/>
<path d="M380.342 177.576C379.492 176.546 378.44 175.702 377.25 175.095C376.061 174.488 374.76 174.132 373.427 174.048C370.446 173.638 367.411 174.117 364.701 175.424C361.173 177.211 360.538 179.799 360.926 184.22C361.314 188.642 363.161 195.275 364.854 196.651C366.548 198.027 373.086 200.179 377.508 199.238C381.036 198.434 384.258 196.629 386.786 194.04C388.503 191.958 382.106 179.763 380.342 177.576ZM378.319 185.537C376.838 186.759 375.062 187.57 373.168 187.889C370.687 188.395 367.206 188.219 366.265 187.513C365.325 186.808 364.196 182.703 363.984 180.457C363.772 178.211 364.101 176.835 366.077 175.918C367.591 175.238 369.265 174.993 370.91 175.212C371.639 175.251 372.352 175.433 373.01 175.748C373.668 176.063 374.257 176.504 374.744 177.047C375.72 178.105 379.272 184.408 378.319 185.502V185.537Z" fill="#263238"/>
<path d="M380.177 200.049L388.609 215.643L406.555 192.652L413.058 198.626C413.058 198.626 396.947 233.742 396.653 232.272L388.315 218.948L379.707 229.861L377.696 205.165L380.177 200.049Z" fill="#DBDBDB"/>
<path d="M378.025 217.713C377.825 213.62 377.508 209.481 377.508 205.424C377.508 205.271 377.719 205.188 377.778 205.353C379.036 209.175 379.707 224.816 380.13 228.532C380.483 228.062 388.15 218.877 388.256 218.995C389.962 221.064 396.077 230.755 396.488 231.66C399.028 226.086 408.907 205.788 412.059 200.379C412.074 200.344 412.103 200.318 412.138 200.304C412.173 200.291 412.212 200.292 412.247 200.308C412.281 200.324 412.308 200.352 412.321 200.388C412.334 200.423 412.333 200.462 412.317 200.496C410.177 206.376 397.159 233.683 396.912 233.636C393.752 229.087 390.832 224.377 388.162 219.524C386.916 221.476 379.283 231.719 379.189 231.119C378.56 226.675 378.171 222.199 378.025 217.713Z" fill="#263238"/>
<path d="M355.046 497.448H163.146C162.076 496.472 161.088 495.472 160.159 494.461C149.905 483.289 147.4 470.353 147.917 459.181C148.411 449.884 150.712 440.773 154.691 432.356H155.961H157.419H158.407H159.583L223.557 430.451H224.275H224.757L231.519 430.251H231.931L234.377 430.181L237.34 430.087H238.728C238.728 430.087 238.646 431.545 238.599 433.697C238.599 434.567 238.599 435.555 238.599 436.613C238.599 437.672 238.599 438.613 238.669 439.659C238.725 441.988 238.968 444.308 239.398 446.598C239.548 447.962 240.115 449.248 241.021 450.279C241.35 450.549 244.008 450.984 248.312 451.643L249.806 451.866L251.429 452.113L258.085 453.148L258.814 453.254H259.061C263.048 453.889 267.516 454.642 272.291 455.524L273.984 455.841C275.56 456.135 277.171 456.453 278.806 456.782L279.547 456.923C282.31 457.487 285.145 458.099 288.002 458.734C289.178 458.993 290.354 459.251 291.53 459.534C295.141 460.38 298.798 461.309 302.432 462.309C326.41 468.953 349.378 479.008 354.329 494.202C354.641 495.267 354.88 496.351 355.046 497.448Z" fill="#37474F"/>
<path d="M183.621 497.448H180.763C176.506 495.33 172.647 492.494 169.356 489.063C164.548 483.867 161.197 477.494 159.642 470.588C159.477 469.953 159.336 469.306 159.207 468.659L158.96 467.354C158.468 464.485 158.177 461.585 158.09 458.675C158.001 456.029 158.049 453.379 158.231 450.737C158.481 446.914 158.932 443.106 159.583 439.33L159.795 438.154C159.808 438.124 159.831 438.1 159.86 438.085C159.889 438.07 159.922 438.066 159.954 438.072C159.986 438.079 160.015 438.097 160.035 438.123C160.055 438.148 160.066 438.18 160.065 438.213L159.854 439.389C159.513 441.247 159.195 443.117 159.019 444.987C158.552 449.546 158.438 454.134 158.678 458.71C158.863 462.015 159.315 465.299 160.03 468.53C160.171 469.2 160.336 469.859 160.512 470.518C160.689 471.176 160.924 471.976 161.147 472.693C163.881 481.654 169.745 489.334 177.67 494.332C179.583 495.501 181.571 496.542 183.621 497.448Z" fill="#263238"/>
<path d="M351.13 497.448H140.167C135.463 484.641 135.346 471.129 136.769 459.698C137.953 450.101 140.347 440.693 143.895 431.698L155.891 431.345H157.361H157.854H159.03L223.71 429.428H224.216H224.898L231.366 429.228H232.342L234.518 429.158L237.481 429.075C237.481 429.075 237.411 429.428 237.27 430.075C237.011 431.322 236.494 433.603 235.729 436.672C235.176 438.848 234.553 441.376 233.683 444.14C233.424 445.034 233.154 445.951 232.871 446.892C232.413 448.338 231.942 449.832 231.425 451.349C231.119 452.254 230.802 453.16 230.472 454.077C230.014 455.383 229.52 456.688 229.002 458.005L228.861 458.393V458.534L231.06 458.958L231.378 459.016L234 459.546C236.835 460.122 240.751 460.933 245.478 461.992L246.854 462.297C249.818 462.968 253.075 463.72 256.556 464.555L261.754 465.825L263.236 466.19L266.658 467.06C269.163 467.695 271.738 468.377 274.361 469.083L276.078 469.542L276.713 469.718C280.735 470.812 284.886 471.988 289.096 473.246C305.983 478.232 323.953 484.43 339.511 491.697L339.758 491.815C343.709 493.555 347.531 495.484 351.13 497.448Z" fill="#37474F"/>
<path d="M245.302 452.007C242.585 452.601 239.931 453.451 237.376 454.547C234.683 455.571 232.037 456.735 229.449 457.993C224.367 460.52 219.425 463.319 214.643 466.378C214.491 466.472 214.643 466.672 214.796 466.601C219.853 463.967 225.086 461.603 230.32 459.346L237.881 456.088C240.49 455.092 243.045 453.961 245.537 452.701C245.855 452.525 245.678 451.937 245.302 452.007Z" fill="#263238"/>
<path d="M239.692 428.899C238.622 433.168 237.681 437.484 236.458 441.717C235.894 443.658 235.341 445.633 234.612 447.515C233.989 449.103 233.048 450.925 231.213 451.278C229.085 451.69 228.485 449.879 228.661 448.127C228.85 446.163 229.355 444.21 229.732 442.247C230.178 440.024 230.625 437.813 231.037 435.579C231.237 434.473 231.449 433.356 231.637 432.239C231.637 431.957 231.884 429.828 232.037 429.216C232.037 429.216 232.095 429.322 232.154 429.311H232.236C232.266 429.307 232.294 429.296 232.317 429.277C232.34 429.258 232.357 429.233 232.366 429.205C232.385 429.146 232.385 429.082 232.366 429.023C232.347 428.964 232.31 428.912 232.26 428.875C232.231 428.855 232.196 428.844 232.16 428.844C232.124 428.844 232.089 428.855 232.06 428.875C231.66 429.099 231.625 429.652 231.496 430.051C231.155 431.133 230.802 432.215 230.484 433.309C229.896 435.343 229.308 437.39 228.803 439.448C228.297 441.506 227.779 443.564 227.274 445.622C226.744 447.13 226.598 448.747 226.85 450.326C227.044 451.081 227.476 451.754 228.081 452.246C228.687 452.737 229.435 453.02 230.214 453.054C230.143 453.195 230.049 453.336 229.99 453.477C229.802 453.901 229.661 454.348 229.508 454.771C229.355 455.194 229.191 455.653 229.061 456.112C229.004 456.328 228.965 456.548 228.944 456.77C228.944 457.017 228.944 457.264 228.944 457.511C228.935 457.593 228.954 457.676 228.997 457.745C229.041 457.815 229.108 457.868 229.185 457.895C229.263 457.922 229.348 457.923 229.426 457.896C229.504 457.868 229.57 457.816 229.614 457.746C229.736 457.539 229.87 457.339 230.014 457.146C230.14 456.922 230.242 456.686 230.32 456.441C230.461 456.006 230.578 455.582 230.696 455.147C230.814 454.712 230.931 454.277 231.013 453.842C231.096 453.407 231.013 453.313 231.096 453.054C231.985 452.97 232.835 452.644 233.554 452.113C234.763 451.085 235.649 449.729 236.106 448.209C236.752 446.433 237.282 444.587 237.752 442.764C239.059 438.261 239.972 433.654 240.48 428.993C240.48 428.896 240.444 428.802 240.379 428.729C240.314 428.656 240.225 428.61 240.128 428.598C240.031 428.587 239.933 428.611 239.853 428.666C239.773 428.722 239.716 428.804 239.692 428.899Z" fill="#263238"/>
<path d="M184.02 439.354C183.632 441.482 183.397 443.622 182.903 445.728C182.409 447.833 181.868 449.832 181.186 451.843C180.576 453.788 179.702 455.64 178.587 457.346C177.415 458.947 176.017 460.37 174.436 461.568C171.418 463.963 168.03 465.849 164.405 467.154C162.583 467.815 160.721 468.361 158.831 468.789C157.843 469.012 156.843 469.189 155.843 469.318C155.031 469.346 154.231 469.533 153.491 469.871C153.421 469.915 153.363 469.977 153.323 470.05C153.283 470.123 153.262 470.205 153.262 470.288C153.262 470.372 153.283 470.454 153.323 470.527C153.363 470.6 153.421 470.661 153.491 470.706C154.773 471.329 156.561 470.988 157.925 470.847C159.511 470.684 161.083 470.405 162.629 470.012C165.779 469.176 168.795 467.902 171.59 466.225C174.42 464.628 176.954 462.555 179.081 460.098C181.073 457.517 182.441 454.511 183.08 451.314C184.071 447.419 184.51 443.405 184.385 439.389C184.37 439.355 184.346 439.326 184.315 439.305C184.285 439.283 184.25 439.27 184.213 439.266C184.176 439.263 184.139 439.269 184.105 439.284C184.071 439.3 184.042 439.323 184.02 439.354Z" fill="#263238"/>
<path d="M152.986 497.448H152.022C149.11 490.638 147.292 483.41 146.635 476.033C146.124 470.466 146.042 464.867 146.388 459.287C146.788 451.76 147.729 444.246 148.599 436.755C148.599 436.578 148.882 436.637 148.858 436.755C148.47 440.012 148.07 443.281 147.682 446.551C147.27 450.655 146.953 454.9 146.824 459.193C146.459 472.34 147.706 485.876 152.986 497.448Z" fill="#263238"/>
<path d="M350.918 497.448H349.919C336.264 490.694 322.239 484.715 307.912 479.538C301.64 477.256 295.368 475.143 289.096 473.199C285.003 471.929 280.887 470.733 276.748 469.612L276.125 469.447L274.384 468.977C271.773 468.287 269.159 467.625 266.54 466.99L263.306 466.213L261.836 465.872L258.073 465.037L256.521 464.708C253.275 464.014 250.017 463.379 246.748 462.768L245.255 462.497C241.546 461.831 237.838 461.188 234.13 460.569L229.32 459.816C228.685 459.71 228.849 458.64 229.496 458.64L231.107 458.828H231.472L234.024 459.134C237.975 459.64 241.915 460.251 245.784 460.945L247.089 461.192C250.351 461.78 253.596 462.427 256.826 463.132L261.378 464.144L262.883 464.497C264.811 464.959 266.74 465.433 268.669 465.919C270.739 466.437 272.8 466.974 274.855 467.531L275.725 467.766L276.642 468.013L280.511 469.083C283.486 469.93 286.462 470.8 289.425 471.729C303.178 475.96 316.657 481.034 329.786 486.923C333.063 488.397 336.304 489.929 339.511 491.521L339.758 491.639C343.498 493.555 347.214 495.496 350.918 497.448Z" fill="#263238"/>
<path d="M256.862 450.89C253.992 453.501 131.571 460.592 131.03 459.781C130.489 458.969 158.454 327.528 202.531 309.382C209.516 306.513 228.144 307.5 230.272 310.099C247.948 331.691 258.72 449.232 256.862 450.89Z" fill="#EBEBEB"/>
<path d="M221.017 340.005L226.568 329.48L234.353 337.488L232.754 345.744L225.322 346.92L221.017 340.005Z" fill="#263238"/>
<path d="M225.322 346.92L224.228 430.828L237.881 449.785L247.983 426.653L232.754 345.744L225.322 346.92Z" fill="#263238"/>
<path d="M131.03 459.816C131.571 460.639 253.992 453.524 256.862 450.925C258.52 449.444 249.735 351.306 234.718 317.802C236.929 327.939 241.08 351.906 235.894 371.004C220.299 353.288 207.721 333.129 198.662 311.334C156.82 335.16 130.536 459.087 131.03 459.816Z" fill="#A6A6A6"/>
<path d="M224.369 328.374C217.513 329.139 207.317 317.555 203.801 308.759C203.566 308.147 205.165 302.291 206.764 295.082C207.717 290.707 208.681 285.803 209.234 281.276L236.823 291.648C236.823 291.648 232.871 300.809 231.954 308.723C231.896 309.349 231.896 309.979 231.954 310.605C231.96 310.711 231.96 310.817 231.954 310.923C232.06 314.521 230.99 327.634 224.369 328.374Z" fill="#F7A9A0"/>
<path d="M211.104 281.97C211.292 288.626 213.126 308.418 228.979 310.723C229.956 310.862 230.943 310.925 231.931 310.911C231.925 310.809 231.925 310.707 231.931 310.605C231.86 309.98 231.86 309.349 231.931 308.724C232.836 300.809 236.799 291.648 236.799 291.648L211.104 281.97Z" fill="#263238"/>
<path d="M199.438 254.169C197.956 264.682 207.835 292.824 215.984 298.163C227.815 305.889 244.89 304.114 250.888 290.425C256.697 277.148 243.173 240.704 234.283 236.082C221.17 229.32 201.613 238.634 199.438 254.169Z" fill="#F7A9A0"/>
<path opacity="0.3" d="M250.088 266.787C252.44 276.113 253.169 285.251 250.782 290.601C244.714 304.255 227.615 305.889 215.843 298.116C213.491 296.529 210.939 293.001 208.587 288.496C206.995 283.716 205.734 278.832 204.812 273.879C204.459 271.045 209.845 270.903 209.845 270.903C210.41 273.891 213.573 279.759 216.172 281.558C220.523 284.58 227.756 282.04 230.214 280.958C232.672 279.876 237.035 275.984 242.538 275.972C244.984 275.972 247.548 277.019 249.359 275.372C251.17 273.726 250.159 267.223 250.088 266.787Z" fill="#263238"/>
<path d="M232.001 267.634C232.001 267.575 231.895 267.787 231.919 267.857C232.683 269.704 233.248 271.95 231.789 273.196C231.789 273.196 231.789 273.326 231.789 273.302C233.789 272.232 233.024 269.304 232.001 267.634Z" fill="#263238"/>
<path d="M229.602 266.317C226.521 267.211 228.544 273.373 231.401 272.491C234.259 271.609 232.201 265.564 229.602 266.317Z" fill="#263238"/>
<path d="M242.385 263.965C242.385 263.883 242.562 263.965 242.585 264.083C243.15 265.999 244.126 268.093 246.043 268.152C246.101 268.152 246.125 268.257 246.043 268.269C243.879 268.669 242.609 265.87 242.385 263.965Z" fill="#263238"/>
<path d="M243.432 261.425C246.407 260.19 248.665 266.223 245.913 267.305C243.161 268.387 240.927 262.471 243.432 261.425Z" fill="#263238"/>
<path d="M226.274 264.318C227 263.813 227.698 263.272 228.368 262.695C229.155 262.072 229.861 261.648 230.179 260.637C230.242 260.344 230.205 260.038 230.075 259.767C229.946 259.497 229.729 259.278 229.461 259.143C228.887 258.96 228.274 258.931 227.685 259.061C227.097 259.192 226.553 259.475 226.11 259.884C225.093 260.575 224.368 261.619 224.075 262.812C224.024 263.09 224.055 263.376 224.163 263.637C224.271 263.897 224.453 264.12 224.686 264.28C224.918 264.439 225.192 264.527 225.474 264.534C225.756 264.541 226.034 264.466 226.274 264.318Z" fill="#263238"/>
<path d="M244.773 257.544C243.879 257.685 243.032 257.662 242.127 257.72C241.208 257.905 240.254 257.786 239.41 257.379C239.167 257.202 238.99 256.947 238.909 256.657C238.828 256.367 238.847 256.058 238.963 255.78C239.268 255.262 239.705 254.835 240.231 254.543C240.756 254.252 241.35 254.106 241.95 254.122C243.172 253.958 244.411 254.26 245.42 254.968C245.644 255.14 245.812 255.374 245.905 255.64C245.998 255.907 246.011 256.195 245.942 256.469C245.874 256.743 245.726 256.99 245.518 257.181C245.31 257.372 245.051 257.498 244.773 257.544Z" fill="#263238"/>
<path d="M234.788 285.062C235.329 285.462 235.882 286.05 236.599 286.015C237.337 285.915 238.044 285.654 238.669 285.251C238.682 285.244 238.697 285.242 238.711 285.245C238.726 285.247 238.739 285.254 238.749 285.264C238.76 285.275 238.767 285.288 238.769 285.302C238.772 285.317 238.77 285.332 238.763 285.345C238.532 285.766 238.192 286.118 237.778 286.362C237.364 286.606 236.892 286.734 236.411 286.732C235.995 286.678 235.605 286.501 235.289 286.225C234.973 285.949 234.745 285.585 234.635 285.18C234.565 285.062 234.718 285.004 234.788 285.062Z" fill="#263238"/>
<path d="M235.376 278.829C236.106 279.418 236.95 279.851 237.854 280.1C238.758 280.349 239.704 280.409 240.633 280.276C241.443 280.162 242.234 279.94 242.985 279.617C243.138 279.559 243.667 279.3 243.808 279.218C243.903 279.164 243.977 279.081 244.019 278.981C244.062 278.881 244.07 278.77 244.043 278.665L242.585 274.655C243.197 274.749 246.325 275.066 246.031 274.314C243.561 268.14 240.833 261.26 237.07 255.627C237.043 255.593 237.005 255.57 236.963 255.56C236.921 255.551 236.877 255.557 236.838 255.576C236.8 255.595 236.769 255.627 236.751 255.666C236.733 255.706 236.729 255.75 236.74 255.792C238.869 261.824 242.056 267.446 244.29 273.432C243.175 273.297 242.046 273.325 240.939 273.514C240.833 273.514 242.856 278.383 242.856 278.43C240.504 279.606 238.422 279.417 235.494 278.559C235.317 278.535 235.2 278.712 235.376 278.829Z" fill="#263238"/>
<path d="M241.833 279.053C241.366 280.344 240.577 281.494 239.539 282.393C238.961 282.864 238.249 283.14 237.505 283.181C235.882 283.275 235.4 281.899 235.294 280.64C235.248 279.965 235.28 279.286 235.388 278.618C237.436 279.442 239.692 279.594 241.833 279.053Z" fill="#263238"/>
<path d="M239.539 282.393C238.961 282.864 238.249 283.14 237.505 283.181C235.882 283.275 235.4 281.899 235.294 280.641C236.095 280.41 236.951 280.458 237.722 280.776C238.493 281.095 239.133 281.664 239.539 282.393Z" fill="#FF9CBD"/>
<path d="M207.282 276.736C212.245 275.407 209.258 263.236 209.258 263.236C209.258 263.236 216.643 260.296 218.254 249.03C218.254 249.03 229.367 253.216 237.329 250.029C249.806 245.043 246.031 228.273 240.48 225.827C232.625 222.37 221.829 231.942 221.829 231.942C221.829 231.942 202.272 230.496 199.285 244.196C196.919 244.855 194.891 246.386 193.61 248.482C192.329 250.577 191.89 253.08 192.382 255.486C193.664 264.718 203.577 277.712 207.282 276.736Z" fill="#263238"/>
<path d="M207.752 265.047C211.344 263.645 214.371 261.093 216.36 257.791C218.336 254.263 218.901 249.477 217.007 245.854C216.901 245.655 217.231 245.502 217.325 245.713C219.112 249.806 219.747 254.251 217.76 258.414C216.868 260.346 215.483 262.01 213.745 263.238C212.007 264.466 209.977 265.216 207.858 265.411C207.658 265.423 207.54 265.129 207.752 265.047Z" fill="#263238"/>
<path d="M190.63 250.264C192.523 246.513 196.321 245.219 200.19 244.573C200.414 244.573 200.473 244.89 200.249 244.914C196.368 245.255 193.064 248.559 191.723 252.064C190.383 255.568 191.617 259.237 193.087 262.436C195.886 268.622 200.876 273.552 207.094 276.278C207.109 276.291 207.119 276.308 207.124 276.328C207.128 276.347 207.126 276.367 207.118 276.386C207.11 276.404 207.097 276.419 207.08 276.429C207.063 276.44 207.043 276.444 207.023 276.442C203.529 275.118 200.342 273.097 197.655 270.501C194.968 267.904 192.838 264.788 191.394 261.342C190.018 257.944 188.889 253.734 190.63 250.264Z" fill="#263238"/>
<path d="M221.441 232.648C222.538 229.696 224.675 227.246 227.45 225.757C230.847 224.051 234.755 223.661 238.422 224.663C239.888 225.104 241.212 225.925 242.259 227.042C243.306 228.159 244.039 229.533 244.384 231.025C245.325 234.483 244.384 238.081 242.938 241.28C242.931 241.292 242.92 241.302 242.908 241.309C242.896 241.316 242.882 241.32 242.867 241.32C242.853 241.32 242.839 241.316 242.827 241.309C242.814 241.302 242.804 241.292 242.797 241.28C244.031 238.366 244.338 235.143 243.679 232.048C243.338 230.58 242.59 229.237 241.521 228.174C240.452 227.111 239.105 226.371 237.634 226.039C231.837 224.757 224.134 226.721 221.758 232.836C221.733 232.878 221.693 232.909 221.645 232.921C221.598 232.933 221.547 232.926 221.505 232.901C221.463 232.876 221.433 232.835 221.421 232.788C221.409 232.74 221.416 232.69 221.441 232.648Z" fill="#263238"/>
<path d="M209.457 276.572C209.457 276.572 201.225 268.34 197.439 271.491C193.652 274.643 200.967 287.238 206.259 288.202C206.931 288.372 207.631 288.404 208.316 288.297C209.001 288.189 209.657 287.944 210.245 287.575C210.833 287.207 211.34 286.724 211.737 286.155C212.133 285.585 212.409 284.942 212.55 284.263L209.457 276.572Z" fill="#F7A9A0"/>
<path d="M199.626 275.066C199.555 275.066 199.555 275.184 199.626 275.208C203.366 275.996 205.788 278.9 207.67 282.028C206.4 280.923 204.859 280.464 203.354 282.028C203.272 282.111 203.354 282.24 203.483 282.205C204.061 281.897 204.72 281.778 205.369 281.862C206.018 281.946 206.625 282.23 207.105 282.675C207.904 283.422 208.617 284.254 209.234 285.157C209.457 285.439 209.986 285.157 209.81 284.827V284.757C209.057 280.264 204.483 274.655 199.626 275.066Z" fill="#263238"/>
<path d="M231.837 309.37L225.686 326.328L204.165 305.866L198.509 312.922C198.509 312.922 219.994 345.85 220.077 344.344L226.474 329.68L236.776 339.382L235.106 314.215L231.837 309.37Z" fill="#EBEBEB"/>
<path d="M236.658 326.834C236.235 322.683 235.941 318.496 235.329 314.38C235.329 314.227 235.071 314.168 235.047 314.38C234.353 318.425 236.023 334.266 236.129 338.076C235.694 337.653 226.592 329.562 226.509 329.692C225.098 332.044 220.394 342.71 220.077 343.674C216.678 338.453 203.683 319.449 199.708 314.521C199.688 314.488 199.656 314.465 199.618 314.456C199.581 314.447 199.541 314.454 199.508 314.474C199.476 314.494 199.452 314.527 199.443 314.564C199.435 314.602 199.441 314.641 199.461 314.674C202.495 320.225 219.712 345.815 219.959 345.732C222.457 340.689 224.69 335.519 226.65 330.244C228.203 332.02 237.423 341.193 237.423 340.57C237.412 335.981 237.156 331.396 236.658 326.834Z" fill="#263238"/>
<path d="M191.476 326.457C171.484 364.619 148.411 421.478 160.818 433.885C173.225 446.292 212.033 465.966 241.962 466.813C247.759 466.966 254.898 417.421 248.712 416.962C232.613 415.822 201.319 402.192 198.908 399.84C197.732 398.664 209.61 354.729 211.997 330.456C214.867 301.056 203.448 303.631 191.476 326.457Z" fill="#F7A9A0"/>
<path d="M230.19 414.822C230.19 414.822 233.248 415.328 249.829 415.34C261.295 415.34 289.214 422.713 300.938 452.725C305.419 464.226 299.316 472.399 292.53 461.286C287.744 453.454 285.109 447.609 282.828 445.492C282.828 445.492 281.088 459.428 273.926 463.285C267.655 466.647 261.155 469.562 254.475 472.011C253.742 470.88 253.086 469.702 252.511 468.483C249.552 469.762 246.292 470.178 243.107 469.685C239.921 469.192 236.94 467.809 234.506 465.696L230.19 414.822Z" fill="#F7A9A0"/>
<path d="M260.766 417.104C265.294 421.055 274.737 429.604 280.041 439.283C285.921 450.032 294.353 472.329 286.368 476.586C280.488 479.714 276.548 471.482 276.548 471.482C276.548 471.482 278.101 481.431 272.197 483.101C266.811 484.618 264.13 478.067 264.13 478.067C264.13 478.067 264.024 484.265 258.556 484.724C251.993 485.288 253.275 472.211 246.137 467.025C244.526 465.861 260.766 417.104 260.766 417.104Z" fill="#F7A9A0"/>
<path d="M267.646 443.599C271.28 448.021 276.983 460.181 276.689 471.27C276.689 471.517 276.489 471.647 276.442 471.423C274.616 461.84 271.627 452.516 267.54 443.658C267.505 443.599 267.599 443.552 267.646 443.599Z" fill="#263238"/>
<path d="M256.956 449.855C259.708 453.995 265.035 466.79 264.341 478.009C264.341 478.267 264.13 478.385 264.094 478.15C262.753 468.498 260.323 459.03 256.85 449.926C256.827 449.843 256.921 449.808 256.956 449.855Z" fill="#263238"/>
<path d="M238.046 412.976L225.792 469.33C225.792 469.33 162.947 445.704 157.584 430.522C152.221 415.34 171.12 359.268 189.842 326.587C208.564 293.906 214.314 308.218 212.832 333.455C211.351 358.692 200.637 396.712 201.002 398.323C201.366 399.934 238.046 412.976 238.046 412.976Z" fill="#A6A6A6"/>
<path d="M227.521 412.776C224.522 425.03 222.017 437.413 219.524 449.785C218.818 453.313 218.171 456.782 217.419 460.275C217.426 460.293 217.438 460.308 217.453 460.319C217.469 460.33 217.488 460.336 217.507 460.336C217.526 460.336 217.545 460.33 217.561 460.319C217.577 460.308 217.589 460.293 217.595 460.275C219.101 454.148 220.77 448.068 222.193 441.917C223.616 435.767 224.922 429.581 226.074 423.372C226.721 419.844 227.391 416.316 227.932 412.788C227.923 412.741 227.897 412.699 227.861 412.669C227.824 412.638 227.779 412.621 227.731 412.62C227.684 412.618 227.637 412.633 227.599 412.661C227.561 412.69 227.533 412.73 227.521 412.776Z" fill="#263238"/>
<path d="M211.597 355.799C211.033 357.367 210.457 358.935 209.869 360.503C209.634 361.15 209.375 361.808 209.116 362.467C209.516 360.362 209.904 358.268 210.292 356.163C210.763 353.27 211.268 350.366 211.597 347.449C211.597 347.355 211.456 347.32 211.433 347.449C210.01 352.388 208.987 357.445 207.905 362.467C206.823 367.488 205.894 372.663 204.977 377.755C204.718 379.166 204.494 380.589 204.283 382.012C204.025 383.392 203.848 384.786 203.754 386.187C203.754 386.212 203.763 386.236 203.781 386.253C203.799 386.271 203.823 386.281 203.848 386.281C203.873 386.281 203.897 386.271 203.914 386.253C203.932 386.236 203.942 386.212 203.942 386.187C204.707 383.84 205.328 381.448 205.8 379.025C206.376 376.52 206.858 374.003 207.376 371.487C207.893 368.97 208.328 366.783 208.787 364.431C209.421 363.189 209.968 361.904 210.421 360.585C210.979 359.049 211.435 357.477 211.786 355.881C211.774 355.764 211.68 355.716 211.597 355.799Z" fill="#263238"/>
<path d="M362.114 497.448H135.146C130.442 483.701 126.408 466.872 128.407 453.019C130.759 436.908 141.673 403.321 154.844 373.051C165.322 348.931 177.188 326.905 187.325 317.461C196.38 308.982 202.966 305.207 203.495 304.525C204.024 303.843 204.989 298.986 205.247 298.539C205.247 298.539 205.529 298.539 206 298.539C207.552 298.81 211.327 299.715 215.596 300.786C222.311 302.503 230.237 304.655 232.507 305.49C232.734 305.551 232.949 305.65 233.142 305.784C233.601 306.454 235.494 313.181 235.741 313.663C235.988 314.145 254.851 387.139 255.627 390.267C256.403 393.396 288.673 405.661 307.642 428.864C326.61 452.066 352.188 473.552 355.728 482.56C357.657 487.652 360.221 493.391 362.114 497.448Z" fill="#F1A636"/>
<path opacity="0.1" d="M179.928 329.186C178.79 329.606 177.701 330.15 176.682 330.809L176.459 331.15C177.776 331.004 179.069 330.688 180.304 330.209C181.648 329.742 182.916 329.08 184.068 328.245C182.65 328.363 181.257 328.68 179.928 329.186ZM243.432 343.298L242.832 343.721C243.065 343.71 243.296 343.687 243.526 343.651C243.432 343.486 243.432 343.392 243.432 343.251V343.298ZM209.328 366.042C207.986 366.525 206.716 367.19 205.553 368.017C206.98 367.911 208.382 367.594 209.716 367.077C211.059 366.598 212.327 365.929 213.479 365.089C212.06 365.196 210.663 365.501 209.328 365.995V366.042ZM191.688 416.774C190.344 417.242 189.077 417.903 187.925 418.738C190.771 418.475 193.497 417.465 195.828 415.81C194.408 415.93 193.014 416.255 191.688 416.774ZM162.617 381.2C161.277 381.676 160.013 382.346 158.866 383.188C160.285 383.072 161.679 382.751 163.005 382.235C164.352 381.764 165.62 381.095 166.769 380.248C165.334 380.361 163.924 380.682 162.582 381.2H162.617ZM192.688 449.326C191.346 449.8 190.082 450.469 188.936 451.314C190.355 451.194 191.75 450.869 193.076 450.349C194.424 449.883 195.694 449.213 196.839 448.362C195.404 448.479 193.994 448.803 192.652 449.326H192.688ZM231.131 471.235C229.794 471.718 228.531 472.387 227.38 473.222C228.799 473.102 230.193 472.778 231.519 472.258C232.865 471.792 234.134 471.126 235.282 470.282C233.848 470.395 232.438 470.716 231.096 471.235H231.131ZM229.673 415.304C228.334 415.779 227.07 416.444 225.921 417.28C228.766 417.003 231.49 415.989 233.824 414.34C232.389 414.457 230.979 414.782 229.638 415.304H229.673ZM266.917 440.189C265.578 440.669 264.315 441.338 263.165 442.176C264.58 442.055 265.971 441.73 267.293 441.212C268.644 440.748 269.917 440.082 271.068 439.236C269.633 439.343 268.222 439.664 266.882 440.189H266.917ZM301.056 421.843C300.673 422.068 300.304 422.315 299.951 422.584C300.501 422.548 301.047 422.47 301.585 422.349L301.056 421.843ZM328.68 468.048C327.341 468.526 326.077 469.196 324.929 470.035C326.348 469.915 327.742 469.591 329.068 469.071C330.417 468.605 331.686 467.935 332.832 467.084C331.409 467.204 330.01 467.529 328.68 468.048ZM159.031 418.103C158.543 416.764 157.874 415.498 157.043 414.34C157.163 415.763 157.488 417.161 158.007 418.491C158.472 419.838 159.138 421.107 159.983 422.255C159.871 420.832 159.55 419.433 159.031 418.103ZM165.499 453.548C165.02 452.207 164.355 450.94 163.523 449.785C163.645 451.206 163.966 452.604 164.475 453.936C164.951 455.284 165.621 456.556 166.463 457.711C166.343 456.284 166.018 454.882 165.499 453.548ZM131.994 481.454C131.516 480.107 130.847 478.836 130.007 477.679C130.127 479.106 130.452 480.508 130.971 481.843C131.437 483.191 132.108 484.46 132.959 485.606C132.839 484.183 132.514 482.785 131.994 481.454ZM184.985 493.979C184.508 492.637 183.843 491.37 183.009 490.216C183.121 491.639 183.442 493.038 183.962 494.367C184.351 495.46 184.864 496.506 185.491 497.483H185.89C185.722 496.285 185.418 495.109 184.985 493.979ZM208.34 396.653C207.869 395.307 207.199 394.038 206.353 392.89C206.479 394.308 206.803 395.702 207.317 397.029C207.789 398.373 208.454 399.641 209.293 400.793C209.184 399.373 208.863 397.978 208.34 396.653ZM251.205 454.959C250.739 453.613 250.073 452.344 249.23 451.196C249.357 452.613 249.678 454.005 250.182 455.335C250.663 456.678 251.332 457.945 252.17 459.099C252.051 457.679 251.726 456.285 251.205 454.959ZM266.117 417.092C265.654 415.742 264.983 414.473 264.13 413.329C264.258 414.747 264.583 416.14 265.094 417.468C265.565 418.815 266.235 420.083 267.081 421.231C266.963 419.812 266.638 418.418 266.117 417.092ZM304.408 444.316C303.941 442.97 303.275 441.702 302.432 440.553C302.56 441.97 302.88 443.363 303.385 444.693C303.865 446.035 304.534 447.302 305.372 448.456C305.253 447.037 304.928 445.642 304.408 444.316ZM334.513 489.134C334.047 487.781 333.377 486.508 332.526 485.359C332.657 486.776 332.982 488.169 333.49 489.498C333.966 490.846 334.635 492.118 335.478 493.273C335.36 491.854 335.035 490.459 334.513 489.134ZM190.9 350.366C190.412 349.03 189.744 347.768 188.913 346.614C189.029 348.033 189.35 349.427 189.865 350.754C190.342 352.096 191.007 353.363 191.841 354.517C191.73 353.091 191.413 351.689 190.9 350.354V350.366ZM193.37 312.945C193.287 312.745 193.217 312.546 193.123 312.346L192.241 313.087L192.335 313.333C192.811 314.675 193.476 315.943 194.311 317.097C194.205 315.67 193.888 314.267 193.37 312.934V312.945ZM229.061 323.929C228.583 322.586 227.914 321.319 227.074 320.166C227.194 321.589 227.519 322.987 228.038 324.317C228.513 325.661 229.174 326.932 230.002 328.092C229.897 326.662 229.58 325.255 229.061 323.917V323.929ZM218.877 303.22C217.588 302.62 216.223 302.201 214.82 301.973C215.908 302.897 217.124 303.658 218.43 304.231C219.713 304.85 221.08 305.274 222.488 305.49C221.395 304.566 220.18 303.798 218.877 303.208V303.22ZM176.471 400.31C175.184 399.693 173.813 399.269 172.402 399.052C174.619 400.863 177.262 402.077 180.081 402.58C178.993 401.651 177.777 400.882 176.471 400.299V400.31ZM252.205 377.296C251.507 377.055 250.786 376.885 250.053 376.79C250.806 377.436 251.631 377.992 252.511 378.449C252.417 378.061 252.311 377.672 252.205 377.284V377.296ZM144.719 437.107C143.426 436.494 142.052 436.07 140.638 435.849C142.844 437.679 145.492 438.896 148.317 439.377C147.231 438.451 146.02 437.682 144.719 437.096V437.107ZM229.097 388.08C227.802 387.472 226.428 387.048 225.016 386.822C226.105 387.743 227.321 388.503 228.626 389.08C229.914 389.685 231.279 390.108 232.683 390.338C231.604 389.415 230.396 388.654 229.097 388.08ZM228.144 444.269C226.846 443.669 225.474 443.246 224.063 443.011C225.155 443.932 226.371 444.696 227.674 445.281C228.967 445.882 230.336 446.306 231.743 446.539C230.655 445.618 229.444 444.854 228.144 444.269ZM286.568 430.216C285.278 429.606 283.908 429.182 282.499 428.958C283.586 429.881 284.803 430.642 286.109 431.216C287.395 431.824 288.761 432.248 290.166 432.474C289.092 431.556 287.892 430.796 286.603 430.216H286.568ZM304.102 468.46C302.81 467.858 301.44 467.439 300.033 467.213C301.121 468.137 302.337 468.897 303.643 469.471C304.93 470.08 306.296 470.503 307.7 470.729C306.625 469.809 305.426 469.045 304.137 468.46H304.102ZM218.842 343.463C217.557 342.853 216.19 342.433 214.785 342.216C215.876 343.132 217.091 343.888 218.395 344.462C219.679 345.08 221.045 345.508 222.452 345.732C221.373 344.812 220.169 344.048 218.877 343.463H218.842ZM165.463 356.058C164.855 357.344 164.431 358.71 164.205 360.115C165.128 359.031 165.889 357.819 166.463 356.516C167.082 355.234 167.506 353.867 167.721 352.459C166.803 353.547 166.043 354.758 165.463 356.058ZM208.505 430.675C207.908 431.974 207.485 433.346 207.247 434.755C208.167 433.663 208.931 432.448 209.516 431.145C210.118 429.852 210.541 428.483 210.775 427.076C209.857 428.166 209.093 429.377 208.505 430.675ZM234.859 364.819C234.256 366.107 233.832 367.472 233.601 368.876C234.526 367.792 235.291 366.58 235.87 365.277C236.47 363.988 236.889 362.623 237.117 361.22C236.191 362.302 235.43 363.514 234.859 364.819ZM244.679 430.251C244.075 431.54 243.652 432.905 243.42 434.309C244.346 433.229 245.11 432.02 245.69 430.722C246.296 429.429 246.723 428.061 246.96 426.653C246.031 427.737 245.263 428.949 244.679 430.251ZM282.087 406.731C282.073 406.78 282.053 406.828 282.028 406.873C281.423 408.16 281 409.526 280.77 410.93C281.692 409.871 282.452 408.682 283.028 407.402L282.087 406.731ZM323.188 446.433C322.625 447.677 322.229 448.99 322.012 450.337C322.814 449.413 323.486 448.385 324.012 447.28L323.188 446.433ZM175.953 434.497C175.358 435.788 174.935 437.152 174.695 438.554C175.613 437.468 176.376 436.261 176.965 434.967C177.559 433.667 177.982 432.296 178.223 430.886C177.3 431.986 176.536 433.209 175.953 434.52V434.497ZM266.952 469.565C265.608 470.032 264.341 470.694 263.189 471.529C266.035 471.265 268.761 470.255 271.092 468.601C269.672 468.721 268.278 469.046 266.952 469.565ZM251.252 486.135C250.644 487.421 250.22 488.787 249.994 490.192C250.915 489.104 251.679 487.893 252.264 486.594C252.862 485.3 253.281 483.931 253.51 482.525C252.591 483.613 251.834 484.829 251.264 486.135H251.252ZM284.086 456.088C283.487 457.377 283.067 458.742 282.84 460.145C283.758 459.058 284.518 457.847 285.098 456.547C285.698 455.249 286.121 453.876 286.356 452.466C285.439 453.563 284.679 454.782 284.098 456.088H284.086ZM353.976 479.479C353.694 479.973 353.435 480.478 353.2 480.984C352.595 482.272 352.171 483.637 351.942 485.041C352.86 483.958 353.62 482.751 354.2 481.454C354.341 481.125 354.482 480.796 354.611 480.467C354.384 480.153 354.172 479.824 353.976 479.479ZM183.456 472.752C182.117 473.226 180.853 473.892 179.705 474.728C181.122 474.606 182.516 474.285 183.844 473.775C185.189 473.299 186.456 472.63 187.607 471.788C186.184 471.908 184.786 472.233 183.456 472.752ZM143.19 464.214C141.852 464.691 140.588 465.356 139.438 466.19C142.287 465.915 145.015 464.901 147.353 463.25C145.916 463.355 144.502 463.668 143.155 464.179L143.19 464.214ZM283.416 485.688C282.95 484.339 282.28 483.07 281.429 481.925C281.56 483.342 281.885 484.735 282.393 486.064C282.869 487.409 283.538 488.677 284.38 489.828C284.262 488.408 283.937 487.014 283.416 485.688ZM223.499 493.92C223.032 492.574 222.366 491.305 221.523 490.157C221.651 491.574 221.971 492.966 222.476 494.296C222.879 495.39 223.396 496.438 224.016 497.425H224.404C224.213 496.243 223.889 495.088 223.44 493.979L223.499 493.92ZM205.859 480.643C204.563 480.04 203.19 479.621 201.778 479.396C202.868 480.318 204.083 481.078 205.388 481.654C206.679 482.262 208.049 482.685 209.457 482.913C208.348 482.008 207.117 481.264 205.8 480.702L205.859 480.643ZM161.43 481.96C160.14 481.35 158.77 480.926 157.361 480.702C158.451 481.625 159.666 482.389 160.971 482.971C162.26 483.571 163.625 483.99 165.028 484.218C163.928 483.315 162.705 482.574 161.394 482.019L161.43 481.96ZM309.018 489.016C308.409 490.302 307.985 491.668 307.759 493.073C308.685 491.989 309.449 490.777 310.029 489.475C310.628 488.186 311.048 486.821 311.276 485.418C310.334 486.52 309.561 487.757 308.982 489.087L309.018 489.016ZM210.269 460.463C209.662 461.754 209.238 463.123 209.011 464.532C209.929 463.445 210.689 462.233 211.268 460.933C211.874 459.637 212.297 458.264 212.527 456.853C211.606 457.942 210.845 459.158 210.269 460.463ZM146.048 493.92C145.525 495.048 145.13 496.232 144.872 497.448H145.213C145.93 496.494 146.542 495.465 147.035 494.379C147.641 493.083 148.064 491.71 148.294 490.298C147.38 491.395 146.624 492.614 146.048 493.92ZM248.136 400.569C247.521 401.852 247.101 403.219 246.89 404.626C247.813 403.539 248.574 402.323 249.147 401.016C249.751 399.728 250.174 398.363 250.406 396.959C249.483 398.049 248.718 399.265 248.136 400.569ZM188.16 378.296C187.542 379.588 187.115 380.962 186.89 382.376C188.714 380.167 189.93 377.52 190.418 374.697C189.501 375.785 188.741 376.996 188.16 378.296ZM205.036 325.646C204.42 326.929 204 328.296 203.789 329.703C204.71 328.618 205.47 327.406 206.047 326.105C206.649 324.812 207.072 323.443 207.305 322.036C206.37 323.124 205.594 324.34 205 325.646H205.036Z" fill="black"/>
<g opacity="0.1">
<path d="M268.54 398.464C265.588 405.52 259.331 420.044 256.85 423.395C253.546 427.852 246.936 426.653 241.974 427.076C237.011 427.5 220.465 435.132 218.454 434.309C216.443 433.485 242.409 419.291 247.254 416.245C252.099 413.199 255.709 395.43 255.627 390.373C255.886 391.608 261.131 394.254 268.54 398.464Z" fill="black"/>
<path d="M234.212 438.283C227.262 440.212 215.22 449.573 210.304 450.772C205.388 451.972 209.81 454.712 216.302 454.806C222.793 454.9 228.426 452.454 230.696 448.856C232.966 445.257 236.482 443.293 239.222 441.176C241.962 439.059 236.752 437.578 234.212 438.283Z" fill="black"/>
</g>
<path d="M205.424 304.819C208.199 305.266 210.927 305.995 213.656 306.724C216.384 307.453 218.971 308.112 221.629 308.818C226.991 310.264 228.379 310.629 233.624 312.475C233.651 312.486 233.673 312.507 233.686 312.534C233.698 312.561 233.7 312.591 233.691 312.619C233.682 312.647 233.663 312.671 233.638 312.685C233.612 312.7 233.582 312.705 233.554 312.698C229.444 311.926 225.378 310.941 221.37 309.747C218.712 309.025 216.066 308.288 213.432 307.536C210.739 306.76 207.999 306.042 205.388 305.043C205.365 305.032 205.346 305.014 205.334 304.991C205.322 304.969 205.318 304.943 205.322 304.918C205.326 304.892 205.338 304.869 205.356 304.851C205.375 304.833 205.398 304.822 205.424 304.819Z" fill="#263238"/>
<path opacity="0.1" d="M179.669 346.532C177.476 350.037 175.655 353.761 174.236 357.645C172.737 361.493 171.445 365.419 170.367 369.405C169.826 371.393 169.391 373.415 169.015 375.426C168.603 377.417 168.441 379.452 168.533 381.483C168.85 385.552 169.473 389.715 170.026 393.76C171.202 401.992 172.378 410.142 173.554 418.327L175.353 430.616L177.07 442.917C176.247 438.86 175.518 434.779 174.718 430.71L172.59 418.468C171.226 410.306 169.955 402.121 168.779 393.913C168.25 389.797 167.603 385.681 167.38 381.53C167.3 379.418 167.481 377.305 167.921 375.238C168.329 373.192 168.834 371.173 169.438 369.182C170.604 365.182 172.006 361.255 173.636 357.422C175.229 353.575 177.253 349.922 179.669 346.532Z" fill="black"/>
<path d="M160.289 497.448H126.102L104.664 338.547C107.286 336.677 152.88 330.703 152.88 330.703L154.75 373.039L154.961 377.743L156.784 419.138L157.149 427.253L157.255 429.675L157.325 431.275V432.274L157.631 439.33L158.137 450.667L158.489 458.569L158.866 467.272L158.925 468.624L159.019 470.588L160.065 494.379L160.289 497.448Z" fill="#DBDBDB"/>
<path d="M293.271 416.245L287.579 432.098L282.922 445.069L278.747 456.676L277.548 460.016L276.113 464.014L275.337 466.19L274.831 467.589L274.337 468.965L274.325 469.012L269.245 483.148L264.094 497.483H249.324L253.193 479.737L254.91 471.858L256.462 464.743L256.533 464.438L256.803 463.191L258.638 454.783L258.932 453.466L259.002 453.148L262.836 435.543L256.344 435.779H256.333L254.674 435.849L250.594 435.99L243.796 436.249L239.316 436.414L238.54 436.437L237.858 436.461L235.764 436.543L232.907 436.649L232.048 436.684L230.825 436.719L229.508 436.778L228.532 436.813L223.311 437.002L222.123 437.049L166.992 439.083L165.087 439.154L159.854 439.342L159.583 439.354L157.725 439.424L156.408 439.471L155.961 432.368L155.902 431.369L155.655 427.429L156.843 427.335L157.196 427.3L157.76 427.253L224.345 421.843L225.416 421.761L226.392 421.678L230.743 421.325L236.329 420.867L246.736 420.032L250.605 419.714L254.78 419.373H254.792L260.155 418.938L262.601 418.738L265.87 418.468L293.271 416.245Z" fill="#A6A6A6"/>
<path d="M480.984 411.376C495.214 425.289 497.601 446.88 494.602 465.696C494.531 466.119 493.861 466.013 493.861 465.602C493.861 461.309 493.99 457.052 493.979 452.819L493.767 452.242C490.051 449.549 486.64 446.504 484.524 442.317C482.172 437.613 481.219 432.38 479.408 427.511C479.232 427.041 479.737 427.182 480.055 427.417C488.71 433.791 491.462 440.659 493.943 449.832C493.891 445.036 493.387 440.256 492.438 435.555C490.568 426.841 486.876 418.221 480.619 411.765C480.384 411.506 480.749 411.13 480.984 411.376Z" fill="#263238"/>
<path d="M478.326 412.999C475.88 413.082 474.351 416.986 472.446 418.127C472.246 418.291 472.014 418.411 471.765 418.479C471.515 418.546 471.254 418.561 470.999 418.521C470.744 418.481 470.5 418.387 470.283 418.247C470.066 418.106 469.882 417.921 469.741 417.703C467.848 415.069 470.447 411.823 472.881 410.001C471.141 410.706 469.694 411.976 467.813 412.353C467.573 412.433 467.318 412.459 467.066 412.431C466.814 412.403 466.572 412.321 466.355 412.19C466.138 412.06 465.952 411.883 465.81 411.674C465.668 411.464 465.573 411.227 465.531 410.977C464.696 407.39 469.212 405.791 472.305 405.708C470.8 404.673 466.507 401.839 468.777 400.44C471.047 399.04 476.127 403.098 477.774 404.426C480.196 406.39 483.077 409.319 483.183 412.388C483.336 415.951 480.208 413.74 478.326 412.999Z" fill="#27A64A"/>
<path opacity="0.1" d="M478.332 413.407C475.885 413.49 474.357 417.394 472.452 418.535C472.252 418.699 472.019 418.819 471.77 418.887C471.521 418.954 471.26 418.969 471.004 418.929C470.749 418.889 470.505 418.795 470.288 418.655C470.071 418.514 469.887 418.329 469.747 418.111C467.853 415.477 470.452 412.231 472.887 410.409C471.146 411.114 469.7 412.384 467.818 412.761C467.578 412.841 467.323 412.867 467.071 412.839C466.82 412.811 466.577 412.729 466.36 412.598C466.144 412.468 465.958 412.291 465.815 412.082C465.673 411.872 465.578 411.634 465.537 411.385C464.702 407.798 469.218 406.199 472.31 406.116C470.805 405.081 466.513 402.247 468.782 400.848C471.052 399.448 476.132 403.505 477.779 404.834C480.201 406.798 483.083 409.727 483.188 412.796C483.341 416.359 480.213 414.148 478.332 413.407Z" fill="black"/>
<path d="M479.032 413.599C475.904 412.176 469.894 414.222 469.389 413.035C468.354 410.624 473.152 408.977 475.751 408.66C473.399 408.013 468.789 406.978 468.93 404.673C469.095 401.874 475.986 404.285 479.408 406.943C483.771 410.283 483.736 413.517 483.018 414.164C482.031 415.046 479.549 413.834 479.032 413.599Z" fill="#27A64A"/>
<path d="M513.383 409.989C498.624 423.36 495.437 444.787 497.718 463.756C497.718 464.179 498.436 464.085 498.459 463.685C498.624 459.393 498.647 455.135 498.824 450.902C498.906 450.714 498.977 450.537 499.071 450.337C502.881 447.785 506.397 444.869 508.679 440.777C511.219 436.202 512.36 430.969 514.359 426.171C514.547 425.712 514.041 425.83 513.712 426.053C504.821 432.098 501.811 438.848 498.977 447.927C499.195 443.135 499.864 438.375 500.976 433.709C503.175 425.077 507.197 416.598 513.689 410.389C513.983 410.142 513.63 409.754 513.383 409.989Z" fill="#263238"/>
<path d="M515.982 411.718C518.428 411.894 519.804 415.857 521.674 417.068C521.866 417.239 522.092 417.368 522.337 417.445C522.583 417.522 522.842 417.547 523.097 417.517C523.353 417.487 523.599 417.403 523.82 417.271C524.041 417.139 524.231 416.962 524.378 416.751C526.378 414.187 523.908 410.871 521.544 408.931C523.249 409.707 524.649 411.024 526.519 411.447C526.757 411.538 527.011 411.575 527.265 411.558C527.519 411.541 527.766 411.469 527.989 411.347C528.213 411.225 528.407 411.057 528.559 410.853C528.712 410.649 528.818 410.414 528.871 410.165C529.823 406.637 525.343 404.838 522.297 404.65C523.837 403.662 528.236 400.993 526.013 399.511C523.79 398.029 518.557 401.863 516.864 403.156C514.371 405.026 511.384 407.86 511.148 410.906C510.866 414.481 514.077 412.4 515.982 411.718Z" fill="#27A64A"/>
<path opacity="0.1" d="M515.987 412.126C518.433 412.302 519.809 416.265 521.679 417.476C521.871 417.647 522.098 417.776 522.343 417.853C522.588 417.93 522.847 417.954 523.103 417.924C523.358 417.894 523.604 417.811 523.825 417.679C524.046 417.547 524.236 417.37 524.384 417.159C526.383 414.595 523.913 411.279 521.55 409.338C523.255 410.115 524.654 411.432 526.524 411.855C526.762 411.945 527.017 411.983 527.271 411.966C527.524 411.949 527.772 411.877 527.995 411.755C528.218 411.633 528.413 411.465 528.565 411.261C528.717 411.057 528.823 410.822 528.876 410.573C529.829 407.045 525.348 405.246 522.302 405.058C523.843 404.07 528.241 401.4 526.019 399.919C523.796 398.437 518.563 402.271 516.869 403.564C514.376 405.434 511.389 408.268 511.154 411.314C510.872 414.889 514.082 412.808 515.987 412.126Z" fill="black"/>
<path d="M515.253 412.294C518.44 410.988 524.355 413.27 524.919 412.106C526.037 409.754 521.309 407.896 518.734 407.484C521.086 406.919 525.79 406.073 525.696 403.768C525.625 400.945 518.698 403.109 515.112 405.626C510.631 408.801 510.537 412.035 511.231 412.682C512.207 413.623 514.735 412.505 515.253 412.294Z" fill="#27A64A"/>
<path d="M498.306 445.304C497.315 452.465 495.786 459.541 493.732 466.472C493.697 466.602 493.613 466.714 493.499 466.784C493.384 466.855 493.247 466.879 493.115 466.852C492.983 466.825 492.866 466.749 492.789 466.639C492.711 466.529 492.678 466.394 492.697 466.26C493.673 459.745 495.437 453.324 496.401 446.845C497.478 440.239 497.872 433.539 497.577 426.853C496.966 415.881 493.979 404.203 486.817 395.618C486.664 395.418 486.993 395.124 487.158 395.312C501.493 412.035 499.212 432.533 499.2 434.367C501.235 427.452 503.328 419.514 510.96 412.47C511.289 412.164 511.548 412.306 511.489 412.823C510.113 425.665 506.55 432.368 499.106 439.224C498.894 441.27 498.624 443.352 498.306 445.304Z" fill="#263238"/>
<path d="M486.641 397.559C484.065 396.383 480.502 399.687 477.95 399.911C477.661 399.981 477.359 399.989 477.067 399.934C476.774 399.879 476.496 399.763 476.251 399.593C476.007 399.423 475.801 399.203 475.648 398.948C475.495 398.692 475.398 398.407 475.363 398.111C474.728 394.43 479.055 392.361 482.501 391.702C480.337 391.561 478.197 392.149 476.068 391.573C475.78 391.532 475.504 391.429 475.259 391.273C475.013 391.117 474.804 390.91 474.644 390.666C474.485 390.422 474.38 390.147 474.335 389.859C474.291 389.572 474.309 389.278 474.387 388.997C475.339 384.846 480.819 385.469 484.065 386.939C483.03 385.105 480.008 380.001 483.077 379.707C486.147 379.413 489.369 386.163 490.404 388.374C491.921 391.62 493.438 396.112 492.015 399.358C490.392 403.145 488.216 399.276 486.641 397.559Z" fill="#27A64A"/>
<path opacity="0.1" d="M486.646 397.967C484.071 396.791 480.507 400.095 477.955 400.319C477.666 400.389 477.365 400.397 477.072 400.342C476.779 400.287 476.501 400.171 476.257 400.001C476.012 399.831 475.807 399.611 475.654 399.356C475.5 399.1 475.403 398.815 475.368 398.519C474.733 394.838 479.061 392.769 482.507 392.11C480.343 391.969 478.202 392.557 476.074 391.981C475.786 391.94 475.509 391.837 475.264 391.681C475.018 391.525 474.809 391.318 474.65 391.074C474.491 390.83 474.385 390.555 474.341 390.267C474.296 389.98 474.314 389.686 474.392 389.405C475.345 385.254 480.825 385.877 484.071 387.347C483.036 385.513 480.013 380.409 483.083 380.115C486.152 379.821 489.374 386.571 490.409 388.782C491.926 392.028 493.443 396.52 492.02 399.766C490.398 403.553 488.222 399.684 486.646 397.967Z" fill="black"/>
<path d="M487.076 398.535C484.547 395.489 477.28 394.583 477.35 393.102C477.48 390.079 483.301 390.75 486.147 391.749C483.995 389.879 479.773 386.516 481.078 384.187C482.666 381.365 488.546 387.316 490.804 391.808C493.65 397.476 491.98 400.816 490.921 401.122C489.451 401.545 487.487 399.04 487.076 398.535Z" fill="#27A64A"/>
<path d="M507.738 449.161L514.065 497.448H475.586C476.374 493.167 483.536 449.067 483.536 449.067L507.738 449.161Z" fill="#F1A636"/>
<path d="M55.7894 497.483L115.342 497.189L174.895 497.095L294 496.895L413.105 497.083L472.658 497.189L532.21 497.483L472.658 497.766L413.105 497.871L294 498.071L174.895 497.871L115.342 497.766L55.7894 497.483Z" fill="#263238"/>
<path d="M379.871 521.885H414.187V470.071H379.871V521.885Z" fill="#F1A636"/>
<path d="M387.433 464.955H406.602V455.136H387.433V464.955Z" fill="#A6A6A6"/>
<path d="M404.062 464.955H389.985V470.071H404.062V464.955Z" fill="#F1A636"/>
<path d="M383.623 521.862C382.965 520.204 381.91 518.733 380.55 517.579C379.191 516.425 377.568 515.622 375.826 515.241C375.179 514.747 375.567 514.065 375.203 513.912C373.653 513.592 372.056 513.572 370.499 513.853C370.04 514.1 370.252 515.029 369.793 515.135C363.408 516.629 359.891 520.815 358.821 521.486C357.516 522.309 350.519 522.132 345.626 521.262C340.734 520.392 334.925 516.746 333.114 514.453C333.114 514.453 292.095 515.194 264.012 523.99V525.166L338.488 523.026C344.031 525.035 349.892 526.023 355.787 525.943C356.15 525.917 356.512 525.991 356.836 526.156C357.159 526.322 357.431 526.574 357.622 526.883C358.362 527.742 361.738 535.186 371.628 534.868C381.518 534.551 385.928 526.683 383.623 521.862ZM364.337 529.447C361.385 526.072 362.396 521.662 366.818 519.275C371.24 516.887 375.991 517.299 378.719 520.262C382.447 524.296 379.742 528.612 376.755 530.47C373.462 532.516 367.3 532.822 364.337 529.447Z" fill="#37474F"/>
<path d="M338.453 518.522L329.68 523.226L303.537 523.979L319.178 515.088C327.587 514.524 333.126 514.418 333.126 514.418C334.649 516.086 336.452 517.475 338.453 518.522Z" fill="#263238"/>
<path d="M265.623 524.084C268.269 523.32 270.962 522.685 273.667 522.062C276.372 521.438 279.088 520.886 281.817 520.38C287.273 519.345 292.777 518.487 298.281 517.793C303.784 517.099 309.359 516.617 314.921 516.252C316.309 516.182 317.696 516.064 319.084 516.017L323.259 515.864C324.658 515.805 326.046 515.864 327.434 515.805H331.609C326.046 516.005 320.495 516.205 314.945 516.652C309.394 517.099 303.867 517.605 298.351 518.31C292.836 519.016 287.356 519.816 281.887 520.768C276.419 521.721 270.997 522.779 265.623 524.084Z" fill="#455A64"/>
<path d="M344.639 512.995C349.19 511.148 355.975 509.537 357.445 510.055C358.915 510.572 365.501 515.735 372.933 513.583C378.872 511.913 381.518 507.95 382.341 504.386C383.164 500.823 385.093 501.082 387.469 500.106C390.478 498.776 392.96 496.484 394.525 493.591C395.842 490.709 392.808 489.098 391.067 492.415C389.327 495.731 387.092 496.989 383.564 497.742C380.036 498.495 376.261 492.297 366.747 494.32C357.234 496.342 355.517 503.998 354.987 504.986C354.458 505.974 354.129 506.162 353.435 506.28C347.681 507.412 342.187 509.601 337.23 512.736L264.106 525.942L264.412 527.118C293.906 529.929 334.078 522.214 334.078 522.214C335.289 519.592 340.088 514.841 344.639 512.995ZM360.926 506.315C359.397 502.293 361.985 498.365 367.041 497.295C372.098 496.225 376.449 497.907 377.896 501.482C379.907 506.35 375.744 509.714 372.239 510.678C368.382 511.736 362.467 510.384 360.926 506.315Z" fill="#455A64"/>
<path d="M325.481 518.616C325.093 518.238 324.586 518.006 324.046 517.959C323.506 517.912 322.966 518.052 322.518 518.357C322.304 518.481 322.122 518.652 321.983 518.857C321.845 519.061 321.755 519.295 321.72 519.539C321.685 519.784 321.706 520.033 321.781 520.268C321.856 520.503 321.983 520.719 322.153 520.897C322.54 521.277 323.047 521.512 323.587 521.561C324.127 521.61 324.667 521.471 325.117 521.168C325.329 521.041 325.51 520.869 325.647 520.663C325.784 520.457 325.873 520.224 325.908 519.979C325.943 519.734 325.923 519.485 325.849 519.249C325.775 519.013 325.65 518.797 325.481 518.616Z" fill="#C7C7C7"/>
<path d="M324.988 518.957C324.715 518.687 324.357 518.52 323.975 518.486C323.593 518.451 323.21 518.551 322.894 518.769C322.746 518.859 322.619 518.981 322.523 519.126C322.427 519.271 322.364 519.435 322.34 519.607C322.315 519.779 322.329 519.955 322.38 520.121C322.431 520.287 322.518 520.44 322.636 520.568C322.909 520.837 323.267 521.002 323.649 521.036C324.03 521.071 324.412 520.972 324.729 520.756C324.878 520.666 325.004 520.544 325.1 520.399C325.196 520.254 325.259 520.09 325.284 519.918C325.308 519.746 325.295 519.57 325.243 519.404C325.192 519.238 325.105 519.085 324.988 518.957Z" fill="#EBEBEB"/>
<path d="M265.129 526.436C267.967 526.499 270.801 526.499 273.632 526.436C276.462 526.374 279.296 526.327 282.134 526.295C287.802 526.131 293.471 525.884 299.127 525.472C301.95 525.307 304.772 525.049 307.606 524.825C310.44 524.602 313.251 524.296 316.062 523.955L320.284 523.473L324.494 522.897L326.599 522.626L328.692 522.297L332.89 521.662C327.34 522.708 321.742 523.661 316.109 524.331L314.004 524.602L311.887 524.837L307.653 525.272C304.819 525.507 301.997 525.79 299.163 525.966C293.494 526.33 287.814 526.589 282.146 526.672C276.477 526.754 270.786 526.742 265.129 526.436Z" fill="#37474F"/>
<path d="M381.73 503.622C381.494 505.75 380.63 507.76 379.248 509.396C377.71 511.158 375.704 512.446 373.462 513.112C371.118 513.826 368.626 513.903 366.242 513.336C363.955 512.785 361.769 511.88 359.762 510.654C359.28 510.384 358.774 510.043 358.315 509.831C357.795 509.645 357.245 509.557 356.692 509.573C355.506 509.598 354.325 509.736 353.164 509.984C350.856 510.487 348.582 511.135 346.355 511.925C344.166 512.678 342.086 513.718 340.17 515.017C338.271 516.205 336.588 517.709 335.195 519.463C335.811 518.549 336.533 517.712 337.347 516.97C339.919 514.616 342.922 512.783 346.191 511.572C348.425 510.735 350.716 510.059 353.047 509.549C354.238 509.287 355.45 509.138 356.669 509.102C357.305 509.084 357.939 509.183 358.539 509.396C359.127 509.667 359.55 509.972 360.056 510.255C362.001 511.462 364.124 512.355 366.347 512.901C368.633 513.458 371.023 513.413 373.286 512.771C375.483 512.159 377.461 510.936 378.989 509.243C380.423 507.671 381.374 505.72 381.73 503.622Z" fill="#263238"/>
<path d="M239.351 504.139H219.559V527.33H239.351V504.139Z" fill="#263238"/>
<path d="M240.492 512.313H218.36V514.629H240.492V512.313Z" fill="#263238"/>
<path d="M240.492 515.147H218.36V517.464H240.492V515.147Z" fill="#263238"/>
<path d="M240.492 517.969H218.36V520.286H240.492V517.969Z" fill="#263238"/>
<path d="M238.434 504.139H220.465C220.465 504.139 214.373 488.146 215.502 486.688C216.631 485.229 221.994 483.265 229.449 483.265C236.423 483.265 242.291 485.218 243.42 486.688C244.549 488.158 238.434 504.139 238.434 504.139Z" fill="#F1A636"/>
<path opacity="0.5" d="M238.434 504.139H220.465C220.465 504.139 214.373 488.146 215.502 486.688C216.631 485.229 221.994 483.265 229.449 483.265C236.423 483.265 242.291 485.218 243.42 486.688C244.549 488.158 238.434 504.139 238.434 504.139Z" fill="white"/>
<path d="M216.172 487.017C216.267 487.287 216.608 487.346 216.855 487.452C217.116 487.544 217.383 487.619 217.654 487.675C218.207 487.817 218.76 487.911 219.312 488.005C220.426 488.177 221.543 488.318 222.664 488.428C224.902 488.665 227.152 488.779 229.402 488.769C231.656 488.785 233.91 488.683 236.153 488.463C237.273 488.373 238.388 488.224 239.493 488.016C240.61 487.896 241.693 487.556 242.68 487.017C241.75 487.682 240.686 488.135 239.563 488.346C238.458 488.616 237.34 488.816 236.212 488.981C231.699 489.631 227.117 489.631 222.605 488.981C221.429 488.816 220.359 488.616 219.254 488.357C218.701 488.216 218.148 488.075 217.607 487.887C217.337 487.793 217.066 487.699 216.808 487.581C216.549 487.464 216.243 487.311 216.172 487.017Z" fill="#F1A636"/>
<path d="M221.652 504.163C220.782 502.176 220.053 500.129 219.3 498.095C218.569 496.05 217.941 493.97 217.419 491.862L219.63 497.977C220.335 500.035 221.088 502.081 221.652 504.163Z" fill="#F1A636"/>
<path d="M219.559 495.837C220.1 497.178 220.523 498.565 220.947 499.941C221.37 501.317 221.746 502.716 222.017 504.139C221.476 502.811 221.053 501.423 220.629 500.035C220.206 498.648 219.829 497.26 219.559 495.837Z" fill="#F1A636"/>
<path d="M235.894 504.14C236.576 501.788 237.34 499.565 238.081 497.283L239.257 493.873C239.622 492.697 240.01 491.592 240.339 490.439C239.863 492.796 239.226 495.119 238.434 497.389C237.623 499.659 236.835 501.929 235.894 504.14Z" fill="#F1A636"/>
<path d="M232.448 504.139C232.942 500.611 233.683 497.166 234.424 493.708C234.285 495.475 234.034 497.231 233.671 498.965C233.318 500.706 232.954 502.434 232.448 504.139Z" fill="#F1A636"/>
<path d="M224.616 504.139C224.122 502.434 223.757 500.706 223.44 498.965C223.089 497.229 222.838 495.474 222.687 493.708C223.44 497.166 224.169 500.623 224.616 504.139Z" fill="#F1A636"/>
<path d="M231.672 495.578C231.754 497.013 231.672 498.448 231.672 499.882C231.672 501.317 231.519 502.74 231.319 504.163C231.237 502.728 231.319 501.294 231.319 499.871C231.319 498.448 231.484 497.001 231.672 495.578Z" fill="#F1A636"/>
<path d="M234.906 497.542C234.732 498.691 234.48 499.826 234.153 500.941C233.853 502.064 233.414 503.147 232.848 504.163C233.048 503.622 233.189 503.057 233.354 502.505L233.824 500.847C234.165 499.8 234.483 498.624 234.906 497.542Z" fill="#F1A636"/>
<path d="M223.663 490.921C223.734 492.027 223.863 493.132 223.981 494.238L224.357 497.542C224.604 499.741 224.898 501.952 225.086 504.163C224.616 501.987 224.31 499.788 224.028 497.577C223.736 495.371 223.615 493.146 223.663 490.921Z" fill="#F1A636"/>
</svg>
