<svg width="102" height="102" viewBox="0 0 102 102" fill="none" xmlns="http://www.w3.org/2000/svg">
<path d="M68.8075 8.5H33.1925C17.7225 8.5 8.5 17.7225 8.5 33.1925V68.765C8.5 84.2775 17.7225 93.5 33.1925 93.5H68.765C84.235 93.5 93.4575 84.2775 93.4575 68.8075V33.1925C93.5 17.7225 84.2775 8.5 68.8075 8.5ZM58.6075 63.75C59.84 64.9825 59.84 67.0225 58.6075 68.255C57.97 68.8925 57.1625 69.19 56.355 69.19C55.5475 69.19 54.74 68.8925 54.1025 68.255L39.1 53.2525C38.5072 52.6527 38.1748 51.8433 38.1748 51C38.1748 50.1567 38.5072 49.3473 39.1 48.7475L54.1025 33.745C55.335 32.5125 57.375 32.5125 58.6075 33.745C59.84 34.9775 59.84 37.0175 58.6075 38.25L45.8575 51L58.6075 63.75Z" fill="#F2BF3A"/>
</svg>
